<?xml version="1.0" standalone="no"?>
<!DOCTYPE svg PUBLIC "-//W3C//DTD SVG 1.1//EN" "http://www.w3.org/Graphics/SVG/1.1/DTD/svg11.dtd" >
<svg xmlns="http://www.w3.org/2000/svg" xmlns:xlink="http://www.w3.org/1999/xlink" version="1.1">
<metadata>
Created by FontForge 20170731 at Wed Jun  8 00:01:44 2016
 By Aleksey,,,
Copyright 2008 The Bungee Project Authors (david@djr.com)
</metadata>
<defs>
<font id="Bungee-Regular" horiz-adv-x="1000" >
  <font-face 
    font-family="Bungee Regular"
    font-weight="400"
    font-stretch="normal"
    units-per-em="1000"
    panose-1="0 0 0 0 0 0 0 0 0 0"
    ascent="860"
    descent="-140"
    x-height="720"
    cap-height="720"
    bbox="-606.508 -914.508 1942.51 1634.51"
    underline-thickness="0"
    underline-position="0"
    unicode-range="U+0020-FF3E"
  />
<missing-glyph 
d="M900 -4q0 -36 -36 -36h-728q-36 0 -36 36v728q0 36 36 36h728q36 0 36 -36v-728zM850 10v700h-700v-700h700z" />
    <glyph glyph-name="I_I.salt_v" unicode="&#xe201;&#xe201;" 
d="M573 36v648q0 36 36 36h155q36 0 36 -36v-648q0 -36 -36 -36h-155q-36 0 -36 36zM427 684v-648q0 -36 -36 -36h-155q-36 0 -36 36v648q0 36 36 36h155q36 0 36 -36z" />
    <glyph glyph-name=".notdef" 
d="M900 -4q0 -36 -36 -36h-728q-36 0 -36 36v728q0 36 36 36h728q36 0 36 -36v-728zM850 10v700h-700v-700h700z" />
    <glyph glyph-name=".null" horiz-adv-x="0" 
 />
    <glyph glyph-name="nonmarkingreturn" horiz-adv-x="333" 
 />
    <glyph glyph-name="space" unicode=" " horiz-adv-x="225" 
 />
    <glyph glyph-name="exclam" unicode="!" horiz-adv-x="424" 
d="M289 262h-155q-36 0 -37 36l-15 386q-1 36 34 36h191q35 0 34 -36l-14 -386q-1 -36 -38 -36zM304 0h-184q-36 0 -36 36v131q0 36 36 36h184q36 0 36 -36v-131q0 -36 -36 -36z" />
    <glyph glyph-name="quotedbl" unicode="&#x22;" horiz-adv-x="646" 
d="M550 345h-144q-26 0 -33.5 7.5t-8.5 33.5l-8 293q-1 26 6.5 33.5t33.5 7.5h165q26 0 33 -7.5t6 -33.5l-8 -293q-2 -27 -9 -34t-33 -7zM240 345h-144q-26 0 -33.5 7.5t-8.5 33.5l-8 293q-1 26 6.5 33.5t33.5 7.5h165q26 0 33 -7.5t6 -33.5l-8 -293q-2 -27 -9 -34t-33 -7z
" />
    <glyph glyph-name="numbersign" unicode="#" horiz-adv-x="750" 
d="M425 314l14 97h-113l-14 -97h113zM272 36q-2 -19 -10 -27.5t-26 -8.5h-105q-40 0 -36 36l14 99h-38q-36 0 -36 36v107q0 36 36 36h64l14 97h-42q-36 0 -36 36v107q0 36 36 36h68l13 94q2 19 10 27.5t26 8.5h105q40 0 36 -36l-13 -94h113l13 94q2 19 10 27.5t26 8.5h105
q40 0 36 -36l-13 -94h37q36 0 36 -36v-107q0 -36 -36 -36h-63l-14 -97h41q36 0 36 -36v-107q0 -36 -36 -36h-67l-14 -99q-2 -19 -10 -27.5t-26 -8.5h-105q-40 0 -36 36l14 99h-113z" />
    <glyph glyph-name="dollar" unicode="$" horiz-adv-x="650" 
d="M405 -90h-145q-36 0 -36 36v54h-137q-36 0 -36 36v117q0 36 36 36h269q26 0 26 29q0 31 -26 34l-150 21q-76 11 -115.5 49t-39.5 117v105q0 77 45 121.5t128 52.5v56q0 36 36 36h145q36 0 36 -36v-54h97q36 0 36 -36v-119q0 -36 -36 -36h-233q-27 0 -27 -30q0 -29 27 -32
l149 -20q76 -11 116 -49t40 -117v-105q0 -76 -44.5 -121t-124.5 -53v-56q0 -36 -36 -36z" />
    <glyph glyph-name="percent" unicode="%" horiz-adv-x="1031" 
d="M398 416q0 -59 -38 -89t-139 -30t-140 30.5t-39 88.5v190q0 58 39 88.5t140 30.5t139 -30t38 -89v-190zM352 36l160 648q9 36 41 36h105q40 0 31 -36l-160 -648q-9 -36 -41 -36h-105q-40 0 -31 36zM187 447q0 -18 34 -18q33 0 33 18v128q0 17 -33 17q-34 0 -34 -17v-128z
M996 113q0 -59 -38 -89t-139 -30t-140 30.5t-39 88.5v190q0 58 39 88.5t140 30.5t139 -30t38 -89v-190zM785 144q0 -18 34 -18q33 0 33 18v128q0 17 -33 17q-34 0 -34 -17v-128z" />
    <glyph glyph-name="ampersand" unicode="&#x26;" horiz-adv-x="766" 
d="M296 187h142q21 0 29.5 9.5t8.5 30.5v138q0 36 36 36h194q36 0 36 -36v-108q0 -36 -36 -36h-23v-45q0 -82 -46.5 -129t-132.5 -47h-278q-91 0 -140 47t-49 129v80q0 68 35 109t91 46q-59 25 -59 108v48q0 70 47 111.5t145 41.5h211q36 0 36 -36v-115q0 -36 -36 -36h-146
q-38 0 -38 -30v-21q0 -30 38 -30h15q36 0 36 -36v-103q0 -36 -36 -36h-80q-38 0 -38 -29v-31q0 -30 38 -30z" />
    <glyph glyph-name="quotesingle" unicode="'" horiz-adv-x="356" 
d="M250 345h-144q-26 0 -33.5 7.5t-8.5 33.5l-8 293q-1 26 6.5 33.5t33.5 7.5h165q26 0 33 -7.5t6 -33.5l-8 -293q-2 -27 -9 -34t-33 -7z" />
    <glyph glyph-name="parenleft" unicode="(" horiz-adv-x="429" 
d="M348 -80h-54q-134 0 -190 53t-56 151v471q0 99 56 152t190 53h54q36 0 36 -36v-121q0 -36 -36 -36h-31q-23 0 -32 -11.5t-9 -38.5v-396q0 -27 9 -38.5t32 -11.5h31q36 0 36 -36v-119q0 -36 -36 -36z" />
    <glyph glyph-name="parenright" unicode=")" horiz-adv-x="429" 
d="M135 -80h-54q-36 0 -36 36v119q0 36 36 36h31q23 0 32 11.5t9 38.5v396q0 27 -9 38.5t-32 11.5h-31q-36 0 -36 36v121q0 36 36 36h54q134 0 190 -53t56 -152v-471q0 -98 -56 -151t-190 -53z" />
    <glyph glyph-name="asterisk" unicode="*" horiz-adv-x="718" 
d="M286 165q-12 -21 -21.5 -23.5t-31.5 11.5l-94 68q-21 15 -22 25t16 29l109 115l-152 25q-26 5 -31 13t3 33l36 111q7 25 17 29t32 -7l142 -64l-23 149q-4 25 3 33t33 8h117q26 0 32 -8t2 -33l-20 -149l137 64q23 11 32 7t17 -29l37 -111q8 -25 3 -33t-31 -13l-153 -25
l110 -115q17 -19 16 -29t-22 -25l-94 -68q-22 -14 -31 -11.5t-21 23.5l-74 141z" />
    <glyph glyph-name="plus" unicode="+" horiz-adv-x="734" 
d="M465 99q0 -36 -36 -36h-124q-36 0 -36 36v168h-163q-36 0 -36 36v114q0 36 36 36h163v168q0 36 36 36h124q36 0 36 -36v-168h163q36 0 36 -36v-114q0 -36 -36 -36h-163v-168z" />
    <glyph glyph-name="comma" unicode="," horiz-adv-x="384" 
d="M181 -100h-77q-36 0 -36 36v40q0 36 36 36h69q27 0 27 28v15h-109q-36 0 -36 36v148q0 36 36 36h202q36 0 36 -36v-188q0 -75 -39.5 -113t-108.5 -38z" />
    <glyph glyph-name="hyphen" unicode="-" horiz-adv-x="420" 
d="M76 257q-36 0 -36 36v134q0 36 36 36h268q36 0 36 -36v-134q0 -36 -36 -36h-268z" />
    <glyph glyph-name="period" unicode="." horiz-adv-x="384" 
d="M293 0h-202q-36 0 -36 36v203q0 36 36 36h202q36 0 36 -36v-203q0 -36 -36 -36z" />
    <glyph glyph-name="slash" unicode="/" horiz-adv-x="347" 
d="M5 -54l120 828q2 19 10 27.5t26 8.5h145q40 0 36 -36l-120 -828q-2 -19 -10 -27.5t-26 -8.5h-145q-40 0 -36 36z" />
    <glyph glyph-name="zero" unicode="0" horiz-adv-x="727" 
d="M669 189q0 -49 -13.5 -84t-46.5 -63.5t-94 -42.5t-151 -14t-151.5 14t-94.5 42.5t-46.5 63.5t-13.5 84v341q0 49 13.5 84t46.5 63.5t94.5 43t151.5 14.5t151 -14.5t94 -43t46.5 -63.5t13.5 -84v-341zM284 225q0 -23 16.5 -35t63.5 -12q48 0 64 12t16 35v269
q0 23 -16 34.5t-64 11.5q-47 0 -63.5 -12t-16.5 -34v-269z" />
    <glyph glyph-name="one" unicode="1" horiz-adv-x="601" 
d="M526 0h-442q-36 0 -36 36v121q0 36 36 36h112v334h-92q-36 0 -36 36v121q0 36 36 36h290q36 0 36 -36v-491h96q36 0 36 -36v-121q0 -36 -36 -36z" />
    <glyph glyph-name="two" unicode="2" horiz-adv-x="639" 
d="M552 0h-476q-36 0 -36 36v172q0 56 11 95t34 62.5t48 36.5t64 25l134 42q16 5 21.5 12t5.5 24q0 15 -6 20.5t-21 5.5h-217q-36 0 -36 36v117q0 36 36 36h295q86 0 131 -42.5t45 -123.5v-94q0 -72 -39 -112.5t-117 -64.5l-136 -43q-16 -5 -21 -9.5t-5 -20.5v-21h285
q36 0 36 -36v-117q0 -36 -36 -36z" />
    <glyph glyph-name="three" unicode="3" horiz-adv-x="637" 
d="M85 189h251q38 0 38 30v27q0 29 -38 29h-170q-36 0 -36 36v107q0 36 36 36h105q38 0 38 30v15q0 30 -38 30h-186q-36 0 -36 36v119q0 36 36 36h279q81 0 122.5 -37.5t41.5 -105.5v-58q0 -83 -59 -108q69 -8 97.5 -42.5t28.5 -102.5v-100q0 -78 -49.5 -122t-144.5 -44
h-316q-36 0 -36 36v117q0 36 36 36z" />
    <glyph glyph-name="four" unicode="4" horiz-adv-x="709" 
d="M414 167h-169q-97 0 -139.5 40t-42.5 126v351q0 36 36 36h155q36 0 36 -36v-274q0 -34 31 -34h93v308q0 36 36 36h154q36 0 36 -36v-648q0 -36 -36 -36h-154q-36 0 -36 36v131z" />
    <glyph glyph-name="five" unicode="5" horiz-adv-x="647" 
d="M409 0h-318q-36 0 -36 36v117q0 36 36 36h258q27 0 27 23v39q0 23 -27 23h-248q-36 0 -36 36v374q0 36 36 36h431q36 0 36 -36v-119q0 -36 -36 -36h-240v-65h137q83 0 129 -40.5t46 -118.5v-139q0 -77 -52.5 -121.5t-142.5 -44.5z" />
    <glyph glyph-name="six" unicode="6" horiz-adv-x="693" 
d="M358 -15q-90 0 -150.5 14t-92.5 42t-44.5 62.5t-12.5 83.5v328q0 99 56 152t190 53h230q36 0 36 -36v-118q0 -36 -36 -36h-187q-37 0 -50 -12t-13 -48v-22q48 15 127 15q131 0 183 -43.5t52 -136.5v-96q0 -100 -63 -151t-225 -51zM284 262v-59q0 -18 13.5 -27.5
t53.5 -9.5q41 0 55 9.5t14 27.5v59q0 18 -14 27t-55 9q-40 0 -53.5 -9.5t-13.5 -26.5z" />
    <glyph glyph-name="seven" unicode="7" horiz-adv-x="627" 
d="M539 720q36 0 36 -36v-253q0 -62 -17.5 -101t-49.5 -59.5t-89 -37.5l-74 -22v-175q0 -36 -36 -36h-162q-36 0 -36 36v181q0 62 17.5 101t49.5 59.5t89 37.5l81 22v90h-274q-36 0 -36 36v121q0 36 36 36h465z" />
    <glyph glyph-name="eight" unicode="8" horiz-adv-x="711" 
d="M664 256v-97q0 -85 -68.5 -129.5t-239.5 -44.5q-116 0 -186.5 22.5t-96.5 59.5t-26 92v97q0 67 29 106t77 49q-59 25 -59 108v58q0 78 59.5 118t203.5 40t202 -40t58 -118v-58q0 -83 -59 -108q48 -10 77 -49t29 -106zM293 480q0 -18 12.5 -27.5t50.5 -9.5q39 0 50.5 9
t11.5 28v44q0 18 -11.5 27t-50.5 9q-38 0 -50.5 -9t-12.5 -27v-44zM268 197q0 -37 88 -37q51 0 69 9.5t18 27.5v53q0 36 -87 36q-88 0 -88 -36v-53z" />
    <glyph glyph-name="nine" unicode="9" horiz-adv-x="693" 
d="M389 0h-230q-36 0 -36 36v118q0 36 36 36h187q37 0 50 12t13 48v22q-48 -15 -127 -15q-131 0 -183 43.5t-52 136.5v96q0 100 63 151t225 51q90 0 150.5 -14t92.5 -42t44.5 -62.5t12.5 -83.5v-328q0 -99 -56 -152t-190 -53zM409 458v59q0 18 -13.5 27.5t-53.5 9.5
q-41 0 -55 -9.5t-14 -27.5v-59q0 -18 14 -27t55 -9q40 0 53.5 9.5t13.5 26.5z" />
    <glyph glyph-name="colon" unicode=":" horiz-adv-x="384" 
d="M293 0h-202q-36 0 -36 36v203q0 36 36 36h202q36 0 36 -36v-203q0 -36 -36 -36zM293 355h-202q-36 0 -36 36v203q0 36 36 36h202q36 0 36 -36v-203q0 -36 -36 -36z" />
    <glyph glyph-name="semicolon" unicode=";" horiz-adv-x="384" 
d="M181 -100h-77q-36 0 -36 36v40q0 36 36 36h69q27 0 27 28v15h-109q-36 0 -36 36v148q0 36 36 36h202q36 0 36 -36v-188q0 -75 -39.5 -113t-108.5 -38zM293 355h-202q-36 0 -36 36v203q0 36 36 36h202q36 0 36 -36v-203q0 -36 -36 -36z" />
    <glyph glyph-name="less" unicode="&#x3c;" horiz-adv-x="714" 
d="M588 59l-381 109q-67 19 -97 52t-30 103v72q0 70 30 103t97 52l381 109q36 7 36 -31v-132q0 -35 -36 -41l-287 -77q-10 -2 -13.5 -6t-3.5 -13t3.5 -13t13.5 -6l287 -77q36 -6 36 -41v-132q0 -38 -36 -31z" />
    <glyph glyph-name="equal" unicode="=" horiz-adv-x="734" 
d="M106 417q-36 0 -36 36v114q0 36 36 36h522q36 0 36 -36v-114q0 -36 -36 -36h-522zM106 117q-36 0 -36 36v114q0 36 36 36h522q36 0 36 -36v-114q0 -36 -36 -36h-522z" />
    <glyph glyph-name="greater" unicode="&#x3e;" horiz-adv-x="714" 
d="M507 168l-381 -109q-36 -7 -36 31v132q0 35 36 41l287 77q10 2 13.5 6t3.5 13t-3.5 13t-13.5 6l-287 77q-36 6 -36 41v132q0 38 36 31l381 -109q67 -19 97 -52t30 -103v-72q0 -70 -30 -103t-97 -52z" />
    <glyph glyph-name="question" unicode="?" horiz-adv-x="656" 
d="M456 273l-271 -37q-19 -2 -27.5 5t-11.5 26l-21 132q-6 36 33 41l199 28q27 4 27 31q0 28 -27 28h-276q-36 0 -36 36v121q0 36 36 36h323q98 0 152.5 -45.5t54.5 -130.5v-105q0 -80 -39.5 -118t-115.5 -48zM344 0h-183q-36 0 -36 36v131q0 19 8.5 27.5t27.5 8.5h183
q36 0 36 -36v-131q0 -36 -36 -36z" />
    <glyph glyph-name="at" unicode="@" horiz-adv-x="867" 
d="M624 -91h-190q-110 0 -184.5 17t-115.5 51t-57.5 76.5t-16.5 100.5v410q0 59 16.5 101.5t57.5 76.5t115.5 51.5t184.5 17.5t185 -17.5t115 -51.5t56.5 -76.5t16.5 -101.5v-260q0 -50 -9 -84t-32.5 -63t-68.5 -43t-114 -14h-189q-96 0 -136 37.5t-40 108.5v193
q0 71 39.5 109t136.5 38h225q26 0 26 -26v-349q36 0 49 23t13 68v266q0 72 -59 109.5t-214 37.5t-214.5 -37.5t-59.5 -109.5v-418q0 -71 59.5 -108t214.5 -37h190q19 0 26.5 -7.5t7.5 -26.5v-28q0 -19 -7.5 -26.5t-26.5 -7.5zM415 237h67v221h-57q-44 0 -44 -36v-151
q0 -34 34 -34z" />
    <glyph glyph-name="A" unicode="A" horiz-adv-x="730" 
d="M330 510l-47 -152h157l-47 152q-7 17 -19 17h-25q-12 0 -19 -17zM273 36q0 -36 -36 -36h-147q-36 0 -36 36v264q0 59 39 160l87 227q11 33 51 33h269q39 0 50 -33l87 -227q39 -101 39 -160v-264q0 -36 -36 -36h-151q-39 0 -39 36v140h-177v-140z" />
    <glyph glyph-name="B" unicode="B" horiz-adv-x="725" 
d="M489 0h-384q-36 0 -36 36v648q0 36 36 36h319q98 0 145 -37t47 -116v-48q0 -83 -59 -108q65 -6 95.5 -44t30.5 -111v-92q0 -84 -47 -124t-147 -40zM294 550v-108h85q38 0 38 40v28q0 40 -38 40h-85zM294 288v-118h130q38 0 38 40v39q0 39 -38 39h-130z" />
    <glyph glyph-name="C" unicode="C" horiz-adv-x="628" 
d="M548 0h-244q-126 0 -186 50t-60 154v311q0 105 60 155t186 50h244q36 0 36 -36v-121q0 -36 -36 -36h-201q-61 0 -61 -50v-238q0 -48 61 -48h201q36 0 36 -36v-119q0 -36 -36 -36z" />
    <glyph glyph-name="D" unicode="D" horiz-adv-x="746" 
d="M442 0h-337q-36 0 -36 36v648q0 36 36 36h337q126 0 186 -50t60 -154v-312q0 -104 -60 -154t-186 -50zM296 529v-340h119q47 0 47 49v243q0 48 -47 48h-119z" />
    <glyph glyph-name="E" unicode="E" horiz-adv-x="654" 
d="M569 0h-464q-36 0 -36 36v648q0 36 36 36h464q36 0 36 -36v-117q0 -36 -36 -36h-276v-77h195q36 0 36 -36v-107q0 -36 -36 -36h-195v-86h276q36 0 36 -36v-117q0 -36 -36 -36z" />
    <glyph glyph-name="F" unicode="F" horiz-adv-x="618" 
d="M260 0h-155q-36 0 -36 36v648q0 36 36 36h446q36 0 36 -36v-119q0 -36 -36 -36h-255v-104h174q36 0 36 -36v-120q0 -36 -36 -36h-174v-197q0 -36 -36 -36z" />
    <glyph glyph-name="G" unicode="G" horiz-adv-x="708" 
d="M619 0h-315q-126 0 -186 50t-60 154v312q0 104 60 154t186 50h250q36 0 36 -36v-121q0 -36 -36 -36h-208q-61 0 -61 -50v-239q0 -49 46 -49h97v156q0 36 36 36h155q36 0 36 -36v-309q0 -36 -36 -36z" />
    <glyph glyph-name="H" unicode="H" horiz-adv-x="759" 
d="M260 0h-155q-36 0 -36 36v648q0 36 36 36h155q36 0 36 -36v-217h167v217q0 36 36 36h155q36 0 36 -36v-648q0 -36 -36 -36h-155q-36 0 -36 36v222h-167v-222q0 -36 -36 -36z" />
    <glyph glyph-name="I" unicode="I" horiz-adv-x="605" 
d="M89 0q-36 0 -36 36v119q0 36 36 36h99v336h-99q-36 0 -36 36v121q0 36 36 36h426q36 0 36 -36v-121q0 -36 -36 -36h-97v-336h97q36 0 36 -36v-119q0 -36 -36 -36h-426z" />
    <glyph glyph-name="J" unicode="J" horiz-adv-x="688" 
d="M624 189q0 -49 -13 -84t-45 -63.5t-90.5 -42.5t-144.5 -14q-85 0 -143 14t-89.5 42.5t-44.5 63.5t-13 84v162q0 36 36 36h145q36 0 36 -36v-122q0 -23 14 -35t57 -12q40 0 53 12t13 35v455q0 36 36 36h157q36 0 36 -36v-495z" />
    <glyph glyph-name="K" unicode="K" horiz-adv-x="746" 
d="M260 0h-155q-36 0 -36 36v648q0 36 36 36h155q36 0 36 -36v-230h40l103 233q14 33 50 33h154q36 0 22 -33l-102 -233q56 -3 89.5 -39.5t33.5 -96.5v-282q0 -36 -36 -36h-154q-36 0 -36 36v195q0 34 -32 34h-132v-229q0 -36 -36 -36z" />
    <glyph glyph-name="L" unicode="L" horiz-adv-x="695" 
d="M614 0h-509q-36 0 -36 36v648q0 36 36 36h155q36 0 36 -36v-495h137v162q0 36 36 36h145q36 0 36 -36v-315q0 -36 -36 -36z" />
    <glyph glyph-name="M" unicode="M" horiz-adv-x="849" 
d="M254 0h-149q-36 0 -36 36v648q0 36 36 36h161q30 0 46 -30l90 -163q10 -17 18 -17h9q8 0 18 17l89 163q16 30 46 30h162q36 0 36 -36v-648q0 -36 -36 -36h-154q-36 0 -36 36v352l-59 -109q-17 -32 -53 -32h-40q-36 0 -53 32l-59 109v-352q0 -36 -36 -36z" />
    <glyph glyph-name="N" unicode="N" horiz-adv-x="753" 
d="M255 0h-150q-36 0 -36 36v648q0 36 36 36h104q36 0 59 -27l194 -222v213q0 36 36 36h150q36 0 36 -36v-648q0 -36 -36 -36h-150q-36 0 -36 36v123l-171 207v-330q0 -36 -36 -36z" />
    <glyph glyph-name="O" unicode="O" horiz-adv-x="737" 
d="M679 189q0 -49 -13.5 -84t-47 -63.5t-96 -42.5t-153.5 -14t-153.5 14t-96 42.5t-47.5 63.5t-14 84v341q0 49 14 84t47.5 63.5t96 43t153.5 14.5t153.5 -14.5t96 -43t47 -63.5t13.5 -84v-341zM285 225q0 -23 17 -35t67 -12t67 12t17 35v269q0 23 -17 34.5t-67 11.5
t-67 -12t-17 -34v-269z" />
    <glyph glyph-name="P" unicode="P" horiz-adv-x="682" 
d="M260 0h-155q-36 0 -36 36v648q0 36 36 36h306q129 0 182.5 -50.5t53.5 -144.5v-128q0 -94 -53.5 -144.5t-182.5 -50.5h-115v-166q0 -36 -36 -36zM294 533v-151h90q47 0 47 49v53q0 49 -47 49h-90z" />
    <glyph glyph-name="Q" unicode="Q" horiz-adv-x="737" 
d="M445 -90h-154q-36 0 -36 36v55q-110 16 -153.5 65.5t-43.5 131.5v332q0 49 14 84t47.5 63.5t96 43t153.5 14.5t153.5 -14.5t96 -43t47 -63.5t13.5 -84v-332q0 -83 -43.5 -132t-154.5 -65v-55q0 -36 -36 -36zM285 220q0 -23 17 -35t67 -12t67 12t17 35v273q0 23 -17 34.5
t-67 11.5t-67 -12t-17 -34v-273z" />
    <glyph glyph-name="R" unicode="R" horiz-adv-x="743" 
d="M295 540v-128h75q44 0 44 47v34q0 47 -44 47h-75zM259 0h-154q-36 0 -36 36v648q0 36 36 36h333q107 0 152 -43.5t45 -123.5v-46q0 -90 -56 -114q56 -6 88.5 -44.5t32.5 -100.5v-212q0 -36 -36 -36h-155q-36 0 -36 36v153q0 23 -8.5 33t-29.5 10h-140v-196q0 -36 -36 -36
z" />
    <glyph glyph-name="S" unicode="S" horiz-adv-x="650" 
d="M403 0h-316q-36 0 -36 36v117q0 36 36 36h269q26 0 26 29q0 31 -26 34l-150 21q-76 11 -115.5 49t-39.5 117v105q0 85 54.5 130.5t152.5 45.5h280q36 0 36 -36v-119q0 -36 -36 -36h-233q-27 0 -27 -30q0 -29 27 -32l149 -20q76 -11 116 -49t40 -117v-105
q0 -85 -54.5 -130.5t-152.5 -45.5z" />
    <glyph glyph-name="T" unicode="T" horiz-adv-x="656" 
d="M409 0h-162q-36 0 -36 36v491h-147q-36 0 -36 36v121q0 36 36 36h528q36 0 36 -36v-121q0 -36 -36 -36h-147v-491q0 -36 -36 -36z" />
    <glyph glyph-name="U" unicode="U" horiz-adv-x="746" 
d="M682 189q0 -49 -14 -84t-47.5 -63.5t-95 -42.5t-152.5 -14t-152.5 14t-95 42.5t-47.5 63.5t-14 84v495q0 36 36 36h157q36 0 36 -36v-456q0 -23 17 -35t65 -12q49 0 66 12t17 35v456q0 36 36 36h152q36 0 36 -36v-495z" />
    <glyph glyph-name="V" unicode="V" horiz-adv-x="730" 
d="M495 0h-260q-38 0 -51 33l-98 245q-20 50 -26 74t-6 68v264q0 36 36 36h159q39 0 39 -36v-276q0 -17 8 -41l47 -140q5 -17 19 -17h11q14 0 19 17l47 141q8 24 8 41v275q0 36 36 36h157q36 0 36 -36v-264q0 -44 -6 -68t-26 -74l-98 -245q-13 -33 -51 -33z" />
    <glyph glyph-name="W" unicode="W" horiz-adv-x="831" 
d="M586 720h149q36 0 36 -36v-388q0 -75 -18 -124l-50 -136q-13 -36 -40 -36h-133q-37 0 -46 30l-46 163q-5 17 -18 17h-9q-13 0 -18 -17l-47 -163q-9 -30 -42 -30h-132q-32 0 -44 36l-50 138q-18 49 -18 124v386q0 36 36 36h154q36 0 36 -36v-368l58 126q15 31 53 31h42
q38 0 53 -31l58 -126v368q0 36 36 36z" />
    <glyph glyph-name="X" unicode="X" horiz-adv-x="737" 
d="M284 36q0 -36 -36 -36h-152q-36 0 -36 36v107q0 45 7.5 68t30.5 55l81 109l-81 109q-24 31 -31 54t-7 69v77q0 36 36 36h154q36 0 36 -36v-69q0 -29 9 -42l44 -63q11 -17 24 -17h12q12 0 24 17l45 63q9 13 9 42v69q0 36 36 36h152q36 0 36 -36v-77q0 -45 -7.5 -68
t-30.5 -55l-81 -110l81 -108q24 -31 31 -54t7 -69v-107q0 -36 -36 -36h-152q-36 0 -36 36v99q0 29 -9 42l-44 63q-11 17 -24 17h-14q-13 0 -24 -17l-45 -63q-9 -13 -9 -42v-99z" />
    <glyph glyph-name="Y" unicode="Y" horiz-adv-x="705" 
d="M434 0h-162q-36 0 -36 36v128l-153 205q-24 31 -31 54t-7 69v192q0 36 36 36h154q36 0 36 -36v-164q0 -28 9 -42l46 -72q10 -17 24 -17h10q14 0 24 17l46 72q9 14 9 42v164q0 36 36 36h149q36 0 36 -36v-192q0 -45 -7.5 -68t-30.5 -55l-152 -206v-127q0 -36 -36 -36z" />
    <glyph glyph-name="Z" unicode="Z" horiz-adv-x="660" 
d="M578 0h-496q-36 0 -36 36v134q0 36 25 62l243 295h-214q-36 0 -36 36v121q0 36 36 36h460q36 0 36 -36v-149q0 -37 -25 -63l-232 -281h239q36 0 36 -36v-119q0 -36 -36 -36z" />
    <glyph glyph-name="bracketleft" unicode="[" horiz-adv-x="429" 
d="M276 607v-496h72q36 0 36 -36v-119q0 -36 -36 -36h-264q-36 0 -36 36v808q0 36 36 36h264q36 0 36 -36v-121q0 -36 -36 -36h-72z" />
    <glyph glyph-name="backslash" unicode="\" horiz-adv-x="347" 
d="M222 774l120 -828q4 -36 -36 -36h-145q-18 0 -26 8.5t-10 27.5l-120 828q-4 36 36 36h145q18 0 26 -8.5t10 -27.5z" />
    <glyph glyph-name="bracketright" unicode="]" horiz-adv-x="429" 
d="M153 111v496h-72q-36 0 -36 36v121q0 36 36 36h264q36 0 36 -36v-808q0 -36 -36 -36h-264q-36 0 -36 36v119q0 36 36 36h72z" />
    <glyph glyph-name="asciicircum" unicode="^" horiz-adv-x="714" 
d="M40 208l108 381q20 68 52.5 98t102.5 30h73q70 0 102.5 -30t52.5 -98l108 -381q7 -36 -30 -36l-132 -1q-37 -1 -41 35l-78 289q-2 11 -5.5 14.5t-12.5 2.5q-9 1 -13 -2.5t-6 -14.5l-78 -289q-4 -36 -41 -35l-132 1q-37 0 -30 36z" />
    <glyph glyph-name="underscore" unicode="_" horiz-adv-x="734" 
d="M106 -103q-36 0 -36 36v134q0 36 36 36h522q36 0 36 -36v-134q0 -36 -36 -36h-522z" />
    <glyph glyph-name="grave" unicode="`" horiz-adv-x="500" 
d="M425 753l-349 43q-19 2 -27.5 10t-8.5 26v96q0 37 34 33l349 -43q19 -2 27.5 -10t8.5 -26v-96q0 -37 -34 -33z" />
    <glyph glyph-name="a" unicode="a" horiz-adv-x="730" 
d="M330 510l-47 -152h157l-47 152q-7 17 -19 17h-25q-12 0 -19 -17zM273 36q0 -36 -36 -36h-147q-36 0 -36 36v264q0 59 39 160l87 227q11 33 51 33h269q39 0 50 -33l87 -227q39 -101 39 -160v-264q0 -36 -36 -36h-151q-39 0 -39 36v140h-177v-140z" />
    <glyph glyph-name="b" unicode="b" horiz-adv-x="725" 
d="M489 0h-384q-36 0 -36 36v648q0 36 36 36h319q98 0 145 -37t47 -116v-48q0 -83 -59 -108q65 -6 95.5 -44t30.5 -111v-92q0 -84 -47 -124t-147 -40zM294 550v-108h85q38 0 38 40v28q0 40 -38 40h-85zM294 288v-118h130q38 0 38 40v39q0 39 -38 39h-130z" />
    <glyph glyph-name="c" unicode="c" horiz-adv-x="628" 
d="M548 0h-244q-126 0 -186 50t-60 154v311q0 105 60 155t186 50h244q36 0 36 -36v-121q0 -36 -36 -36h-201q-61 0 -61 -50v-238q0 -48 61 -48h201q36 0 36 -36v-119q0 -36 -36 -36z" />
    <glyph glyph-name="d" unicode="d" horiz-adv-x="746" 
d="M442 0h-337q-36 0 -36 36v648q0 36 36 36h337q126 0 186 -50t60 -154v-312q0 -104 -60 -154t-186 -50zM296 529v-340h119q47 0 47 49v243q0 48 -47 48h-119z" />
    <glyph glyph-name="e" unicode="e" horiz-adv-x="654" 
d="M569 0h-464q-36 0 -36 36v648q0 36 36 36h464q36 0 36 -36v-117q0 -36 -36 -36h-276v-77h195q36 0 36 -36v-107q0 -36 -36 -36h-195v-86h276q36 0 36 -36v-117q0 -36 -36 -36z" />
    <glyph glyph-name="f" unicode="f" horiz-adv-x="618" 
d="M260 0h-155q-36 0 -36 36v648q0 36 36 36h446q36 0 36 -36v-119q0 -36 -36 -36h-255v-104h174q36 0 36 -36v-120q0 -36 -36 -36h-174v-197q0 -36 -36 -36z" />
    <glyph glyph-name="g" unicode="g" horiz-adv-x="708" 
d="M619 0h-315q-126 0 -186 50t-60 154v312q0 104 60 154t186 50h250q36 0 36 -36v-121q0 -36 -36 -36h-208q-61 0 -61 -50v-239q0 -49 46 -49h97v156q0 36 36 36h155q36 0 36 -36v-309q0 -36 -36 -36z" />
    <glyph glyph-name="h" unicode="h" horiz-adv-x="759" 
d="M260 0h-155q-36 0 -36 36v648q0 36 36 36h155q36 0 36 -36v-217h167v217q0 36 36 36h155q36 0 36 -36v-648q0 -36 -36 -36h-155q-36 0 -36 36v222h-167v-222q0 -36 -36 -36z" />
    <glyph glyph-name="i" unicode="i" horiz-adv-x="605" 
d="M89 0q-36 0 -36 36v119q0 36 36 36h99v336h-99q-36 0 -36 36v121q0 36 36 36h426q36 0 36 -36v-121q0 -36 -36 -36h-97v-336h97q36 0 36 -36v-119q0 -36 -36 -36h-426z" />
    <glyph glyph-name="j" unicode="j" horiz-adv-x="688" 
d="M624 189q0 -49 -13 -84t-45 -63.5t-90.5 -42.5t-144.5 -14q-85 0 -143 14t-89.5 42.5t-44.5 63.5t-13 84v162q0 36 36 36h145q36 0 36 -36v-122q0 -23 14 -35t57 -12q40 0 53 12t13 35v455q0 36 36 36h157q36 0 36 -36v-495z" />
    <glyph glyph-name="k" unicode="k" horiz-adv-x="746" 
d="M260 0h-155q-36 0 -36 36v648q0 36 36 36h155q36 0 36 -36v-230h40l103 233q14 33 50 33h154q36 0 22 -33l-102 -233q56 -3 89.5 -39.5t33.5 -96.5v-282q0 -36 -36 -36h-154q-36 0 -36 36v195q0 34 -32 34h-132v-229q0 -36 -36 -36z" />
    <glyph glyph-name="l" unicode="l" horiz-adv-x="695" 
d="M614 0h-509q-36 0 -36 36v648q0 36 36 36h155q36 0 36 -36v-495h137v162q0 36 36 36h145q36 0 36 -36v-315q0 -36 -36 -36z" />
    <glyph glyph-name="m" unicode="m" horiz-adv-x="849" 
d="M254 0h-149q-36 0 -36 36v648q0 36 36 36h161q30 0 46 -30l90 -163q10 -17 18 -17h9q8 0 18 17l89 163q16 30 46 30h162q36 0 36 -36v-648q0 -36 -36 -36h-154q-36 0 -36 36v352l-59 -109q-17 -32 -53 -32h-40q-36 0 -53 32l-59 109v-352q0 -36 -36 -36z" />
    <glyph glyph-name="n" unicode="n" horiz-adv-x="753" 
d="M255 0h-150q-36 0 -36 36v648q0 36 36 36h104q36 0 59 -27l194 -222v213q0 36 36 36h150q36 0 36 -36v-648q0 -36 -36 -36h-150q-36 0 -36 36v123l-171 207v-330q0 -36 -36 -36z" />
    <glyph glyph-name="o" unicode="o" horiz-adv-x="737" 
d="M679 189q0 -49 -13.5 -84t-47 -63.5t-96 -42.5t-153.5 -14t-153.5 14t-96 42.5t-47.5 63.5t-14 84v341q0 49 14 84t47.5 63.5t96 43t153.5 14.5t153.5 -14.5t96 -43t47 -63.5t13.5 -84v-341zM285 225q0 -23 17 -35t67 -12t67 12t17 35v269q0 23 -17 34.5t-67 11.5
t-67 -12t-17 -34v-269z" />
    <glyph glyph-name="p" unicode="p" horiz-adv-x="682" 
d="M260 0h-155q-36 0 -36 36v648q0 36 36 36h306q129 0 182.5 -50.5t53.5 -144.5v-128q0 -94 -53.5 -144.5t-182.5 -50.5h-115v-166q0 -36 -36 -36zM294 533v-151h90q47 0 47 49v53q0 49 -47 49h-90z" />
    <glyph glyph-name="q" unicode="q" horiz-adv-x="737" 
d="M445 -90h-154q-36 0 -36 36v55q-110 16 -153.5 65.5t-43.5 131.5v332q0 49 14 84t47.5 63.5t96 43t153.5 14.5t153.5 -14.5t96 -43t47 -63.5t13.5 -84v-332q0 -83 -43.5 -132t-154.5 -65v-55q0 -36 -36 -36zM285 220q0 -23 17 -35t67 -12t67 12t17 35v273q0 23 -17 34.5
t-67 11.5t-67 -12t-17 -34v-273z" />
    <glyph glyph-name="r" unicode="r" horiz-adv-x="743" 
d="M295 540v-128h75q44 0 44 47v34q0 47 -44 47h-75zM259 0h-154q-36 0 -36 36v648q0 36 36 36h333q107 0 152 -43.5t45 -123.5v-46q0 -90 -56 -114q56 -6 88.5 -44.5t32.5 -100.5v-212q0 -36 -36 -36h-155q-36 0 -36 36v153q0 23 -8.5 33t-29.5 10h-140v-196q0 -36 -36 -36
z" />
    <glyph glyph-name="s" unicode="s" horiz-adv-x="650" 
d="M403 0h-316q-36 0 -36 36v117q0 36 36 36h269q26 0 26 29q0 31 -26 34l-150 21q-76 11 -115.5 49t-39.5 117v105q0 85 54.5 130.5t152.5 45.5h280q36 0 36 -36v-119q0 -36 -36 -36h-233q-27 0 -27 -30q0 -29 27 -32l149 -20q76 -11 116 -49t40 -117v-105
q0 -85 -54.5 -130.5t-152.5 -45.5z" />
    <glyph glyph-name="t" unicode="t" horiz-adv-x="656" 
d="M409 0h-162q-36 0 -36 36v491h-147q-36 0 -36 36v121q0 36 36 36h528q36 0 36 -36v-121q0 -36 -36 -36h-147v-491q0 -36 -36 -36z" />
    <glyph glyph-name="u" unicode="u" horiz-adv-x="746" 
d="M682 189q0 -49 -14 -84t-47.5 -63.5t-95 -42.5t-152.5 -14t-152.5 14t-95 42.5t-47.5 63.5t-14 84v495q0 36 36 36h157q36 0 36 -36v-456q0 -23 17 -35t65 -12q49 0 66 12t17 35v456q0 36 36 36h152q36 0 36 -36v-495z" />
    <glyph glyph-name="v" unicode="v" horiz-adv-x="730" 
d="M495 0h-260q-38 0 -51 33l-98 245q-20 50 -26 74t-6 68v264q0 36 36 36h159q39 0 39 -36v-276q0 -17 8 -41l47 -140q5 -17 19 -17h11q14 0 19 17l47 141q8 24 8 41v275q0 36 36 36h157q36 0 36 -36v-264q0 -44 -6 -68t-26 -74l-98 -245q-13 -33 -51 -33z" />
    <glyph glyph-name="w" unicode="w" horiz-adv-x="831" 
d="M586 720h149q36 0 36 -36v-388q0 -75 -18 -124l-50 -136q-13 -36 -40 -36h-133q-37 0 -46 30l-46 163q-5 17 -18 17h-9q-13 0 -18 -17l-47 -163q-9 -30 -42 -30h-132q-32 0 -44 36l-50 138q-18 49 -18 124v386q0 36 36 36h154q36 0 36 -36v-368l58 126q15 31 53 31h42
q38 0 53 -31l58 -126v368q0 36 36 36z" />
    <glyph glyph-name="x" unicode="x" horiz-adv-x="737" 
d="M284 36q0 -36 -36 -36h-152q-36 0 -36 36v107q0 45 7.5 68t30.5 55l81 109l-81 109q-24 31 -31 54t-7 69v77q0 36 36 36h154q36 0 36 -36v-69q0 -29 9 -42l44 -63q11 -17 24 -17h12q12 0 24 17l45 63q9 13 9 42v69q0 36 36 36h152q36 0 36 -36v-77q0 -45 -7.5 -68
t-30.5 -55l-81 -110l81 -108q24 -31 31 -54t7 -69v-107q0 -36 -36 -36h-152q-36 0 -36 36v99q0 29 -9 42l-44 63q-11 17 -24 17h-14q-13 0 -24 -17l-45 -63q-9 -13 -9 -42v-99z" />
    <glyph glyph-name="y" unicode="y" horiz-adv-x="705" 
d="M434 0h-162q-36 0 -36 36v128l-153 205q-24 31 -31 54t-7 69v192q0 36 36 36h154q36 0 36 -36v-164q0 -28 9 -42l46 -72q10 -17 24 -17h10q14 0 24 17l46 72q9 14 9 42v164q0 36 36 36h149q36 0 36 -36v-192q0 -45 -7.5 -68t-30.5 -55l-152 -206v-127q0 -36 -36 -36z" />
    <glyph glyph-name="z" unicode="z" horiz-adv-x="660" 
d="M578 0h-496q-36 0 -36 36v134q0 36 25 62l243 295h-214q-36 0 -36 36v121q0 36 36 36h460q36 0 36 -36v-149q0 -37 -25 -63l-232 -281h239q36 0 36 -36v-119q0 -36 -36 -36z" />
    <glyph glyph-name="braceleft" unicode="{" horiz-adv-x="455" 
d="M312 161q0 -27 9 -38.5t32 -11.5h21q36 0 36 -36v-119q0 -36 -36 -36h-44q-134 0 -190 53t-56 151v130q-64 19 -64 87v35q0 67 64 86v133q0 99 56 152t190 53h44q36 0 36 -36v-121q0 -36 -36 -36h-21q-23 0 -32 -11.5t-9 -38.5v-117q0 -30 -9.5 -44t-35.5 -18l-33 -6
q-13 -1 -13 -14q0 -11 13 -14l33 -6q26 -4 35.5 -18t9.5 -44v-115z" />
    <glyph glyph-name="bar" unicode="|" horiz-adv-x="347" 
d="M282 774v-828q0 -36 -36 -36h-145q-36 0 -36 36v828q0 36 36 36h145q36 0 36 -36z" />
    <glyph glyph-name="braceright" unicode="}" horiz-adv-x="455" 
d="M143 161v115q0 30 9.5 44t35.5 18l33 6q13 3 13 14q0 13 -13 14l-33 6q-26 4 -35.5 18t-9.5 44v117q0 27 -9 38.5t-32 11.5h-21q-36 0 -36 36v121q0 36 36 36h44q134 0 190 -53t56 -152v-133q64 -19 64 -86v-35q0 -68 -64 -87v-130q0 -98 -56 -151t-190 -53h-44
q-36 0 -36 36v119q0 36 36 36h21q23 0 32 11.5t9 38.5z" />
    <glyph glyph-name="asciitilde" unicode="~" horiz-adv-x="734" 
d="M367 277l-40 5q-86 11 -115.5 8.5t-90.5 -21.5q-51 -13 -51 25v106q0 40 37 53q72 25 114 26t122 -14l24 -3l31 -4q98 -12 123 -10.5t91 21.5q52 15 52 -31v-99q0 -39 -37 -53q-72 -25 -115 -26t-122 14z" />
    <glyph glyph-name="uni00A0" unicode="&#xa0;" horiz-adv-x="225" 
 />
    <glyph glyph-name="exclamdown" unicode="&#xa1;" horiz-adv-x="423" 
d="M120 720h184q36 0 36 -36v-131q0 -36 -36 -36h-184q-36 0 -36 36v131q0 36 36 36zM134 458h155q37 0 38 -36l14 -386q1 -36 -34 -36h-191q-35 0 -34 36l15 386q1 36 37 36z" />
    <glyph glyph-name="cent" unicode="&#xa2;" horiz-adv-x="628" 
d="M471 -14q0 -36 -36 -36h-145q-36 0 -36 36v56q-106 10 -151 62t-45 140v231q0 89 45 141t151 62v56q0 36 36 36h145q36 0 36 -36v-54h77q36 0 36 -36v-121q0 -36 -36 -36h-201q-36 0 -48.5 -13.5t-12.5 -36.5v-158q0 -24 12.5 -36t48.5 -12h201q36 0 36 -36v-119
q0 -36 -36 -36h-77v-54z" />
    <glyph glyph-name="sterling" unicode="&#xa3;" horiz-adv-x="695" 
d="M650 36q0 -36 -36 -36h-509q-36 0 -36 36v229h-13q-36 0 -36 36v107q0 36 36 36h13v72q0 98 56 151t190 53h190q36 0 36 -36v-121q0 -36 -36 -36h-148q-36 0 -48.5 -13.5t-12.5 -36.5v-33h48q36 0 36 -36v-107q0 -36 -36 -36h-48v-76h137v102q0 36 36 36h145q36 0 36 -36
v-255z" />
    <glyph glyph-name="currency" unicode="&#xa4;" horiz-adv-x="821" 
d="M333 289q0 -22 16.5 -33.5t63.5 -11.5q48 0 64 11.5t16 33.5v141q0 22 -16 33t-64 11q-47 0 -63.5 -11.5t-16.5 -32.5v-141zM184 8q-23 -25 -49 0l-76 76q-25 26 0 49l94 94q-2 20 -2 33v199q0 12 2 34l-94 94q-25 23 0 48l76 76q26 26 49 0l85 -85q54 18 144 18
q85 0 141 -17l84 84q23 26 48 0l76 -76q26 -25 0 -48l-90 -90q2 -24 2 -38v-199q0 -13 -2 -37l90 -90q26 -23 0 -49l-76 -76q-25 -25 -48 0l-84 84q-58 -16 -141 -16q-87 0 -144 17z" />
    <glyph glyph-name="yen" unicode="&#xa5;" horiz-adv-x="703" 
d="M464 36q0 -36 -36 -36h-152q-36 0 -36 36v94h-109q-36 0 -36 36v97q0 36 36 36h53l-111 143q-14 18 -20.5 41t-7.5 39.5t-1 49.5v112q0 36 36 36h155q36 0 36 -36v-144q0 -24 8 -41l46 -65q12 -17 26 -17h12q15 0 26 17l43 64q8 12 8 41v145q0 36 36 36h147q36 0 36 -36
v-113q0 -47 -5 -75.5t-24 -54.5l-110 -142h53q36 0 36 -36v-97q0 -36 -36 -36h-109v-94z" />
    <glyph glyph-name="brokenbar" unicode="&#xa6;" horiz-adv-x="347" 
d="M282 774v-338q0 -36 -36 -36h-145q-36 0 -36 36v338q0 36 36 36h145q36 0 36 -36zM282 284v-338q0 -36 -36 -36h-145q-36 0 -36 36v338q0 36 36 36h145q36 0 36 -36z" />
    <glyph glyph-name="section" unicode="&#xa7;" horiz-adv-x="650" 
d="M364 0h-266q-36 0 -36 36v81q0 36 36 36h233q36 0 48.5 13.5t12.5 36.5v2h-94q-134 0 -190 53t-56 151v106q0 99 56 152t190 53h240q36 0 36 -36v-81q0 -36 -36 -36h-207q-36 0 -48.5 -13.5t-12.5 -36.5v-2h94q134 0 190 -53t56 -151v-106q0 -99 -56 -152t-190 -53z
M331 326h61v20q0 24 -12.5 36t-48.5 12h-61v-20q0 -24 12.5 -36t48.5 -12z" />
    <glyph glyph-name="dieresis" unicode="&#xa8;" horiz-adv-x="500" 
d="M446 760h-138q-33 0 -33 33v121q0 33 33 33h138q33 0 33 -33v-121q0 -33 -33 -33zM188 760h-138q-34 0 -34 33v121q0 33 34 33h138q33 0 33 -33v-121q0 -33 -33 -33z" />
    <glyph glyph-name="copyright" unicode="&#xa9;" horiz-adv-x="867" 
d="M807 154q0 -58 -16.5 -100.5t-56.5 -76.5t-115 -51t-185 -17t-184.5 17t-115.5 51t-57.5 76.5t-16.5 100.5v410q0 59 16.5 101.5t57.5 76.5t115.5 51.5t184.5 17.5t185 -17.5t115 -51.5t56.5 -76.5t16.5 -101.5v-410zM707 150v418q0 72 -59 109.5t-214 37.5t-214.5 -37.5
t-59.5 -109.5v-418q0 -71 59.5 -108t214.5 -37t214 37t59 108zM589 110h-175q-96 0 -136 37.5t-40 108.5v223q0 71 39.5 109t136.5 38h175q26 0 26 -26v-87q0 -25 -26 -25h-144q-44 0 -44 -36v-171q0 -17 9 -25.5t35 -8.5h144q26 0 26 -26v-85q0 -26 -26 -26z" />
    <glyph glyph-name="ordfeminine" unicode="&#xaa;" horiz-adv-x="520" 
d="M243 568l-35 -105h99l-34 105q-4 10 -9 10h-13q-6 0 -8 -10zM199 232q0 -30 -30 -30h-103q-30 0 -30 30v179q0 54 21 108q10 30 31.5 87.5t29.5 81.5q8 18 18 25t30 7h189q19 0 29 -7t18 -25l62 -169q20 -56 20 -108v-179q0 -30 -30 -30h-108q-30 0 -30 30v95h-117v-95z
M72 0q-36 0 -36 36v67q0 36 36 36h376q36 0 36 -36v-67q0 -36 -36 -36h-376z" />
    <glyph glyph-name="guillemotleft" unicode="&#xab;" horiz-adv-x="812" 
d="M356 106l-179 51q-67 19 -97 52t-30 103v74q0 70 29.5 102.5t97.5 52.5l179 52q16 5 26 -3.5t10 -27.5v-117q0 -35 -36 -49l-95 -28q-11 -4 -14 -7t-3 -12t3 -12t14 -7l95 -27q36 -11 36 -49v-117q0 -19 -9.5 -27.5t-26.5 -3.5zM716 109l-169 48q-67 19 -97 52t-30 103
v74q0 70 29.5 103t97.5 52l169 49q17 5 26.5 -4t9.5 -27v-114q0 -35 -36 -49l-95 -28q-17 -5 -17 -19q0 -9 3 -12.5t14 -6.5l95 -27q36 -11 36 -49v-114q0 -41 -36 -31z" />
    <glyph glyph-name="logicalnot" unicode="&#xac;" horiz-adv-x="734" 
d="M628 63h-124q-36 0 -36 36v208h-362q-36 0 -36 36v114q0 36 36 36h522q36 0 36 -36v-358q0 -36 -36 -36z" />
    <glyph glyph-name="uni00AD" unicode="&#xad;" horiz-adv-x="420" 
d="M76 257q-36 0 -36 36v134q0 36 36 36h268q36 0 36 -36v-134q0 -36 -36 -36h-268z" />
    <glyph glyph-name="registered" unicode="&#xae;" horiz-adv-x="560" 
d="M504 345q0 -72 -48.5 -109.5t-175.5 -37.5t-175.5 37.5t-48.5 109.5v246q0 73 48.5 111t175.5 38t175.5 -38t48.5 -111v-246zM444 343v251q0 43 -35.5 65.5t-128.5 22.5t-128.5 -22.5t-35.5 -65.5v-251q0 -43 35.5 -65t128.5 -22t128.5 22t35.5 65zM248 548v-53h31
q18 0 18 20v13q0 20 -18 20h-31zM234 326h-63q-15 0 -15 15v265q0 15 15 15h136q81 0 81 -68v-19q0 -37 -24 -46q23 -3 36.5 -19t13.5 -41v-87q0 -15 -14 -15h-64q-15 0 -15 15v66q0 17 -15 17h-58v-83q0 -15 -14 -15z" />
    <glyph glyph-name="macron" unicode="&#xaf;" horiz-adv-x="500" 
d="M423 760h-347q-36 0 -36 36v93q0 36 36 36h347q36 0 36 -36v-93q0 -36 -36 -36z" />
    <glyph glyph-name="degree" unicode="&#xb0;" horiz-adv-x="483" 
d="M438 425q0 -57 -42.5 -86.5t-153.5 -29.5t-154 29.5t-43 86.5v184q0 57 43 86.5t154 29.5t153.5 -29.5t42.5 -86.5v-184zM192 474q0 -13 10.5 -20t39.5 -7t39.5 7t10.5 20v85q0 13 -10 20.5t-40 7.5q-50 0 -50 -28v-85z" />
    <glyph glyph-name="plusminus" unicode="&#xb1;" horiz-adv-x="734" 
d="M465 161q0 -36 -36 -36h-124q-36 0 -36 36v168h-163q-36 0 -36 36v114q0 36 36 36h163v168q0 36 36 36h124q36 0 36 -36v-168h163q36 0 36 -36v-114q0 -36 -36 -36h-163v-168zM106 1q-36 0 -36 36v114q0 36 36 36h522q36 0 36 -36v-114q0 -36 -36 -36h-522z" />
    <glyph glyph-name="twosuperior" unicode="&#xb2;" horiz-adv-x="485" 
d="M408 202h-342q-26 0 -26 26v124q0 53 16 86t37.5 46t59.5 25l96 30q20 7 20 26q0 11 -4.5 15t-15.5 4h-156q-26 0 -26 26v84q0 26 26 26h212q62 0 94.5 -30.5t32.5 -88.5v-68q0 -52 -28 -81t-84 -46l-98 -31q-12 -4 -15.5 -7.5t-3.5 -14.5v-15h205q26 0 26 -26v-84
q0 -26 -26 -26z" />
    <glyph glyph-name="threesuperior" unicode="&#xb3;" horiz-adv-x="484" 
d="M75 338h181q27 0 27 21v20q0 21 -27 21h-122q-26 0 -26 26v77q0 26 26 26h75q28 0 28 21v11q0 22 -28 22h-134q-26 0 -26 26v85q0 26 26 26h201q59 0 88.5 -27t29.5 -76v-42q0 -60 -42 -77q50 -6 70.5 -31t20.5 -74v-72q0 -56 -36 -87.5t-104 -31.5h-228q-26 0 -26 26v84
q0 26 26 26z" />
    <glyph glyph-name="acute" unicode="&#xb4;" horiz-adv-x="500" 
d="M423 796l-349 -43q-34 -4 -34 33v96q0 18 8.5 26t27.5 10l349 43q34 4 34 -33v-96q0 -18 -8.5 -26t-27.5 -10z" />
    <glyph glyph-name="mu" unicode="&#xb5;" horiz-adv-x="713" 
d="M288 -54q0 -36 -36 -36h-155q-36 0 -36 36v588q0 36 36 36h155q36 0 36 -36v-316q0 -23 15 -35t57 -12q43 0 58 12t15 35v316q0 36 36 36h152q36 0 36 -36v-345q0 -49 -12.5 -84t-42.5 -63.5t-86 -42.5t-138 -14q-48 0 -90 8v-47z" />
    <glyph glyph-name="paragraph" unicode="&#xb6;" horiz-adv-x="682" 
d="M339 0h-115q-36 0 -36 36v173q-83 15 -118 63t-35 125v128q0 94 53.5 144.5t182.5 50.5h306q36 0 36 -36v-648q0 -36 -36 -36h-115q-36 0 -36 36v166h-51v-166q0 -36 -36 -36z" />
    <glyph glyph-name="periodcentered" unicode="&#xb7;" horiz-adv-x="364" 
d="M283 220h-202q-36 0 -36 36v203q0 36 36 36h202q36 0 36 -36v-203q0 -36 -36 -36z" />
    <glyph glyph-name="cedilla" unicode="&#xb8;" horiz-adv-x="500" 
d="M264 -126h-126q-45 0 -30 40l85 230q12 32 44 20l116 -43q31 -11 20 -40l-63 -177q-10 -30 -46 -30z" />
    <glyph glyph-name="onesuperior" unicode="&#xb9;" horiz-adv-x="457" 
d="M392 202h-318q-26 0 -26 26v87q0 26 26 26h81v240h-67q-26 0 -26 26v87q0 26 26 26h209q26 0 26 -26v-353h69q26 0 26 -26v-87q0 -26 -26 -26z" />
    <glyph glyph-name="ordmasculine" unicode="&#xba;" horiz-adv-x="525" 
d="M486 340q0 -73 -48 -110.5t-175 -37.5t-175.5 38t-48.5 110v241q0 73 48.5 111t175.5 38t175 -38t48 -111v-241zM208 365q0 -14 11 -21t44 -7t44 7t11 21v190q0 14 -11 21.5t-44 7.5q-55 0 -55 -29v-190zM75 0q-36 0 -36 36v67q0 36 36 36h375q36 0 36 -36v-67
q0 -36 -36 -36h-375z" />
    <glyph glyph-name="guillemotright" unicode="&#xbb;" horiz-adv-x="812" 
d="M456 106q-36 -10 -36 31v117q0 38 36 49l95 27q11 4 14 7t3 12t-3 12t-14 7l-95 28q-36 10 -36 49v117q0 42 36 31l179 -52q67 -19 97 -52t30 -103v-74q0 -70 -30 -103t-97 -52zM265 157l-169 -48q-36 -11 -36 31v114q0 38 36 49l95 27q11 3 14 6.5t3 12.5q0 14 -17 19
l-95 28q-36 14 -36 49v114q0 43 36 31l169 -49q68 -19 97.5 -52t29.5 -103v-74q0 -70 -30 -103t-97 -52z" />
    <glyph glyph-name="onequarter" unicode="&#xbc;" horiz-adv-x="1203" 
d="M392 202h-318q-26 0 -26 26v87q0 26 26 26h81v240h-67q-26 0 -26 26v87q0 26 26 26h209q26 0 26 -26v-353h69q26 0 26 -26v-87q0 -26 -26 -26zM991 120h-122q-70 0 -100.5 28.5t-30.5 90.5v253q0 26 26 26h112q25 0 25 -26v-197q0 -25 23 -25h67v222q0 26 26 26h111
q25 0 25 -26v-466q0 -26 -25 -26h-111q-26 0 -26 26v94zM425 36l120 648q4 20 11 28t25 8h115q43 0 36 -36l-120 -648q-4 -20 -11 -28t-25 -8h-115q-43 0 -36 36z" />
    <glyph glyph-name="onehalf" unicode="&#xbd;" horiz-adv-x="1160" 
d="M392 202h-318q-26 0 -26 26v87q0 26 26 26h81v240h-67q-26 0 -26 26v87q0 26 26 26h209q26 0 26 -26v-353h69q26 0 26 -26v-87q0 -26 -26 -26zM1083 0h-342q-26 0 -26 26v124q0 53 16 86t37.5 46t59.5 25l96 30q20 7 20 26q0 11 -4.5 15t-15.5 4h-156q-26 0 -26 26v84
q0 26 26 26h212q62 0 94.5 -30.5t32.5 -88.5v-68q0 -52 -28 -81t-84 -46l-98 -31q-12 -4 -15.5 -7.5t-3.5 -14.5v-15h205q26 0 26 -26v-84q0 -26 -26 -26zM425 36l120 648q4 20 11 28t25 8h115q43 0 36 -36l-120 -648q-4 -20 -11 -28t-25 -8h-115q-43 0 -36 36z" />
    <glyph glyph-name="threequarters" unicode="&#xbe;" horiz-adv-x="1213" 
d="M75 338h181q27 0 27 21v20q0 21 -27 21h-122q-26 0 -26 26v77q0 26 26 26h75q28 0 28 21v11q0 22 -28 22h-134q-26 0 -26 26v85q0 26 26 26h201q59 0 88.5 -27t29.5 -76v-42q0 -60 -42 -77q50 -6 70.5 -31t20.5 -74v-72q0 -56 -36 -87.5t-104 -31.5h-228q-26 0 -26 26v84
q0 26 26 26zM1001 120h-122q-70 0 -100.5 28.5t-30.5 90.5v253q0 26 26 26h112q25 0 25 -26v-197q0 -25 23 -25h67v222q0 26 26 26h111q25 0 25 -26v-466q0 -26 -25 -26h-111q-26 0 -26 26v94zM435 36l120 648q4 20 11 28t25 8h115q43 0 36 -36l-120 -648q-4 -20 -11 -28
t-25 -8h-115q-43 0 -36 36z" />
    <glyph glyph-name="questiondown" unicode="&#xbf;" horiz-adv-x="656" 
d="M312 720h183q36 0 36 -36v-131q0 -19 -8.5 -27.5t-27.5 -8.5h-183q-36 0 -36 36v131q0 36 36 36zM200 447l271 37q19 2 27.5 -5t11.5 -26l21 -132q6 -36 -33 -41l-199 -28q-27 -4 -27 -31q0 -28 27 -28h276q36 0 36 -36v-121q0 -36 -36 -36h-323q-98 0 -152.5 45.5
t-54.5 130.5v105q0 80 39.5 118t115.5 48z" />
    <glyph glyph-name="Agrave" unicode="&#xc0;" horiz-adv-x="730" 
d="M330 510l-47 -152h157l-47 152q-7 17 -19 17h-25q-12 0 -19 -17zM273 36q0 -36 -36 -36h-147q-36 0 -36 36v264q0 59 39 160l87 227q11 33 51 33h269q39 0 50 -33l87 -227q39 -101 39 -160v-264q0 -36 -36 -36h-151q-39 0 -39 36v140h-177v-140zM540 753l-349 43
q-19 2 -27.5 10t-8.5 26v96q0 37 34 33l349 -43q19 -2 27.5 -10t8.5 -26v-96q0 -37 -34 -33z" />
    <glyph glyph-name="Aacute" unicode="&#xc1;" horiz-adv-x="730" 
d="M330 510l-47 -152h157l-47 152q-7 17 -19 17h-25q-12 0 -19 -17zM273 36q0 -36 -36 -36h-147q-36 0 -36 36v264q0 59 39 160l87 227q11 33 51 33h269q39 0 50 -33l87 -227q39 -101 39 -160v-264q0 -36 -36 -36h-151q-39 0 -39 36v140h-177v-140zM538 796l-349 -43
q-34 -4 -34 33v96q0 18 8.5 26t27.5 10l349 43q34 4 34 -33v-96q0 -18 -8.5 -26t-27.5 -10z" />
    <glyph glyph-name="Acircumflex" unicode="&#xc2;" horiz-adv-x="730" 
d="M330 510l-47 -152h157l-47 152q-7 17 -19 17h-25q-12 0 -19 -17zM273 36q0 -36 -36 -36h-147q-36 0 -36 36v264q0 59 39 160l87 227q11 33 51 33h269q39 0 50 -33l87 -227q39 -101 39 -160v-264q0 -36 -36 -36h-151q-39 0 -39 36v140h-177v-140zM333 797l-137 -40
q-26 -8 -33.5 -2t-7.5 33v81q0 18 4 27.5t11 13.5t26 12l128 46q17 7 39 9q19 0 32 -5l137 -50q27 -10 34.5 -18.5t7.5 -34.5v-81q0 -27 -8 -33t-34 2l-137 40q-31 8 -62 0z" />
    <glyph glyph-name="Atilde" unicode="&#xc3;" horiz-adv-x="730" 
d="M330 510l-47 -152h157l-47 152q-7 17 -19 17h-25q-12 0 -19 -17zM273 36q0 -36 -36 -36h-147q-36 0 -36 36v264q0 59 39 160l87 227q11 33 51 33h269q39 0 50 -33l87 -227q39 -101 39 -160v-264q0 -36 -36 -36h-151q-39 0 -39 36v140h-177v-140zM364 764l-28 4
q-60 7 -81 5.5t-64 -14.5q-36 -11 -36 26v101q0 17 8 25t28 16q45 14 71.5 14.5t84.5 -9.5l17 -2l22 -3q69 -9 86.5 -7.5t64.5 15.5q36 10 36 -26v-101q0 -17 -8 -25t-28 -16q-45 -14 -72 -14.5t-85 9.5z" />
    <glyph glyph-name="Adieresis" unicode="&#xc4;" horiz-adv-x="730" 
d="M330 510l-47 -152h157l-47 152q-7 17 -19 17h-25q-12 0 -19 -17zM273 36q0 -36 -36 -36h-147q-36 0 -36 36v264q0 59 39 160l87 227q11 33 51 33h269q39 0 50 -33l87 -227q39 -101 39 -160v-264q0 -36 -36 -36h-151q-39 0 -39 36v140h-177v-140zM561 760h-138
q-33 0 -33 33v121q0 33 33 33h138q33 0 33 -33v-121q0 -33 -33 -33zM303 760h-138q-34 0 -34 33v121q0 33 34 33h138q33 0 33 -33v-121q0 -33 -33 -33z" />
    <glyph glyph-name="Aring" unicode="&#xc5;" horiz-adv-x="730" 
d="M425 764v35q0 21 -12 30.5t-47 9.5t-46 -9.5t-11 -30.5v-35q0 -23 11 -33t46 -10q36 0 47.5 10t11.5 33zM330 510l-47 -152h157l-47 152q-6 17 -19 17h-25q-13 0 -19 -17zM273 36q0 -36 -36 -36h-147q-36 0 -36 36v264q0 59 39 160l84 220q-29 33 -29 91v58
q0 70 47.5 106.5t169.5 36.5t169.5 -36.5t47.5 -106.5v-58q0 -58 -29 -91l84 -220q39 -101 39 -160v-264q0 -36 -36 -36h-151q-39 0 -39 36v140h-177v-140z" />
    <glyph glyph-name="AE" unicode="&#xc6;" horiz-adv-x="1005" 
d="M334 514l-52 -156h158v173h-87q-8 0 -11.5 -3.5t-7.5 -13.5zM272 36q0 -36 -36 -36h-146q-36 0 -36 36v254q0 74 29 150l87 239q8 23 22 32t40 9h688q36 0 36 -36v-117q0 -36 -36 -36h-253v-77h172q36 0 36 -36v-107q0 -36 -36 -36h-172v-86h253q36 0 36 -36v-117
q0 -36 -36 -36h-444q-36 0 -36 36v140h-168v-140z" />
    <glyph glyph-name="Ccedilla" unicode="&#xc7;" horiz-adv-x="628" 
d="M435 -96q-10 -30 -46 -30h-126q-45 0 -30 40l32 87q-106 7 -156.5 57t-50.5 146v311q0 105 60 155t186 50h244q36 0 36 -36v-121q0 -36 -36 -36h-201q-61 0 -61 -50v-238q0 -48 61 -48h201q36 0 36 -36v-119q0 -36 -36 -36h-79z" />
    <glyph glyph-name="Egrave" unicode="&#xc8;" horiz-adv-x="654" 
d="M569 0h-464q-36 0 -36 36v648q0 36 36 36h464q36 0 36 -36v-117q0 -36 -36 -36h-276v-77h195q36 0 36 -36v-107q0 -36 -36 -36h-195v-86h276q36 0 36 -36v-117q0 -36 -36 -36zM502 753l-349 43q-19 2 -27.5 10t-8.5 26v96q0 37 34 33l349 -43q19 -2 27.5 -10t8.5 -26v-96
q0 -37 -34 -33z" />
    <glyph glyph-name="Eacute" unicode="&#xc9;" horiz-adv-x="654" 
d="M569 0h-464q-36 0 -36 36v648q0 36 36 36h464q36 0 36 -36v-117q0 -36 -36 -36h-276v-77h195q36 0 36 -36v-107q0 -36 -36 -36h-195v-86h276q36 0 36 -36v-117q0 -36 -36 -36zM530 796l-349 -43q-34 -4 -34 33v96q0 18 8.5 26t27.5 10l349 43q34 4 34 -33v-96
q0 -18 -8.5 -26t-27.5 -10z" />
    <glyph glyph-name="Ecircumflex" unicode="&#xca;" horiz-adv-x="654" 
d="M569 0h-464q-36 0 -36 36v648q0 36 36 36h464q36 0 36 -36v-117q0 -36 -36 -36h-276v-77h195q36 0 36 -36v-107q0 -36 -36 -36h-195v-86h276q36 0 36 -36v-117q0 -36 -36 -36zM305 797l-137 -40q-26 -8 -33.5 -2t-7.5 33v81q0 18 4 27.5t11 13.5t26 12l128 46q17 7 39 9
q19 0 32 -5l137 -50q27 -10 34.5 -18.5t7.5 -34.5v-81q0 -27 -8 -33t-34 2l-137 40q-31 8 -62 0z" />
    <glyph glyph-name="Edieresis" unicode="&#xcb;" horiz-adv-x="654" 
d="M569 0h-464q-36 0 -36 36v648q0 36 36 36h464q36 0 36 -36v-117q0 -36 -36 -36h-276v-77h195q36 0 36 -36v-107q0 -36 -36 -36h-195v-86h276q36 0 36 -36v-117q0 -36 -36 -36zM543 760h-138q-33 0 -33 33v121q0 33 33 33h138q33 0 33 -33v-121q0 -33 -33 -33zM285 760
h-138q-34 0 -34 33v121q0 33 34 33h138q33 0 33 -33v-121q0 -33 -33 -33z" />
    <glyph glyph-name="Igrave" unicode="&#xcc;" horiz-adv-x="605" 
d="M89 0q-36 0 -36 36v119q0 36 36 36h99v336h-99q-36 0 -36 36v121q0 36 36 36h426q36 0 36 -36v-121q0 -36 -36 -36h-97v-336h97q36 0 36 -36v-119q0 -36 -36 -36h-426zM477 753l-349 43q-19 2 -27.5 10t-8.5 26v96q0 37 34 33l349 -43q19 -2 27.5 -10t8.5 -26v-96
q0 -37 -34 -33z" />
    <glyph glyph-name="Iacute" unicode="&#xcd;" horiz-adv-x="605" 
d="M89 0q-36 0 -36 36v119q0 36 36 36h99v336h-99q-36 0 -36 36v121q0 36 36 36h426q36 0 36 -36v-121q0 -36 -36 -36h-97v-336h97q36 0 36 -36v-119q0 -36 -36 -36h-426zM475 796l-349 -43q-34 -4 -34 33v96q0 18 8.5 26t27.5 10l349 43q34 4 34 -33v-96q0 -18 -8.5 -26
t-27.5 -10z" />
    <glyph glyph-name="Icircumflex" unicode="&#xce;" horiz-adv-x="605" 
d="M89 0q-36 0 -36 36v119q0 36 36 36h99v336h-99q-36 0 -36 36v121q0 36 36 36h426q36 0 36 -36v-121q0 -36 -36 -36h-97v-336h97q36 0 36 -36v-119q0 -36 -36 -36h-426zM270 797l-137 -40q-25 -8 -33 -2t-8 33v81q0 18 4 27.5t11 13.5t26 12l128 46q17 7 39 9q20 0 32 -5
l137 -50q27 -10 34.5 -18.5t7.5 -34.5v-81q0 -27 -8 -33t-34 2l-137 40q-31 8 -62 0z" />
    <glyph glyph-name="Idieresis" unicode="&#xcf;" horiz-adv-x="605" 
d="M89 0q-36 0 -36 36v119q0 36 36 36h99v336h-99q-36 0 -36 36v121q0 36 36 36h426q36 0 36 -36v-121q0 -36 -36 -36h-97v-336h97q36 0 36 -36v-119q0 -36 -36 -36h-426zM498 760h-138q-33 0 -33 33v121q0 33 33 33h138q33 0 33 -33v-121q0 -33 -33 -33zM240 760h-138
q-34 0 -34 33v121q0 33 34 33h138q33 0 33 -33v-121q0 -33 -33 -33z" />
    <glyph glyph-name="Eth" unicode="&#xd0;" horiz-adv-x="756" 
d="M452 0h-337q-36 0 -36 36v229h-23q-36 0 -36 36v107q0 36 36 36h23v240q0 36 36 36h337q134 0 190 -53t56 -151v-312q0 -98 -56 -151t-190 -53zM303 189h122q28 0 37.5 13t9.5 36v243q0 48 -47 48h-122v-85h41q36 0 36 -36v-107q0 -36 -36 -36h-41v-76z" />
    <glyph glyph-name="Ntilde" unicode="&#xd1;" horiz-adv-x="753" 
d="M255 0h-150q-36 0 -36 36v648q0 36 36 36h104q36 0 59 -27l194 -222v213q0 36 36 36h150q36 0 36 -36v-648q0 -36 -36 -36h-150q-36 0 -36 36v123l-171 207v-330q0 -36 -36 -36zM375 764l-28 4q-60 7 -81 5.5t-64 -14.5q-36 -11 -36 26v101q0 17 8 25t28 16
q45 14 71.5 14.5t84.5 -9.5l17 -2l22 -3q69 -9 86.5 -7.5t64.5 15.5q36 10 36 -26v-101q0 -17 -8 -25t-28 -16q-45 -14 -72 -14.5t-85 9.5z" />
    <glyph glyph-name="Ograve" unicode="&#xd2;" horiz-adv-x="737" 
d="M679 189q0 -49 -13.5 -84t-47 -63.5t-96 -42.5t-153.5 -14t-153.5 14t-96 42.5t-47.5 63.5t-14 84v341q0 49 14 84t47.5 63.5t96 43t153.5 14.5t153.5 -14.5t96 -43t47 -63.5t13.5 -84v-341zM285 225q0 -23 17 -35t67 -12t67 12t17 35v269q0 23 -17 34.5t-67 11.5
t-67 -12t-17 -34v-269zM543 753l-349 43q-19 2 -27.5 10t-8.5 26v96q0 37 34 33l349 -43q19 -2 27.5 -10t8.5 -26v-96q0 -37 -34 -33z" />
    <glyph glyph-name="Oacute" unicode="&#xd3;" horiz-adv-x="737" 
d="M679 189q0 -49 -13.5 -84t-47 -63.5t-96 -42.5t-153.5 -14t-153.5 14t-96 42.5t-47.5 63.5t-14 84v341q0 49 14 84t47.5 63.5t96 43t153.5 14.5t153.5 -14.5t96 -43t47 -63.5t13.5 -84v-341zM285 225q0 -23 17 -35t67 -12t67 12t17 35v269q0 23 -17 34.5t-67 11.5
t-67 -12t-17 -34v-269zM541 796l-349 -43q-34 -4 -34 33v96q0 18 8.5 26t27.5 10l349 43q34 4 34 -33v-96q0 -18 -8.5 -26t-27.5 -10z" />
    <glyph glyph-name="Ocircumflex" unicode="&#xd4;" horiz-adv-x="737" 
d="M679 189q0 -49 -13.5 -84t-47 -63.5t-96 -42.5t-153.5 -14t-153.5 14t-96 42.5t-47.5 63.5t-14 84v341q0 49 14 84t47.5 63.5t96 43t153.5 14.5t153.5 -14.5t96 -43t47 -63.5t13.5 -84v-341zM285 225q0 -23 17 -35t67 -12t67 12t17 35v269q0 23 -17 34.5t-67 11.5
t-67 -12t-17 -34v-269zM336 797l-137 -40q-25 -8 -33 -2t-8 33v81q0 18 4 27.5t11 13.5t26 12l128 46q17 7 39 9q20 0 32 -5l137 -50q27 -10 34.5 -18.5t7.5 -34.5v-81q0 -27 -8 -33t-34 2l-137 40q-31 8 -62 0z" />
    <glyph glyph-name="Otilde" unicode="&#xd5;" horiz-adv-x="737" 
d="M679 189q0 -49 -13.5 -84t-47 -63.5t-96 -42.5t-153.5 -14t-153.5 14t-96 42.5t-47.5 63.5t-14 84v341q0 49 14 84t47.5 63.5t96 43t153.5 14.5t153.5 -14.5t96 -43t47 -63.5t13.5 -84v-341zM285 225q0 -23 17 -35t67 -12t67 12t17 35v269q0 23 -17 34.5t-67 11.5
t-67 -12t-17 -34v-269zM367 764l-28 4q-60 7 -81 5.5t-64 -14.5q-36 -11 -36 26v101q0 17 8 25t28 16q45 14 71.5 14.5t84.5 -9.5l17 -2l22 -3q69 -9 86.5 -7.5t64.5 15.5q36 10 36 -26v-101q0 -17 -8 -25t-28 -16q-45 -14 -72 -14.5t-85 9.5z" />
    <glyph glyph-name="Odieresis" unicode="&#xd6;" horiz-adv-x="737" 
d="M679 189q0 -49 -13.5 -84t-47 -63.5t-96 -42.5t-153.5 -14t-153.5 14t-96 42.5t-47.5 63.5t-14 84v341q0 49 14 84t47.5 63.5t96 43t153.5 14.5t153.5 -14.5t96 -43t47 -63.5t13.5 -84v-341zM285 225q0 -23 17 -35t67 -12t67 12t17 35v269q0 23 -17 34.5t-67 11.5
t-67 -12t-17 -34v-269zM564 760h-138q-33 0 -33 33v121q0 33 33 33h138q33 0 33 -33v-121q0 -33 -33 -33zM306 760h-138q-34 0 -34 33v121q0 33 34 33h138q33 0 33 -33v-121q0 -33 -33 -33z" />
    <glyph glyph-name="multiply" unicode="&#xd7;" horiz-adv-x="734" 
d="M557 90q-26 -26 -51 0l-139 139l-139 -139q-25 -26 -51 0l-80 80q-26 26 0 51l139 139l-139 139q-26 25 0 51l80 80q26 26 51 0l139 -139l139 139q25 26 51 0l80 -80q26 -26 0 -51l-139 -139l139 -139q26 -25 0 -51z" />
    <glyph glyph-name="Oslash" unicode="&#xd8;" horiz-adv-x="737" 
d="M265 494v-217l116 273h-12q-62 0 -83 -14t-21 -42zM369 168q63 0 83.5 14t20.5 43v221l-118 -278h14zM295 -34q-7 -13 -12 -19.5t-13.5 -11.5t-20.5 -5h-115q-19 0 -26.5 10t0.5 26l27 65q-77 48 -77 158v341q0 49 14 84t47.5 63.5t96 43t153.5 14.5q24 0 64 -2l9 21
q7 13 12 19.5t13.5 11.5t20.5 5h115q19 0 26.5 -10t-0.5 -26l-27 -65q77 -47 77 -159v-341q0 -49 -13.5 -84t-47 -63.5t-96 -42.5t-153.5 -14q-25 0 -65 2z" />
    <glyph glyph-name="Ugrave" unicode="&#xd9;" horiz-adv-x="746" 
d="M682 189q0 -49 -14 -84t-47.5 -63.5t-95 -42.5t-152.5 -14t-152.5 14t-95 42.5t-47.5 63.5t-14 84v495q0 36 36 36h157q36 0 36 -36v-456q0 -23 17 -35t65 -12q49 0 66 12t17 35v456q0 36 36 36h152q36 0 36 -36v-495zM538 753l-349 43q-19 2 -27.5 10t-8.5 26v96
q0 37 34 33l349 -43q19 -2 27.5 -10t8.5 -26v-96q0 -37 -34 -33z" />
    <glyph glyph-name="Uacute" unicode="&#xda;" horiz-adv-x="746" 
d="M682 189q0 -49 -14 -84t-47.5 -63.5t-95 -42.5t-152.5 -14t-152.5 14t-95 42.5t-47.5 63.5t-14 84v495q0 36 36 36h157q36 0 36 -36v-456q0 -23 17 -35t65 -12q49 0 66 12t17 35v456q0 36 36 36h152q36 0 36 -36v-495zM556 796l-349 -43q-34 -4 -34 33v96q0 18 8.5 26
t27.5 10l349 43q34 4 34 -33v-96q0 -18 -8.5 -26t-27.5 -10z" />
    <glyph glyph-name="Ucircumflex" unicode="&#xdb;" horiz-adv-x="746" 
d="M682 189q0 -49 -14 -84t-47.5 -63.5t-95 -42.5t-152.5 -14t-152.5 14t-95 42.5t-47.5 63.5t-14 84v495q0 36 36 36h157q36 0 36 -36v-456q0 -23 17 -35t65 -12q49 0 66 12t17 35v456q0 36 36 36h152q36 0 36 -36v-495zM341 797l-137 -40q-26 -8 -33.5 -2t-7.5 33v81
q0 18 4 27.5t11 13.5t26 12l128 46q17 7 39 9q19 0 32 -5l137 -50q27 -10 34.5 -18.5t7.5 -34.5v-81q0 -27 -8 -33t-34 2l-137 40q-31 8 -62 0z" />
    <glyph glyph-name="Udieresis" unicode="&#xdc;" horiz-adv-x="746" 
d="M682 189q0 -49 -14 -84t-47.5 -63.5t-95 -42.5t-152.5 -14t-152.5 14t-95 42.5t-47.5 63.5t-14 84v495q0 36 36 36h157q36 0 36 -36v-456q0 -23 17 -35t65 -12q49 0 66 12t17 35v456q0 36 36 36h152q36 0 36 -36v-495zM569 760h-138q-33 0 -33 33v121q0 33 33 33h138
q33 0 33 -33v-121q0 -33 -33 -33zM311 760h-138q-34 0 -34 33v121q0 33 34 33h138q33 0 33 -33v-121q0 -33 -33 -33z" />
    <glyph glyph-name="Yacute" unicode="&#xdd;" horiz-adv-x="705" 
d="M434 0h-162q-36 0 -36 36v128l-153 205q-24 31 -31 54t-7 69v192q0 36 36 36h154q36 0 36 -36v-164q0 -28 9 -42l46 -72q10 -17 24 -17h10q14 0 24 17l46 72q9 14 9 42v164q0 36 36 36h149q36 0 36 -36v-192q0 -45 -7.5 -68t-30.5 -55l-152 -206v-127q0 -36 -36 -36z
M535 796l-349 -43q-34 -4 -34 33v96q0 18 8.5 26t27.5 10l349 43q34 4 34 -33v-96q0 -18 -8.5 -26t-27.5 -10z" />
    <glyph glyph-name="Thorn" unicode="&#xde;" horiz-adv-x="692" 
d="M260 0h-155q-36 0 -36 36v648q0 36 36 36h155q36 0 36 -36v-64h115q129 0 182.5 -50.5t53.5 -144.5v-128q0 -94 -53.5 -144.5t-182.5 -50.5h-115v-66q0 -36 -36 -36zM294 433v-151h90q47 0 47 49v53q0 49 -47 49h-90z" />
    <glyph glyph-name="germandbls" unicode="&#xdf;" horiz-adv-x="759" 
d="M296 36q0 -36 -36 -36h-155q-36 0 -36 36v648q0 36 36 36h371q88 0 127.5 -53.5t16.5 -137.5l-23 -83q57 -10 92.5 -50.5t35.5 -106.5v-123q0 -77 -52.5 -121.5t-142.5 -44.5h-138q-36 0 -36 36v117q0 36 36 36h78q27 0 27 23v49q0 23 -27 23h-72q-49 0 -37 56l33 163
q6 28 -19 28h-79v-495z" />
    <glyph glyph-name="agrave" unicode="&#xe0;" horiz-adv-x="730" 
d="M330 510l-47 -152h157l-47 152q-7 17 -19 17h-25q-12 0 -19 -17zM273 36q0 -36 -36 -36h-147q-36 0 -36 36v264q0 59 39 160l87 227q11 33 51 33h269q39 0 50 -33l87 -227q39 -101 39 -160v-264q0 -36 -36 -36h-151q-39 0 -39 36v140h-177v-140zM540 753l-349 43
q-19 2 -27.5 10t-8.5 26v96q0 37 34 33l349 -43q19 -2 27.5 -10t8.5 -26v-96q0 -37 -34 -33z" />
    <glyph glyph-name="aacute" unicode="&#xe1;" horiz-adv-x="730" 
d="M330 510l-47 -152h157l-47 152q-7 17 -19 17h-25q-12 0 -19 -17zM273 36q0 -36 -36 -36h-147q-36 0 -36 36v264q0 59 39 160l87 227q11 33 51 33h269q39 0 50 -33l87 -227q39 -101 39 -160v-264q0 -36 -36 -36h-151q-39 0 -39 36v140h-177v-140zM538 796l-349 -43
q-34 -4 -34 33v96q0 18 8.5 26t27.5 10l349 43q34 4 34 -33v-96q0 -18 -8.5 -26t-27.5 -10z" />
    <glyph glyph-name="acircumflex" unicode="&#xe2;" horiz-adv-x="730" 
d="M330 510l-47 -152h157l-47 152q-7 17 -19 17h-25q-12 0 -19 -17zM273 36q0 -36 -36 -36h-147q-36 0 -36 36v264q0 59 39 160l87 227q11 33 51 33h269q39 0 50 -33l87 -227q39 -101 39 -160v-264q0 -36 -36 -36h-151q-39 0 -39 36v140h-177v-140zM333 797l-137 -40
q-26 -8 -33.5 -2t-7.5 33v81q0 18 4 27.5t11 13.5t26 12l128 46q17 7 39 9q19 0 32 -5l137 -50q27 -10 34.5 -18.5t7.5 -34.5v-81q0 -27 -8 -33t-34 2l-137 40q-31 8 -62 0z" />
    <glyph glyph-name="atilde" unicode="&#xe3;" horiz-adv-x="730" 
d="M330 510l-47 -152h157l-47 152q-7 17 -19 17h-25q-12 0 -19 -17zM273 36q0 -36 -36 -36h-147q-36 0 -36 36v264q0 59 39 160l87 227q11 33 51 33h269q39 0 50 -33l87 -227q39 -101 39 -160v-264q0 -36 -36 -36h-151q-39 0 -39 36v140h-177v-140zM364 764l-28 4
q-60 7 -81 5.5t-64 -14.5q-36 -11 -36 26v101q0 17 8 25t28 16q45 14 71.5 14.5t84.5 -9.5l17 -2l22 -3q69 -9 86.5 -7.5t64.5 15.5q36 10 36 -26v-101q0 -17 -8 -25t-28 -16q-45 -14 -72 -14.5t-85 9.5z" />
    <glyph glyph-name="adieresis" unicode="&#xe4;" horiz-adv-x="730" 
d="M330 510l-47 -152h157l-47 152q-7 17 -19 17h-25q-12 0 -19 -17zM273 36q0 -36 -36 -36h-147q-36 0 -36 36v264q0 59 39 160l87 227q11 33 51 33h269q39 0 50 -33l87 -227q39 -101 39 -160v-264q0 -36 -36 -36h-151q-39 0 -39 36v140h-177v-140zM561 760h-138
q-33 0 -33 33v121q0 33 33 33h138q33 0 33 -33v-121q0 -33 -33 -33zM303 760h-138q-34 0 -34 33v121q0 33 34 33h138q33 0 33 -33v-121q0 -33 -33 -33z" />
    <glyph glyph-name="aring" unicode="&#xe5;" horiz-adv-x="730" 
d="M425 764v35q0 21 -12 30.5t-47 9.5t-46 -9.5t-11 -30.5v-35q0 -23 11 -33t46 -10q36 0 47.5 10t11.5 33zM330 510l-47 -152h157l-47 152q-6 17 -19 17h-25q-13 0 -19 -17zM273 36q0 -36 -36 -36h-147q-36 0 -36 36v264q0 59 39 160l84 220q-29 33 -29 91v58
q0 70 47.5 106.5t169.5 36.5t169.5 -36.5t47.5 -106.5v-58q0 -58 -29 -91l84 -220q39 -101 39 -160v-264q0 -36 -36 -36h-151q-39 0 -39 36v140h-177v-140z" />
    <glyph glyph-name="ae" unicode="&#xe6;" horiz-adv-x="1005" 
d="M334 514l-52 -156h158v173h-87q-8 0 -11.5 -3.5t-7.5 -13.5zM272 36q0 -36 -36 -36h-146q-36 0 -36 36v254q0 74 29 150l87 239q8 23 22 32t40 9h688q36 0 36 -36v-117q0 -36 -36 -36h-253v-77h172q36 0 36 -36v-107q0 -36 -36 -36h-172v-86h253q36 0 36 -36v-117
q0 -36 -36 -36h-444q-36 0 -36 36v140h-168v-140z" />
    <glyph glyph-name="ccedilla" unicode="&#xe7;" horiz-adv-x="628" 
d="M435 -96q-10 -30 -46 -30h-126q-45 0 -30 40l32 87q-106 7 -156.5 57t-50.5 146v311q0 105 60 155t186 50h244q36 0 36 -36v-121q0 -36 -36 -36h-201q-61 0 -61 -50v-238q0 -48 61 -48h201q36 0 36 -36v-119q0 -36 -36 -36h-79z" />
    <glyph glyph-name="egrave" unicode="&#xe8;" horiz-adv-x="654" 
d="M569 0h-464q-36 0 -36 36v648q0 36 36 36h464q36 0 36 -36v-117q0 -36 -36 -36h-276v-77h195q36 0 36 -36v-107q0 -36 -36 -36h-195v-86h276q36 0 36 -36v-117q0 -36 -36 -36zM502 753l-349 43q-19 2 -27.5 10t-8.5 26v96q0 37 34 33l349 -43q19 -2 27.5 -10t8.5 -26v-96
q0 -37 -34 -33z" />
    <glyph glyph-name="eacute" unicode="&#xe9;" horiz-adv-x="654" 
d="M569 0h-464q-36 0 -36 36v648q0 36 36 36h464q36 0 36 -36v-117q0 -36 -36 -36h-276v-77h195q36 0 36 -36v-107q0 -36 -36 -36h-195v-86h276q36 0 36 -36v-117q0 -36 -36 -36zM530 796l-349 -43q-34 -4 -34 33v96q0 18 8.5 26t27.5 10l349 43q34 4 34 -33v-96
q0 -18 -8.5 -26t-27.5 -10z" />
    <glyph glyph-name="ecircumflex" unicode="&#xea;" horiz-adv-x="654" 
d="M569 0h-464q-36 0 -36 36v648q0 36 36 36h464q36 0 36 -36v-117q0 -36 -36 -36h-276v-77h195q36 0 36 -36v-107q0 -36 -36 -36h-195v-86h276q36 0 36 -36v-117q0 -36 -36 -36zM305 797l-137 -40q-26 -8 -33.5 -2t-7.5 33v81q0 18 4 27.5t11 13.5t26 12l128 46q17 7 39 9
q19 0 32 -5l137 -50q27 -10 34.5 -18.5t7.5 -34.5v-81q0 -27 -8 -33t-34 2l-137 40q-31 8 -62 0z" />
    <glyph glyph-name="edieresis" unicode="&#xeb;" horiz-adv-x="654" 
d="M569 0h-464q-36 0 -36 36v648q0 36 36 36h464q36 0 36 -36v-117q0 -36 -36 -36h-276v-77h195q36 0 36 -36v-107q0 -36 -36 -36h-195v-86h276q36 0 36 -36v-117q0 -36 -36 -36zM543 760h-138q-33 0 -33 33v121q0 33 33 33h138q33 0 33 -33v-121q0 -33 -33 -33zM285 760
h-138q-34 0 -34 33v121q0 33 34 33h138q33 0 33 -33v-121q0 -33 -33 -33z" />
    <glyph glyph-name="igrave" unicode="&#xec;" horiz-adv-x="605" 
d="M89 0q-36 0 -36 36v119q0 36 36 36h99v336h-99q-36 0 -36 36v121q0 36 36 36h426q36 0 36 -36v-121q0 -36 -36 -36h-97v-336h97q36 0 36 -36v-119q0 -36 -36 -36h-426zM477 753l-349 43q-19 2 -27.5 10t-8.5 26v96q0 37 34 33l349 -43q19 -2 27.5 -10t8.5 -26v-96
q0 -37 -34 -33z" />
    <glyph glyph-name="iacute" unicode="&#xed;" horiz-adv-x="605" 
d="M89 0q-36 0 -36 36v119q0 36 36 36h99v336h-99q-36 0 -36 36v121q0 36 36 36h426q36 0 36 -36v-121q0 -36 -36 -36h-97v-336h97q36 0 36 -36v-119q0 -36 -36 -36h-426zM475 796l-349 -43q-34 -4 -34 33v96q0 18 8.5 26t27.5 10l349 43q34 4 34 -33v-96q0 -18 -8.5 -26
t-27.5 -10z" />
    <glyph glyph-name="icircumflex" unicode="&#xee;" horiz-adv-x="605" 
d="M89 0q-36 0 -36 36v119q0 36 36 36h99v336h-99q-36 0 -36 36v121q0 36 36 36h426q36 0 36 -36v-121q0 -36 -36 -36h-97v-336h97q36 0 36 -36v-119q0 -36 -36 -36h-426zM270 797l-137 -40q-25 -8 -33 -2t-8 33v81q0 18 4 27.5t11 13.5t26 12l128 46q17 7 39 9q20 0 32 -5
l137 -50q27 -10 34.5 -18.5t7.5 -34.5v-81q0 -27 -8 -33t-34 2l-137 40q-31 8 -62 0z" />
    <glyph glyph-name="idieresis" unicode="&#xef;" horiz-adv-x="605" 
d="M89 0q-36 0 -36 36v119q0 36 36 36h99v336h-99q-36 0 -36 36v121q0 36 36 36h426q36 0 36 -36v-121q0 -36 -36 -36h-97v-336h97q36 0 36 -36v-119q0 -36 -36 -36h-426zM498 760h-138q-33 0 -33 33v121q0 33 33 33h138q33 0 33 -33v-121q0 -33 -33 -33zM240 760h-138
q-34 0 -34 33v121q0 33 34 33h138q33 0 33 -33v-121q0 -33 -33 -33z" />
    <glyph glyph-name="eth" unicode="&#xf0;" horiz-adv-x="756" 
d="M452 0h-337q-36 0 -36 36v229h-23q-36 0 -36 36v107q0 36 36 36h23v240q0 36 36 36h337q134 0 190 -53t56 -151v-312q0 -98 -56 -151t-190 -53zM303 189h122q28 0 37.5 13t9.5 36v243q0 48 -47 48h-122v-85h41q36 0 36 -36v-107q0 -36 -36 -36h-41v-76z" />
    <glyph glyph-name="ntilde" unicode="&#xf1;" horiz-adv-x="753" 
d="M255 0h-150q-36 0 -36 36v648q0 36 36 36h104q36 0 59 -27l194 -222v213q0 36 36 36h150q36 0 36 -36v-648q0 -36 -36 -36h-150q-36 0 -36 36v123l-171 207v-330q0 -36 -36 -36zM375 764l-28 4q-60 7 -81 5.5t-64 -14.5q-36 -11 -36 26v101q0 17 8 25t28 16
q45 14 71.5 14.5t84.5 -9.5l17 -2l22 -3q69 -9 86.5 -7.5t64.5 15.5q36 10 36 -26v-101q0 -17 -8 -25t-28 -16q-45 -14 -72 -14.5t-85 9.5z" />
    <glyph glyph-name="ograve" unicode="&#xf2;" horiz-adv-x="737" 
d="M679 189q0 -49 -13.5 -84t-47 -63.5t-96 -42.5t-153.5 -14t-153.5 14t-96 42.5t-47.5 63.5t-14 84v341q0 49 14 84t47.5 63.5t96 43t153.5 14.5t153.5 -14.5t96 -43t47 -63.5t13.5 -84v-341zM285 225q0 -23 17 -35t67 -12t67 12t17 35v269q0 23 -17 34.5t-67 11.5
t-67 -12t-17 -34v-269zM543 753l-349 43q-19 2 -27.5 10t-8.5 26v96q0 37 34 33l349 -43q19 -2 27.5 -10t8.5 -26v-96q0 -37 -34 -33z" />
    <glyph glyph-name="oacute" unicode="&#xf3;" horiz-adv-x="737" 
d="M679 189q0 -49 -13.5 -84t-47 -63.5t-96 -42.5t-153.5 -14t-153.5 14t-96 42.5t-47.5 63.5t-14 84v341q0 49 14 84t47.5 63.5t96 43t153.5 14.5t153.5 -14.5t96 -43t47 -63.5t13.5 -84v-341zM285 225q0 -23 17 -35t67 -12t67 12t17 35v269q0 23 -17 34.5t-67 11.5
t-67 -12t-17 -34v-269zM541 796l-349 -43q-34 -4 -34 33v96q0 18 8.5 26t27.5 10l349 43q34 4 34 -33v-96q0 -18 -8.5 -26t-27.5 -10z" />
    <glyph glyph-name="ocircumflex" unicode="&#xf4;" horiz-adv-x="737" 
d="M679 189q0 -49 -13.5 -84t-47 -63.5t-96 -42.5t-153.5 -14t-153.5 14t-96 42.5t-47.5 63.5t-14 84v341q0 49 14 84t47.5 63.5t96 43t153.5 14.5t153.5 -14.5t96 -43t47 -63.5t13.5 -84v-341zM285 225q0 -23 17 -35t67 -12t67 12t17 35v269q0 23 -17 34.5t-67 11.5
t-67 -12t-17 -34v-269zM336 797l-137 -40q-25 -8 -33 -2t-8 33v81q0 18 4 27.5t11 13.5t26 12l128 46q17 7 39 9q20 0 32 -5l137 -50q27 -10 34.5 -18.5t7.5 -34.5v-81q0 -27 -8 -33t-34 2l-137 40q-31 8 -62 0z" />
    <glyph glyph-name="otilde" unicode="&#xf5;" horiz-adv-x="737" 
d="M679 189q0 -49 -13.5 -84t-47 -63.5t-96 -42.5t-153.5 -14t-153.5 14t-96 42.5t-47.5 63.5t-14 84v341q0 49 14 84t47.5 63.5t96 43t153.5 14.5t153.5 -14.5t96 -43t47 -63.5t13.5 -84v-341zM285 225q0 -23 17 -35t67 -12t67 12t17 35v269q0 23 -17 34.5t-67 11.5
t-67 -12t-17 -34v-269zM367 764l-28 4q-60 7 -81 5.5t-64 -14.5q-36 -11 -36 26v101q0 17 8 25t28 16q45 14 71.5 14.5t84.5 -9.5l17 -2l22 -3q69 -9 86.5 -7.5t64.5 15.5q36 10 36 -26v-101q0 -17 -8 -25t-28 -16q-45 -14 -72 -14.5t-85 9.5z" />
    <glyph glyph-name="odieresis" unicode="&#xf6;" horiz-adv-x="737" 
d="M679 189q0 -49 -13.5 -84t-47 -63.5t-96 -42.5t-153.5 -14t-153.5 14t-96 42.5t-47.5 63.5t-14 84v341q0 49 14 84t47.5 63.5t96 43t153.5 14.5t153.5 -14.5t96 -43t47 -63.5t13.5 -84v-341zM285 225q0 -23 17 -35t67 -12t67 12t17 35v269q0 23 -17 34.5t-67 11.5
t-67 -12t-17 -34v-269zM564 760h-138q-33 0 -33 33v121q0 33 33 33h138q33 0 33 -33v-121q0 -33 -33 -33zM306 760h-138q-34 0 -34 33v121q0 33 34 33h138q33 0 33 -33v-121q0 -33 -33 -33z" />
    <glyph glyph-name="divide" unicode="&#xf7;" horiz-adv-x="734" 
d="M448 483h-162q-36 0 -36 36v123q0 36 36 36h162q36 0 36 -36v-123q0 -36 -36 -36zM106 277q-36 0 -36 36v94q0 36 36 36h522q36 0 36 -36v-94q0 -36 -36 -36h-522zM448 42h-162q-36 0 -36 36v123q0 36 36 36h162q36 0 36 -36v-123q0 -36 -36 -36z" />
    <glyph glyph-name="oslash" unicode="&#xf8;" horiz-adv-x="737" 
d="M265 494v-217l116 273h-12q-62 0 -83 -14t-21 -42zM369 168q63 0 83.5 14t20.5 43v221l-118 -278h14zM295 -34q-7 -13 -12 -19.5t-13.5 -11.5t-20.5 -5h-115q-19 0 -26.5 10t0.5 26l27 65q-77 48 -77 158v341q0 49 14 84t47.5 63.5t96 43t153.5 14.5q24 0 64 -2l9 21
q7 13 12 19.5t13.5 11.5t20.5 5h115q19 0 26.5 -10t-0.5 -26l-27 -65q77 -47 77 -159v-341q0 -49 -13.5 -84t-47 -63.5t-96 -42.5t-153.5 -14q-25 0 -65 2z" />
    <glyph glyph-name="ugrave" unicode="&#xf9;" horiz-adv-x="746" 
d="M682 189q0 -49 -14 -84t-47.5 -63.5t-95 -42.5t-152.5 -14t-152.5 14t-95 42.5t-47.5 63.5t-14 84v495q0 36 36 36h157q36 0 36 -36v-456q0 -23 17 -35t65 -12q49 0 66 12t17 35v456q0 36 36 36h152q36 0 36 -36v-495zM538 753l-349 43q-19 2 -27.5 10t-8.5 26v96
q0 37 34 33l349 -43q19 -2 27.5 -10t8.5 -26v-96q0 -37 -34 -33z" />
    <glyph glyph-name="uacute" unicode="&#xfa;" horiz-adv-x="746" 
d="M682 189q0 -49 -14 -84t-47.5 -63.5t-95 -42.5t-152.5 -14t-152.5 14t-95 42.5t-47.5 63.5t-14 84v495q0 36 36 36h157q36 0 36 -36v-456q0 -23 17 -35t65 -12q49 0 66 12t17 35v456q0 36 36 36h152q36 0 36 -36v-495zM556 796l-349 -43q-34 -4 -34 33v96q0 18 8.5 26
t27.5 10l349 43q34 4 34 -33v-96q0 -18 -8.5 -26t-27.5 -10z" />
    <glyph glyph-name="ucircumflex" unicode="&#xfb;" horiz-adv-x="746" 
d="M682 189q0 -49 -14 -84t-47.5 -63.5t-95 -42.5t-152.5 -14t-152.5 14t-95 42.5t-47.5 63.5t-14 84v495q0 36 36 36h157q36 0 36 -36v-456q0 -23 17 -35t65 -12q49 0 66 12t17 35v456q0 36 36 36h152q36 0 36 -36v-495zM341 797l-137 -40q-26 -8 -33.5 -2t-7.5 33v81
q0 18 4 27.5t11 13.5t26 12l128 46q17 7 39 9q19 0 32 -5l137 -50q27 -10 34.5 -18.5t7.5 -34.5v-81q0 -27 -8 -33t-34 2l-137 40q-31 8 -62 0z" />
    <glyph glyph-name="udieresis" unicode="&#xfc;" horiz-adv-x="746" 
d="M682 189q0 -49 -14 -84t-47.5 -63.5t-95 -42.5t-152.5 -14t-152.5 14t-95 42.5t-47.5 63.5t-14 84v495q0 36 36 36h157q36 0 36 -36v-456q0 -23 17 -35t65 -12q49 0 66 12t17 35v456q0 36 36 36h152q36 0 36 -36v-495zM569 760h-138q-33 0 -33 33v121q0 33 33 33h138
q33 0 33 -33v-121q0 -33 -33 -33zM311 760h-138q-34 0 -34 33v121q0 33 34 33h138q33 0 33 -33v-121q0 -33 -33 -33z" />
    <glyph glyph-name="yacute" unicode="&#xfd;" horiz-adv-x="705" 
d="M434 0h-162q-36 0 -36 36v128l-153 205q-24 31 -31 54t-7 69v192q0 36 36 36h154q36 0 36 -36v-164q0 -28 9 -42l46 -72q10 -17 24 -17h10q14 0 24 17l46 72q9 14 9 42v164q0 36 36 36h149q36 0 36 -36v-192q0 -45 -7.5 -68t-30.5 -55l-152 -206v-127q0 -36 -36 -36z
M535 796l-349 -43q-34 -4 -34 33v96q0 18 8.5 26t27.5 10l349 43q34 4 34 -33v-96q0 -18 -8.5 -26t-27.5 -10z" />
    <glyph glyph-name="thorn" unicode="&#xfe;" horiz-adv-x="692" 
d="M260 0h-155q-36 0 -36 36v648q0 36 36 36h155q36 0 36 -36v-64h115q129 0 182.5 -50.5t53.5 -144.5v-128q0 -94 -53.5 -144.5t-182.5 -50.5h-115v-66q0 -36 -36 -36zM294 433v-151h90q47 0 47 49v53q0 49 -47 49h-90z" />
    <glyph glyph-name="ydieresis" unicode="&#xff;" horiz-adv-x="705" 
d="M434 0h-162q-36 0 -36 36v128l-153 205q-24 31 -31 54t-7 69v192q0 36 36 36h154q36 0 36 -36v-164q0 -28 9 -42l46 -72q10 -17 24 -17h10q14 0 24 17l46 72q9 14 9 42v164q0 36 36 36h149q36 0 36 -36v-192q0 -45 -7.5 -68t-30.5 -55l-152 -206v-127q0 -36 -36 -36z
M548 760h-138q-33 0 -33 33v121q0 33 33 33h138q33 0 33 -33v-121q0 -33 -33 -33zM290 760h-138q-34 0 -34 33v121q0 33 34 33h138q33 0 33 -33v-121q0 -33 -33 -33z" />
    <glyph glyph-name="Amacron" unicode="&#x100;" horiz-adv-x="730" 
d="M330 510l-47 -152h157l-47 152q-7 17 -19 17h-25q-12 0 -19 -17zM273 36q0 -36 -36 -36h-147q-36 0 -36 36v264q0 59 39 160l87 227q11 33 51 33h269q39 0 50 -33l87 -227q39 -101 39 -160v-264q0 -36 -36 -36h-151q-39 0 -39 36v140h-177v-140zM538 760h-347
q-36 0 -36 36v93q0 36 36 36h347q36 0 36 -36v-93q0 -36 -36 -36z" />
    <glyph glyph-name="amacron" unicode="&#x101;" horiz-adv-x="730" 
d="M330 510l-47 -152h157l-47 152q-7 17 -19 17h-25q-12 0 -19 -17zM273 36q0 -36 -36 -36h-147q-36 0 -36 36v264q0 59 39 160l87 227q11 33 51 33h269q39 0 50 -33l87 -227q39 -101 39 -160v-264q0 -36 -36 -36h-151q-39 0 -39 36v140h-177v-140zM538 760h-347
q-36 0 -36 36v93q0 36 36 36h347q36 0 36 -36v-93q0 -36 -36 -36z" />
    <glyph glyph-name="Abreve" unicode="&#x102;" horiz-adv-x="730" 
d="M330 510l-47 -152h157l-47 152q-7 17 -19 17h-25q-12 0 -19 -17zM273 36q0 -36 -36 -36h-147q-36 0 -36 36v264q0 59 39 160l87 227q11 33 51 33h269q39 0 50 -33l87 -227q39 -101 39 -160v-264q0 -36 -36 -36h-151q-39 0 -39 36v140h-177v-140zM582 897
q0 -70 -47.5 -106.5t-169.5 -36.5t-169.5 36.5t-47.5 106.5v44q0 36 36 36h96q16 0 22.5 -6.5t6.5 -24.5v-21q0 -16 11.5 -24.5t45.5 -8.5q35 0 47 8.5t12 24.5v21q0 18 6.5 24.5t23.5 6.5h91q36 0 36 -36v-44z" />
    <glyph glyph-name="abreve" unicode="&#x103;" horiz-adv-x="730" 
d="M330 510l-47 -152h157l-47 152q-7 17 -19 17h-25q-12 0 -19 -17zM273 36q0 -36 -36 -36h-147q-36 0 -36 36v264q0 59 39 160l87 227q11 33 51 33h269q39 0 50 -33l87 -227q39 -101 39 -160v-264q0 -36 -36 -36h-151q-39 0 -39 36v140h-177v-140zM582 897
q0 -70 -47.5 -106.5t-169.5 -36.5t-169.5 36.5t-47.5 106.5v44q0 36 36 36h96q16 0 22.5 -6.5t6.5 -24.5v-21q0 -16 11.5 -24.5t45.5 -8.5q35 0 47 8.5t12 24.5v21q0 18 6.5 24.5t23.5 6.5h91q36 0 36 -36v-44z" />
    <glyph glyph-name="Aogonek" unicode="&#x104;" horiz-adv-x="730" 
d="M676 -152q0 -20 -7 -27t-26 -7h-111q-64 0 -88 32.5t-13 102.5l19 107v120h-177v-140q0 -36 -36 -36h-147q-36 0 -36 36v264q0 59 39 160l87 227q11 33 51 33h269q39 0 50 -33l87 -227q39 -101 39 -160v-264q0 -36 -36 -36h-34l-7 -46h41q21 0 28.5 -7t7.5 -27v-72z
M330 510l-47 -152h157l-47 152q-7 17 -19 17h-25q-12 0 -19 -17z" />
    <glyph glyph-name="aogonek" unicode="&#x105;" horiz-adv-x="730" 
d="M676 -152q0 -20 -7 -27t-26 -7h-111q-64 0 -88 32.5t-13 102.5l19 107v120h-177v-140q0 -36 -36 -36h-147q-36 0 -36 36v264q0 59 39 160l87 227q11 33 51 33h269q39 0 50 -33l87 -227q39 -101 39 -160v-264q0 -36 -36 -36h-34l-7 -46h41q21 0 28.5 -7t7.5 -27v-72z
M330 510l-47 -152h157l-47 152q-7 17 -19 17h-25q-12 0 -19 -17z" />
    <glyph glyph-name="Cacute" unicode="&#x106;" horiz-adv-x="628" 
d="M548 0h-244q-126 0 -186 50t-60 154v311q0 105 60 155t186 50h244q36 0 36 -36v-121q0 -36 -36 -36h-201q-61 0 -61 -50v-238q0 -48 61 -48h201q36 0 36 -36v-119q0 -36 -36 -36zM548 796l-349 -43q-34 -4 -34 33v96q0 18 8.5 26t27.5 10l349 43q34 4 34 -33v-96
q0 -18 -8.5 -26t-27.5 -10z" />
    <glyph glyph-name="cacute" unicode="&#x107;" horiz-adv-x="628" 
d="M548 0h-244q-126 0 -186 50t-60 154v311q0 105 60 155t186 50h244q36 0 36 -36v-121q0 -36 -36 -36h-201q-61 0 -61 -50v-238q0 -48 61 -48h201q36 0 36 -36v-119q0 -36 -36 -36zM548 796l-349 -43q-34 -4 -34 33v96q0 18 8.5 26t27.5 10l349 43q34 4 34 -33v-96
q0 -18 -8.5 -26t-27.5 -10z" />
    <glyph glyph-name="Ccircumflex" unicode="&#x108;" horiz-adv-x="628" 
d="M548 0h-244q-126 0 -186 50t-60 154v311q0 105 60 155t186 50h244q36 0 36 -36v-121q0 -36 -36 -36h-201q-61 0 -61 -50v-238q0 -48 61 -48h201q36 0 36 -36v-119q0 -36 -36 -36zM313 797l-137 -40q-26 -8 -33.5 -2t-7.5 33v81q0 18 4 27.5t11 13.5t26 12l128 46
q17 7 39 9q19 0 32 -5l137 -50q27 -10 34.5 -18.5t7.5 -34.5v-81q0 -27 -8 -33t-34 2l-137 40q-31 8 -62 0z" />
    <glyph glyph-name="ccircumflex" unicode="&#x109;" horiz-adv-x="628" 
d="M548 0h-244q-126 0 -186 50t-60 154v311q0 105 60 155t186 50h244q36 0 36 -36v-121q0 -36 -36 -36h-201q-61 0 -61 -50v-238q0 -48 61 -48h201q36 0 36 -36v-119q0 -36 -36 -36zM313 797l-137 -40q-26 -8 -33.5 -2t-7.5 33v81q0 18 4 27.5t11 13.5t26 12l128 46
q17 7 39 9q19 0 32 -5l137 -50q27 -10 34.5 -18.5t7.5 -34.5v-81q0 -27 -8 -33t-34 2l-137 40q-31 8 -62 0z" />
    <glyph glyph-name="Cdotaccent" unicode="&#x10a;" horiz-adv-x="628" 
d="M548 0h-244q-126 0 -186 50t-60 154v311q0 105 60 155t186 50h244q36 0 36 -36v-121q0 -36 -36 -36h-201q-61 0 -61 -50v-238q0 -48 61 -48h201q36 0 36 -36v-119q0 -36 -36 -36zM435 760h-158q-36 0 -36 36v127q0 36 36 36h158q36 0 36 -36v-127q0 -36 -36 -36z" />
    <glyph glyph-name="cdotaccent" unicode="&#x10b;" horiz-adv-x="628" 
d="M548 0h-244q-126 0 -186 50t-60 154v311q0 105 60 155t186 50h244q36 0 36 -36v-121q0 -36 -36 -36h-201q-61 0 -61 -50v-238q0 -48 61 -48h201q36 0 36 -36v-119q0 -36 -36 -36zM435 760h-158q-36 0 -36 36v127q0 36 36 36h158q36 0 36 -36v-127q0 -36 -36 -36z" />
    <glyph glyph-name="Ccaron" unicode="&#x10c;" horiz-adv-x="628" 
d="M548 0h-244q-126 0 -186 50t-60 154v311q0 105 60 155t186 50h244q36 0 36 -36v-121q0 -36 -36 -36h-201q-61 0 -61 -50v-238q0 -48 61 -48h201q36 0 36 -36v-119q0 -36 -36 -36zM376 932l137 40q25 8 33 2t8 -33v-81q0 -18 -4 -27.5t-11 -13.5t-26 -12l-128 -46
q-17 -7 -39 -9q-19 0 -32 5l-137 50q-27 10 -34.5 18.5t-7.5 34.5v81q0 27 8 33t34 -2l137 -40q31 -8 62 0z" />
    <glyph glyph-name="ccaron" unicode="&#x10d;" horiz-adv-x="628" 
d="M548 0h-244q-126 0 -186 50t-60 154v311q0 105 60 155t186 50h244q36 0 36 -36v-121q0 -36 -36 -36h-201q-61 0 -61 -50v-238q0 -48 61 -48h201q36 0 36 -36v-119q0 -36 -36 -36zM376 932l137 40q25 8 33 2t8 -33v-81q0 -18 -4 -27.5t-11 -13.5t-26 -12l-128 -46
q-17 -7 -39 -9q-19 0 -32 5l-137 50q-27 10 -34.5 18.5t-7.5 34.5v81q0 27 8 33t34 -2l137 -40q31 -8 62 0z" />
    <glyph glyph-name="Dcaron" unicode="&#x10e;" horiz-adv-x="746" 
d="M442 0h-337q-36 0 -36 36v648q0 36 36 36h337q126 0 186 -50t60 -154v-312q0 -104 -60 -154t-186 -50zM296 529v-340h119q47 0 47 49v243q0 48 -47 48h-119zM404 932l137 40q25 8 33 2t8 -33v-81q0 -18 -4 -27.5t-11 -13.5t-26 -12l-128 -46q-17 -7 -39 -9q-20 0 -32 5
l-137 50q-27 10 -34.5 18.5t-7.5 34.5v81q0 27 8 33t34 -2l137 -40q31 -8 62 0z" />
    <glyph glyph-name="dcaron" unicode="&#x10f;" horiz-adv-x="746" 
d="M442 0h-337q-36 0 -36 36v648q0 36 36 36h337q126 0 186 -50t60 -154v-312q0 -104 -60 -154t-186 -50zM296 529v-340h119q47 0 47 49v243q0 48 -47 48h-119zM404 932l137 40q25 8 33 2t8 -33v-81q0 -18 -4 -27.5t-11 -13.5t-26 -12l-128 -46q-17 -7 -39 -9q-20 0 -32 5
l-137 50q-27 10 -34.5 18.5t-7.5 34.5v81q0 27 8 33t34 -2l137 -40q31 -8 62 0z" />
    <glyph glyph-name="Dcroat" unicode="&#x110;" horiz-adv-x="756" 
d="M452 0h-337q-36 0 -36 36v229h-23q-36 0 -36 36v107q0 36 36 36h23v240q0 36 36 36h337q134 0 190 -53t56 -151v-312q0 -98 -56 -151t-190 -53zM303 189h122q28 0 37.5 13t9.5 36v243q0 48 -47 48h-122v-85h41q36 0 36 -36v-107q0 -36 -36 -36h-41v-76z" />
    <glyph glyph-name="dcroat" unicode="&#x111;" horiz-adv-x="756" 
d="M452 0h-337q-36 0 -36 36v229h-23q-36 0 -36 36v107q0 36 36 36h23v240q0 36 36 36h337q134 0 190 -53t56 -151v-312q0 -98 -56 -151t-190 -53zM303 189h122q28 0 37.5 13t9.5 36v243q0 48 -47 48h-122v-85h41q36 0 36 -36v-107q0 -36 -36 -36h-41v-76z" />
    <glyph glyph-name="Emacron" unicode="&#x112;" horiz-adv-x="654" 
d="M569 0h-464q-36 0 -36 36v648q0 36 36 36h464q36 0 36 -36v-117q0 -36 -36 -36h-276v-77h195q36 0 36 -36v-107q0 -36 -36 -36h-195v-86h276q36 0 36 -36v-117q0 -36 -36 -36zM510 760h-347q-36 0 -36 36v93q0 36 36 36h347q36 0 36 -36v-93q0 -36 -36 -36z" />
    <glyph glyph-name="emacron" unicode="&#x113;" horiz-adv-x="654" 
d="M569 0h-464q-36 0 -36 36v648q0 36 36 36h464q36 0 36 -36v-117q0 -36 -36 -36h-276v-77h195q36 0 36 -36v-107q0 -36 -36 -36h-195v-86h276q36 0 36 -36v-117q0 -36 -36 -36zM510 760h-347q-36 0 -36 36v93q0 36 36 36h347q36 0 36 -36v-93q0 -36 -36 -36z" />
    <glyph glyph-name="Ebreve" unicode="&#x114;" horiz-adv-x="654" 
d="M569 0h-464q-36 0 -36 36v648q0 36 36 36h464q36 0 36 -36v-117q0 -36 -36 -36h-276v-77h195q36 0 36 -36v-107q0 -36 -36 -36h-195v-86h276q36 0 36 -36v-117q0 -36 -36 -36zM564 897q0 -70 -47.5 -106.5t-169.5 -36.5t-169.5 36.5t-47.5 106.5v44q0 36 36 36h96
q16 0 22.5 -6.5t6.5 -24.5v-21q0 -16 11.5 -24.5t45.5 -8.5q35 0 47 8.5t12 24.5v21q0 18 6.5 24.5t23.5 6.5h91q36 0 36 -36v-44z" />
    <glyph glyph-name="ebreve" unicode="&#x115;" horiz-adv-x="654" 
d="M569 0h-464q-36 0 -36 36v648q0 36 36 36h464q36 0 36 -36v-117q0 -36 -36 -36h-276v-77h195q36 0 36 -36v-107q0 -36 -36 -36h-195v-86h276q36 0 36 -36v-117q0 -36 -36 -36zM564 897q0 -70 -47.5 -106.5t-169.5 -36.5t-169.5 36.5t-47.5 106.5v44q0 36 36 36h96
q16 0 22.5 -6.5t6.5 -24.5v-21q0 -16 11.5 -24.5t45.5 -8.5q35 0 47 8.5t12 24.5v21q0 18 6.5 24.5t23.5 6.5h91q36 0 36 -36v-44z" />
    <glyph glyph-name="Edotaccent" unicode="&#x116;" horiz-adv-x="654" 
d="M569 0h-464q-36 0 -36 36v648q0 36 36 36h464q36 0 36 -36v-117q0 -36 -36 -36h-276v-77h195q36 0 36 -36v-107q0 -36 -36 -36h-195v-86h276q36 0 36 -36v-117q0 -36 -36 -36zM405 760h-158q-36 0 -36 36v127q0 36 36 36h158q36 0 36 -36v-127q0 -36 -36 -36z" />
    <glyph glyph-name="edotaccent" unicode="&#x117;" horiz-adv-x="654" 
d="M569 0h-464q-36 0 -36 36v648q0 36 36 36h464q36 0 36 -36v-117q0 -36 -36 -36h-276v-77h195q36 0 36 -36v-107q0 -36 -36 -36h-195v-86h276q36 0 36 -36v-117q0 -36 -36 -36zM405 760h-158q-36 0 -36 36v127q0 36 36 36h158q36 0 36 -36v-127q0 -36 -36 -36z" />
    <glyph glyph-name="Eogonek" unicode="&#x118;" horiz-adv-x="654" 
d="M605 -152q0 -20 -7 -27t-26 -7h-111q-64 0 -88 32.5t-13 102.5l9 51h-264q-36 0 -36 36v648q0 36 36 36h464q36 0 36 -36v-117q0 -36 -36 -36h-276v-77h195q36 0 36 -36v-107q0 -36 -36 -36h-195v-86h276q36 0 36 -36v-117q0 -36 -36 -36h-34l-7 -46h41q21 0 28.5 -7
t7.5 -27v-72z" />
    <glyph glyph-name="eogonek" unicode="&#x119;" horiz-adv-x="654" 
d="M605 -152q0 -20 -7 -27t-26 -7h-111q-64 0 -88 32.5t-13 102.5l9 51h-264q-36 0 -36 36v648q0 36 36 36h464q36 0 36 -36v-117q0 -36 -36 -36h-276v-77h195q36 0 36 -36v-107q0 -36 -36 -36h-195v-86h276q36 0 36 -36v-117q0 -36 -36 -36h-34l-7 -46h41q21 0 28.5 -7
t7.5 -27v-72z" />
    <glyph glyph-name="Ecaron" unicode="&#x11a;" horiz-adv-x="654" 
d="M569 0h-464q-36 0 -36 36v648q0 36 36 36h464q36 0 36 -36v-117q0 -36 -36 -36h-276v-77h195q36 0 36 -36v-107q0 -36 -36 -36h-195v-86h276q36 0 36 -36v-117q0 -36 -36 -36zM375 932l137 40q26 8 33.5 2t7.5 -33v-81q0 -18 -4 -27.5t-11 -13.5t-26 -12l-128 -46
q-17 -7 -39 -9q-20 0 -32 5l-137 50q-27 10 -34.5 18.5t-7.5 34.5v81q0 27 8 33t34 -2l137 -40q31 -8 62 0z" />
    <glyph glyph-name="ecaron" unicode="&#x11b;" horiz-adv-x="654" 
d="M569 0h-464q-36 0 -36 36v648q0 36 36 36h464q36 0 36 -36v-117q0 -36 -36 -36h-276v-77h195q36 0 36 -36v-107q0 -36 -36 -36h-195v-86h276q36 0 36 -36v-117q0 -36 -36 -36zM375 932l137 40q26 8 33.5 2t7.5 -33v-81q0 -18 -4 -27.5t-11 -13.5t-26 -12l-128 -46
q-17 -7 -39 -9q-20 0 -32 5l-137 50q-27 10 -34.5 18.5t-7.5 34.5v81q0 27 8 33t34 -2l137 -40q31 -8 62 0z" />
    <glyph glyph-name="Gcircumflex" unicode="&#x11c;" horiz-adv-x="708" 
d="M619 0h-315q-126 0 -186 50t-60 154v312q0 104 60 154t186 50h250q36 0 36 -36v-121q0 -36 -36 -36h-208q-61 0 -61 -50v-239q0 -49 46 -49h97v156q0 36 36 36h155q36 0 36 -36v-309q0 -36 -36 -36zM349 797l-137 -40q-26 -8 -33.5 -2t-7.5 33v81q0 18 4 27.5t11 13.5
t26 12l128 46q17 7 39 9q19 0 32 -5l137 -50q27 -10 34.5 -18.5t7.5 -34.5v-81q0 -27 -8 -33t-34 2l-137 40q-31 8 -62 0z" />
    <glyph glyph-name="gcircumflex" unicode="&#x11d;" horiz-adv-x="708" 
d="M619 0h-315q-126 0 -186 50t-60 154v312q0 104 60 154t186 50h250q36 0 36 -36v-121q0 -36 -36 -36h-208q-61 0 -61 -50v-239q0 -49 46 -49h97v156q0 36 36 36h155q36 0 36 -36v-309q0 -36 -36 -36zM349 797l-137 -40q-26 -8 -33.5 -2t-7.5 33v81q0 18 4 27.5t11 13.5
t26 12l128 46q17 7 39 9q19 0 32 -5l137 -50q27 -10 34.5 -18.5t7.5 -34.5v-81q0 -27 -8 -33t-34 2l-137 40q-31 8 -62 0z" />
    <glyph glyph-name="Gbreve" unicode="&#x11e;" horiz-adv-x="708" 
d="M619 0h-315q-126 0 -186 50t-60 154v312q0 104 60 154t186 50h250q36 0 36 -36v-121q0 -36 -36 -36h-208q-61 0 -61 -50v-239q0 -49 46 -49h97v156q0 36 36 36h155q36 0 36 -36v-309q0 -36 -36 -36zM591 897q0 -70 -47.5 -106.5t-169.5 -36.5t-169.5 36.5t-47.5 106.5v44
q0 36 36 36h96q16 0 22.5 -6.5t6.5 -24.5v-21q0 -16 11.5 -24.5t45.5 -8.5q35 0 47 8.5t12 24.5v21q0 18 6.5 24.5t23.5 6.5h91q36 0 36 -36v-44z" />
    <glyph glyph-name="gbreve" unicode="&#x11f;" horiz-adv-x="708" 
d="M619 0h-315q-126 0 -186 50t-60 154v312q0 104 60 154t186 50h250q36 0 36 -36v-121q0 -36 -36 -36h-208q-61 0 -61 -50v-239q0 -49 46 -49h97v156q0 36 36 36h155q36 0 36 -36v-309q0 -36 -36 -36zM591 897q0 -70 -47.5 -106.5t-169.5 -36.5t-169.5 36.5t-47.5 106.5v44
q0 36 36 36h96q16 0 22.5 -6.5t6.5 -24.5v-21q0 -16 11.5 -24.5t45.5 -8.5q35 0 47 8.5t12 24.5v21q0 18 6.5 24.5t23.5 6.5h91q36 0 36 -36v-44z" />
    <glyph glyph-name="Gdotaccent" unicode="&#x120;" horiz-adv-x="708" 
d="M619 0h-315q-126 0 -186 50t-60 154v312q0 104 60 154t186 50h250q36 0 36 -36v-121q0 -36 -36 -36h-208q-61 0 -61 -50v-239q0 -49 46 -49h97v156q0 36 36 36h155q36 0 36 -36v-309q0 -36 -36 -36zM454 760h-158q-36 0 -36 36v127q0 36 36 36h158q36 0 36 -36v-127
q0 -36 -36 -36z" />
    <glyph glyph-name="gdotaccent" unicode="&#x121;" horiz-adv-x="708" 
d="M619 0h-315q-126 0 -186 50t-60 154v312q0 104 60 154t186 50h250q36 0 36 -36v-121q0 -36 -36 -36h-208q-61 0 -61 -50v-239q0 -49 46 -49h97v156q0 36 36 36h155q36 0 36 -36v-309q0 -36 -36 -36zM454 760h-158q-36 0 -36 36v127q0 36 36 36h158q36 0 36 -36v-127
q0 -36 -36 -36z" />
    <glyph glyph-name="Gcommaaccent" unicode="&#x122;" horiz-adv-x="708" 
d="M619 0h-315q-126 0 -186 50t-60 154v312q0 104 60 154t186 50h250q36 0 36 -36v-121q0 -36 -36 -36h-208q-61 0 -61 -50v-239q0 -49 46 -49h97v156q0 36 36 36h155q36 0 36 -36v-309q0 -36 -36 -36zM365 -362h-66q-30 0 -30 31v34q0 30 30 30h59q23 0 23 24v13h-86
q-21 0 -29 8.5t-8 30.5v109q0 22 8 30.5t29 8.5h158q21 0 29 -8.5t8 -30.5v-152q0 -63 -33 -95.5t-92 -32.5z" />
    <glyph glyph-name="gcommaaccent" unicode="&#x123;" horiz-adv-x="708" 
d="M619 0h-315q-126 0 -186 50t-60 154v312q0 104 60 154t186 50h250q36 0 36 -36v-121q0 -36 -36 -36h-208q-61 0 -61 -50v-239q0 -49 46 -49h97v156q0 36 36 36h155q36 0 36 -36v-309q0 -36 -36 -36zM365 -362h-66q-30 0 -30 31v34q0 30 30 30h59q23 0 23 24v13h-86
q-21 0 -29 8.5t-8 30.5v109q0 22 8 30.5t29 8.5h158q21 0 29 -8.5t8 -30.5v-152q0 -63 -33 -95.5t-92 -32.5z" />
    <glyph glyph-name="Hcircumflex" unicode="&#x124;" horiz-adv-x="759" 
d="M260 0h-155q-36 0 -36 36v648q0 36 36 36h155q36 0 36 -36v-217h167v217q0 36 36 36h155q36 0 36 -36v-648q0 -36 -36 -36h-155q-36 0 -36 36v222h-167v-222q0 -36 -36 -36zM347 797l-137 -40q-26 -8 -33.5 -2t-7.5 33v81q0 18 4 27.5t11 13.5t26 12l128 46q17 7 39 9
q20 0 32 -5l137 -50q27 -10 34.5 -18.5t7.5 -34.5v-81q0 -27 -8 -33t-34 2l-137 40q-31 8 -62 0z" />
    <glyph glyph-name="hcircumflex" unicode="&#x125;" horiz-adv-x="759" 
d="M260 0h-155q-36 0 -36 36v648q0 36 36 36h155q36 0 36 -36v-217h167v217q0 36 36 36h155q36 0 36 -36v-648q0 -36 -36 -36h-155q-36 0 -36 36v222h-167v-222q0 -36 -36 -36zM347 797l-137 -40q-26 -8 -33.5 -2t-7.5 33v81q0 18 4 27.5t11 13.5t26 12l128 46q17 7 39 9
q20 0 32 -5l137 -50q27 -10 34.5 -18.5t7.5 -34.5v-81q0 -27 -8 -33t-34 2l-137 40q-31 8 -62 0z" />
    <glyph glyph-name="Hbar" unicode="&#x126;" horiz-adv-x="779" 
d="M303 347h173v78h-173v-78zM303 36q0 -36 -36 -36h-152q-36 0 -36 36v389h-13q-36 0 -36 36v97q0 36 36 36h13v90q0 36 36 36h152q36 0 36 -36v-90h173v90q0 36 36 36h152q36 0 36 -36v-90h13q36 0 36 -36v-97q0 -36 -36 -36h-13v-389q0 -36 -36 -36h-152q-36 0 -36 36
v112h-173v-112z" />
    <glyph glyph-name="hbar" unicode="&#x127;" horiz-adv-x="779" 
d="M303 347h173v78h-173v-78zM303 36q0 -36 -36 -36h-152q-36 0 -36 36v389h-13q-36 0 -36 36v97q0 36 36 36h13v90q0 36 36 36h152q36 0 36 -36v-90h173v90q0 36 36 36h152q36 0 36 -36v-90h13q36 0 36 -36v-97q0 -36 -36 -36h-13v-389q0 -36 -36 -36h-152q-36 0 -36 36
v112h-173v-112z" />
    <glyph glyph-name="Itilde" unicode="&#x128;" horiz-adv-x="605" 
d="M89 0q-36 0 -36 36v119q0 36 36 36h99v336h-99q-36 0 -36 36v121q0 36 36 36h426q36 0 36 -36v-121q0 -36 -36 -36h-97v-336h97q36 0 36 -36v-119q0 -36 -36 -36h-426zM301 764l-28 4q-60 7 -81 5.5t-64 -14.5q-36 -11 -36 26v101q0 17 8 25t28 16q45 14 71.5 14.5
t84.5 -9.5l17 -2l22 -3q69 -9 86.5 -7.5t64.5 15.5q36 10 36 -26v-101q0 -17 -8 -25t-28 -16q-45 -14 -72 -14.5t-85 9.5z" />
    <glyph glyph-name="itilde" unicode="&#x129;" horiz-adv-x="605" 
d="M89 0q-36 0 -36 36v119q0 36 36 36h99v336h-99q-36 0 -36 36v121q0 36 36 36h426q36 0 36 -36v-121q0 -36 -36 -36h-97v-336h97q36 0 36 -36v-119q0 -36 -36 -36h-426zM301 764l-28 4q-60 7 -81 5.5t-64 -14.5q-36 -11 -36 26v101q0 17 8 25t28 16q45 14 71.5 14.5
t84.5 -9.5l17 -2l22 -3q69 -9 86.5 -7.5t64.5 15.5q36 10 36 -26v-101q0 -17 -8 -25t-28 -16q-45 -14 -72 -14.5t-85 9.5z" />
    <glyph glyph-name="Imacron" unicode="&#x12a;" horiz-adv-x="605" 
d="M89 0q-36 0 -36 36v119q0 36 36 36h99v336h-99q-36 0 -36 36v121q0 36 36 36h426q36 0 36 -36v-121q0 -36 -36 -36h-97v-336h97q36 0 36 -36v-119q0 -36 -36 -36h-426zM475 760h-347q-36 0 -36 36v93q0 36 36 36h347q36 0 36 -36v-93q0 -36 -36 -36z" />
    <glyph glyph-name="imacron" unicode="&#x12b;" horiz-adv-x="605" 
d="M89 0q-36 0 -36 36v119q0 36 36 36h99v336h-99q-36 0 -36 36v121q0 36 36 36h426q36 0 36 -36v-121q0 -36 -36 -36h-97v-336h97q36 0 36 -36v-119q0 -36 -36 -36h-426zM475 760h-347q-36 0 -36 36v93q0 36 36 36h347q36 0 36 -36v-93q0 -36 -36 -36z" />
    <glyph glyph-name="Ibreve" unicode="&#x12c;" horiz-adv-x="605" 
d="M89 0q-36 0 -36 36v119q0 36 36 36h99v336h-99q-36 0 -36 36v121q0 36 36 36h426q36 0 36 -36v-121q0 -36 -36 -36h-97v-336h97q36 0 36 -36v-119q0 -36 -36 -36h-426zM519 897q0 -70 -47.5 -106.5t-169.5 -36.5t-169.5 36.5t-47.5 106.5v44q0 36 36 36h96
q16 0 22.5 -6.5t6.5 -24.5v-21q0 -16 11.5 -24.5t45.5 -8.5q35 0 47 8.5t12 24.5v21q0 18 6.5 24.5t23.5 6.5h91q36 0 36 -36v-44z" />
    <glyph glyph-name="ibreve" unicode="&#x12d;" horiz-adv-x="605" 
d="M89 0q-36 0 -36 36v119q0 36 36 36h99v336h-99q-36 0 -36 36v121q0 36 36 36h426q36 0 36 -36v-121q0 -36 -36 -36h-97v-336h97q36 0 36 -36v-119q0 -36 -36 -36h-426zM519 897q0 -70 -47.5 -106.5t-169.5 -36.5t-169.5 36.5t-47.5 106.5v44q0 36 36 36h96
q16 0 22.5 -6.5t6.5 -24.5v-21q0 -16 11.5 -24.5t45.5 -8.5q35 0 47 8.5t12 24.5v21q0 18 6.5 24.5t23.5 6.5h91q36 0 36 -36v-44z" />
    <glyph glyph-name="Iogonek" unicode="&#x12e;" horiz-adv-x="605" 
d="M551 -152q0 -20 -7 -27t-26 -7h-111q-64 0 -88 32.5t-13 102.5l9 51h-226q-36 0 -36 36v119q0 36 36 36h99v336h-99q-36 0 -36 36v121q0 36 36 36h426q36 0 36 -36v-121q0 -36 -36 -36h-97v-336h97q36 0 36 -36v-119q0 -36 -36 -36h-34l-7 -46h41q21 0 28.5 -7t7.5 -27
v-72z" />
    <glyph glyph-name="iogonek" unicode="&#x12f;" horiz-adv-x="605" 
d="M551 -152q0 -20 -7 -27t-26 -7h-111q-64 0 -88 32.5t-13 102.5l9 51h-226q-36 0 -36 36v119q0 36 36 36h99v336h-99q-36 0 -36 36v121q0 36 36 36h426q36 0 36 -36v-121q0 -36 -36 -36h-97v-336h97q36 0 36 -36v-119q0 -36 -36 -36h-34l-7 -46h41q21 0 28.5 -7t7.5 -27
v-72z" />
    <glyph glyph-name="Idotaccent" unicode="&#x130;" horiz-adv-x="605" 
d="M89 0q-36 0 -36 36v119q0 36 36 36h99v336h-99q-36 0 -36 36v121q0 36 36 36h426q36 0 36 -36v-121q0 -36 -36 -36h-97v-336h97q36 0 36 -36v-119q0 -36 -36 -36h-426zM382 760h-158q-36 0 -36 36v127q0 36 36 36h158q36 0 36 -36v-127q0 -36 -36 -36z" />
    <glyph glyph-name="dotlessi" unicode="&#x131;" horiz-adv-x="605" 
d="M89 0q-36 0 -36 36v119q0 36 36 36h99v336h-99q-36 0 -36 36v121q0 36 36 36h426q36 0 36 -36v-121q0 -36 -36 -36h-97v-336h97q36 0 36 -36v-119q0 -36 -36 -36h-426z" />
    <glyph glyph-name="IJ" unicode="&#x132;" horiz-adv-x="744" 
d="M260 310h-155q-36 0 -36 36v338q0 36 36 36h155q36 0 36 -36v-338q0 -36 -36 -36zM69 36v121q0 36 36 36h275q73 0 73 67v424q0 36 36 36h155q36 0 36 -36v-474q0 -99 -57 -154.5t-156 -55.5h-362q-36 0 -36 36z" />
    <glyph glyph-name="ij" unicode="&#x133;" horiz-adv-x="744" 
d="M260 310h-155q-36 0 -36 36v338q0 36 36 36h155q36 0 36 -36v-338q0 -36 -36 -36zM69 36v121q0 36 36 36h275q73 0 73 67v424q0 36 36 36h155q36 0 36 -36v-474q0 -99 -57 -154.5t-156 -55.5h-362q-36 0 -36 36z" />
    <glyph glyph-name="Jcircumflex" unicode="&#x134;" horiz-adv-x="688" 
d="M624 189q0 -49 -13 -84t-45 -63.5t-90.5 -42.5t-144.5 -14q-85 0 -143 14t-89.5 42.5t-44.5 63.5t-13 84v162q0 36 36 36h145q36 0 36 -36v-122q0 -23 14 -35t57 -12q40 0 53 12t13 35v455q0 36 36 36h157q36 0 36 -36v-495zM470 797l-137 -40q-25 -8 -33 -2t-8 33v81
q0 18 4 27.5t11 13.5t26 12l128 46q17 7 39 9q20 0 32 -5l137 -50q27 -10 34.5 -18.5t7.5 -34.5v-81q0 -27 -8 -33t-34 2l-137 40q-31 8 -62 0z" />
    <glyph glyph-name="jcircumflex" unicode="&#x135;" horiz-adv-x="688" 
d="M624 189q0 -49 -13 -84t-45 -63.5t-90.5 -42.5t-144.5 -14q-85 0 -143 14t-89.5 42.5t-44.5 63.5t-13 84v162q0 36 36 36h145q36 0 36 -36v-122q0 -23 14 -35t57 -12q40 0 53 12t13 35v455q0 36 36 36h157q36 0 36 -36v-495zM470 797l-137 -40q-25 -8 -33 -2t-8 33v81
q0 18 4 27.5t11 13.5t26 12l128 46q17 7 39 9q20 0 32 -5l137 -50q27 -10 34.5 -18.5t7.5 -34.5v-81q0 -27 -8 -33t-34 2l-137 40q-31 8 -62 0z" />
    <glyph glyph-name="Kcommaaccent" unicode="&#x136;" horiz-adv-x="746" 
d="M260 0h-155q-36 0 -36 36v648q0 36 36 36h155q36 0 36 -36v-230h40l103 233q14 33 50 33h154q36 0 22 -33l-102 -233q56 -3 89.5 -39.5t33.5 -96.5v-282q0 -36 -36 -36h-154q-36 0 -36 36v195q0 34 -32 34h-132v-229q0 -36 -36 -36zM364 -362h-66q-30 0 -30 31v34
q0 30 30 30h59q23 0 23 24v13h-86q-21 0 -29 8.5t-8 30.5v109q0 22 8 30.5t29 8.5h158q21 0 29 -8.5t8 -30.5v-152q0 -63 -33 -95.5t-92 -32.5z" />
    <glyph glyph-name="kcommaaccent" unicode="&#x137;" horiz-adv-x="746" 
d="M260 0h-155q-36 0 -36 36v648q0 36 36 36h155q36 0 36 -36v-230h40l103 233q14 33 50 33h154q36 0 22 -33l-102 -233q56 -3 89.5 -39.5t33.5 -96.5v-282q0 -36 -36 -36h-154q-36 0 -36 36v195q0 34 -32 34h-132v-229q0 -36 -36 -36zM364 -362h-66q-30 0 -30 31v34
q0 30 30 30h59q23 0 23 24v13h-86q-21 0 -29 8.5t-8 30.5v109q0 22 8 30.5t29 8.5h158q21 0 29 -8.5t8 -30.5v-152q0 -63 -33 -95.5t-92 -32.5z" />
    <glyph glyph-name="kgreenlandic" unicode="&#x138;" horiz-adv-x="746" 
d="M260 0h-155q-36 0 -36 36v648q0 36 36 36h155q36 0 36 -36v-230h40l103 233q14 33 50 33h154q36 0 22 -33l-102 -233q56 -3 89.5 -39.5t33.5 -96.5v-282q0 -36 -36 -36h-154q-36 0 -36 36v195q0 34 -32 34h-132v-229q0 -36 -36 -36z" />
    <glyph glyph-name="Lacute" unicode="&#x139;" horiz-adv-x="695" 
d="M614 0h-509q-36 0 -36 36v648q0 36 36 36h155q36 0 36 -36v-495h137v162q0 36 36 36h145q36 0 36 -36v-315q0 -36 -36 -36zM452 796l-349 -43q-34 -4 -34 33v96q0 18 8.5 26t27.5 10l349 43q34 4 34 -33v-96q0 -18 -8.5 -26t-27.5 -10z" />
    <glyph glyph-name="lacute" unicode="&#x13a;" horiz-adv-x="695" 
d="M614 0h-509q-36 0 -36 36v648q0 36 36 36h155q36 0 36 -36v-495h137v162q0 36 36 36h145q36 0 36 -36v-315q0 -36 -36 -36zM452 796l-349 -43q-34 -4 -34 33v96q0 18 8.5 26t27.5 10l349 43q34 4 34 -33v-96q0 -18 -8.5 -26t-27.5 -10z" />
    <glyph glyph-name="Lcommaaccent" unicode="&#x13b;" horiz-adv-x="695" 
d="M614 0h-509q-36 0 -36 36v648q0 36 36 36h155q36 0 36 -36v-495h137v162q0 36 36 36h145q36 0 36 -36v-315q0 -36 -36 -36zM355 -362h-66q-30 0 -30 31v34q0 30 30 30h59q23 0 23 24v13h-86q-21 0 -29 8.5t-8 30.5v109q0 22 8 30.5t29 8.5h158q21 0 29 -8.5t8 -30.5v-152
q0 -63 -33 -95.5t-92 -32.5z" />
    <glyph glyph-name="lcommaaccent" unicode="&#x13c;" horiz-adv-x="695" 
d="M614 0h-509q-36 0 -36 36v648q0 36 36 36h155q36 0 36 -36v-495h137v162q0 36 36 36h145q36 0 36 -36v-315q0 -36 -36 -36zM355 -362h-66q-30 0 -30 31v34q0 30 30 30h59q23 0 23 24v13h-86q-21 0 -29 8.5t-8 30.5v109q0 22 8 30.5t29 8.5h158q21 0 29 -8.5t8 -30.5v-152
q0 -63 -33 -95.5t-92 -32.5z" />
    <glyph glyph-name="Lcaron" unicode="&#x13d;" horiz-adv-x="695" 
d="M614 0h-509q-36 0 -36 36v648q0 36 36 36h155q36 0 36 -36v-495h137v162q0 36 36 36h145q36 0 36 -36v-315q0 -36 -36 -36zM560 452h-124q-42 0 -36 36l33 196q3 20 10.5 28t25.5 8h138q20 0 30 -9.5t6 -26.5l-47 -196q-5 -20 -12 -28t-24 -8z" />
    <glyph glyph-name="lcaron" unicode="&#x13e;" horiz-adv-x="695" 
d="M614 0h-509q-36 0 -36 36v648q0 36 36 36h155q36 0 36 -36v-495h137v162q0 36 36 36h145q36 0 36 -36v-315q0 -36 -36 -36zM560 452h-124q-42 0 -36 36l33 196q3 20 10.5 28t25.5 8h138q20 0 30 -9.5t6 -26.5l-47 -196q-5 -20 -12 -28t-24 -8z" />
    <glyph glyph-name="Ldot" unicode="&#x13f;" horiz-adv-x="695" 
d="M614 0h-509q-36 0 -36 36v648q0 36 36 36h155q36 0 36 -36v-495h137v82q0 36 36 36h145q36 0 36 -36v-235q0 -36 -36 -36zM604 372h-145q-36 0 -36 36v127q0 36 36 36h145q36 0 36 -36v-127q0 -36 -36 -36z" />
    <glyph glyph-name="ldot" unicode="&#x140;" horiz-adv-x="695" 
d="M614 0h-509q-36 0 -36 36v648q0 36 36 36h155q36 0 36 -36v-495h137v82q0 36 36 36h145q36 0 36 -36v-235q0 -36 -36 -36zM604 372h-145q-36 0 -36 36v127q0 36 36 36h145q36 0 36 -36v-127q0 -36 -36 -36z" />
    <glyph glyph-name="Lslash" unicode="&#x141;" horiz-adv-x="705" 
d="M624 0h-509q-36 0 -36 36v253l-23 -4q-18 -3 -27 6.5t-9 29.5v107q0 18 8 25.5t28 10.5l23 4v216q0 36 36 36h155q36 0 36 -36v-179l58 9q18 3 27 -6.5t9 -29.5v-107q0 -19 -8 -26t-28 -10l-58 -9v-137h137v162q0 36 36 36h145q36 0 36 -36v-315q0 -36 -36 -36z" />
    <glyph glyph-name="lslash" unicode="&#x142;" horiz-adv-x="705" 
d="M624 0h-509q-36 0 -36 36v253l-23 -4q-18 -3 -27 6.5t-9 29.5v107q0 18 8 25.5t28 10.5l23 4v216q0 36 36 36h155q36 0 36 -36v-179l58 9q18 3 27 -6.5t9 -29.5v-107q0 -19 -8 -26t-28 -10l-58 -9v-137h137v162q0 36 36 36h145q36 0 36 -36v-315q0 -36 -36 -36z" />
    <glyph glyph-name="Nacute" unicode="&#x143;" horiz-adv-x="753" 
d="M255 0h-150q-36 0 -36 36v648q0 36 36 36h104q36 0 59 -27l194 -222v213q0 36 36 36h150q36 0 36 -36v-648q0 -36 -36 -36h-150q-36 0 -36 36v123l-171 207v-330q0 -36 -36 -36zM559 796l-349 -43q-34 -4 -34 33v96q0 18 8.5 26t27.5 10l349 43q34 4 34 -33v-96
q0 -18 -8.5 -26t-27.5 -10z" />
    <glyph glyph-name="nacute" unicode="&#x144;" horiz-adv-x="753" 
d="M255 0h-150q-36 0 -36 36v648q0 36 36 36h104q36 0 59 -27l194 -222v213q0 36 36 36h150q36 0 36 -36v-648q0 -36 -36 -36h-150q-36 0 -36 36v123l-171 207v-330q0 -36 -36 -36zM559 796l-349 -43q-34 -4 -34 33v96q0 18 8.5 26t27.5 10l349 43q34 4 34 -33v-96
q0 -18 -8.5 -26t-27.5 -10z" />
    <glyph glyph-name="Ncommaaccent" unicode="&#x145;" horiz-adv-x="753" 
d="M255 0h-150q-36 0 -36 36v648q0 36 36 36h104q36 0 59 -27l194 -222v213q0 36 36 36h150q36 0 36 -36v-648q0 -36 -36 -36h-150q-36 0 -36 36v123l-171 207v-330q0 -36 -36 -36zM367 -362h-66q-30 0 -30 31v34q0 30 30 30h59q23 0 23 24v13h-86q-21 0 -29 8.5t-8 30.5
v109q0 22 8 30.5t29 8.5h158q21 0 29 -8.5t8 -30.5v-152q0 -63 -33 -95.5t-92 -32.5z" />
    <glyph glyph-name="ncommaaccent" unicode="&#x146;" horiz-adv-x="753" 
d="M255 0h-150q-36 0 -36 36v648q0 36 36 36h104q36 0 59 -27l194 -222v213q0 36 36 36h150q36 0 36 -36v-648q0 -36 -36 -36h-150q-36 0 -36 36v123l-171 207v-330q0 -36 -36 -36zM367 -362h-66q-30 0 -30 31v34q0 30 30 30h59q23 0 23 24v13h-86q-21 0 -29 8.5t-8 30.5
v109q0 22 8 30.5t29 8.5h158q21 0 29 -8.5t8 -30.5v-152q0 -63 -33 -95.5t-92 -32.5z" />
    <glyph glyph-name="Ncaron" unicode="&#x147;" horiz-adv-x="753" 
d="M255 0h-150q-36 0 -36 36v648q0 36 36 36h104q36 0 59 -27l194 -222v213q0 36 36 36h150q36 0 36 -36v-648q0 -36 -36 -36h-150q-36 0 -36 36v123l-171 207v-330q0 -36 -36 -36zM397 932l137 40q26 8 33.5 2t7.5 -33v-81q0 -18 -4 -27.5t-11 -13.5t-26 -12l-128 -46
q-17 -7 -39 -9q-19 0 -32 5l-137 50q-27 10 -34.5 18.5t-7.5 34.5v81q0 27 8 33t34 -2l137 -40q31 -8 62 0z" />
    <glyph glyph-name="ncaron" unicode="&#x148;" horiz-adv-x="753" 
d="M255 0h-150q-36 0 -36 36v648q0 36 36 36h104q36 0 59 -27l194 -222v213q0 36 36 36h150q36 0 36 -36v-648q0 -36 -36 -36h-150q-36 0 -36 36v123l-171 207v-330q0 -36 -36 -36zM397 932l137 40q26 8 33.5 2t7.5 -33v-81q0 -18 -4 -27.5t-11 -13.5t-26 -12l-128 -46
q-17 -7 -39 -9q-19 0 -32 5l-137 50q-27 10 -34.5 18.5t-7.5 34.5v81q0 27 8 33t34 -2l137 -40q31 -8 62 0z" />
    <glyph glyph-name="napostrophe" unicode="&#x149;" horiz-adv-x="753" 
d="M255 0h-150q-36 0 -36 36v648q0 36 36 36h104q36 0 59 -27l194 -222v213q0 36 36 36h150q36 0 36 -36v-648q0 -36 -36 -36h-150q-36 0 -36 36v123l-171 207v-330q0 -36 -36 -36zM163 751h-66q-30 0 -30 31v34q0 30 30 30h59q23 0 23 24v13h-86q-21 0 -29 8.5t-8 30.5v109
q0 22 8 30.5t29 8.5h158q21 0 29 -8.5t8 -30.5v-152q0 -63 -33 -95.5t-92 -32.5z" />
    <glyph glyph-name="Eng" unicode="&#x14a;" horiz-adv-x="746" 
d="M64 531q0 49 14 84t47.5 63.5t95 42.5t152.5 14t152.5 -14t95 -42.5t47.5 -63.5t14 -84v-417q0 -98 -56 -151t-190 -53h-45q-36 0 -36 36v119q0 36 36 36h21q24 0 32.5 12t8.5 36v343q0 23 -17 35t-65 12q-49 0 -66 -12t-17 -35v-456q0 -36 -36 -36h-152q-36 0 -36 36
v495z" />
    <glyph glyph-name="eng" unicode="&#x14b;" horiz-adv-x="746" 
d="M64 531q0 49 14 84t47.5 63.5t95 42.5t152.5 14t152.5 -14t95 -42.5t47.5 -63.5t14 -84v-417q0 -98 -56 -151t-190 -53h-45q-36 0 -36 36v119q0 36 36 36h21q24 0 32.5 12t8.5 36v343q0 23 -17 35t-65 12q-49 0 -66 -12t-17 -35v-456q0 -36 -36 -36h-152q-36 0 -36 36
v495z" />
    <glyph glyph-name="Omacron" unicode="&#x14c;" horiz-adv-x="737" 
d="M679 189q0 -49 -13.5 -84t-47 -63.5t-96 -42.5t-153.5 -14t-153.5 14t-96 42.5t-47.5 63.5t-14 84v341q0 49 14 84t47.5 63.5t96 43t153.5 14.5t153.5 -14.5t96 -43t47 -63.5t13.5 -84v-341zM285 225q0 -23 17 -35t67 -12t67 12t17 35v269q0 23 -17 34.5t-67 11.5
t-67 -12t-17 -34v-269zM541 760h-347q-36 0 -36 36v93q0 36 36 36h347q36 0 36 -36v-93q0 -36 -36 -36z" />
    <glyph glyph-name="omacron" unicode="&#x14d;" horiz-adv-x="737" 
d="M679 189q0 -49 -13.5 -84t-47 -63.5t-96 -42.5t-153.5 -14t-153.5 14t-96 42.5t-47.5 63.5t-14 84v341q0 49 14 84t47.5 63.5t96 43t153.5 14.5t153.5 -14.5t96 -43t47 -63.5t13.5 -84v-341zM285 225q0 -23 17 -35t67 -12t67 12t17 35v269q0 23 -17 34.5t-67 11.5
t-67 -12t-17 -34v-269zM541 760h-347q-36 0 -36 36v93q0 36 36 36h347q36 0 36 -36v-93q0 -36 -36 -36z" />
    <glyph glyph-name="Obreve" unicode="&#x14e;" horiz-adv-x="737" 
d="M679 189q0 -49 -13.5 -84t-47 -63.5t-96 -42.5t-153.5 -14t-153.5 14t-96 42.5t-47.5 63.5t-14 84v341q0 49 14 84t47.5 63.5t96 43t153.5 14.5t153.5 -14.5t96 -43t47 -63.5t13.5 -84v-341zM285 225q0 -23 17 -35t67 -12t67 12t17 35v269q0 23 -17 34.5t-67 11.5
t-67 -12t-17 -34v-269zM585 897q0 -70 -47.5 -106.5t-169.5 -36.5t-169.5 36.5t-47.5 106.5v44q0 36 36 36h96q16 0 22.5 -6.5t6.5 -24.5v-21q0 -16 11.5 -24.5t45.5 -8.5q35 0 47 8.5t12 24.5v21q0 18 6.5 24.5t23.5 6.5h91q36 0 36 -36v-44z" />
    <glyph glyph-name="obreve" unicode="&#x14f;" horiz-adv-x="737" 
d="M679 189q0 -49 -13.5 -84t-47 -63.5t-96 -42.5t-153.5 -14t-153.5 14t-96 42.5t-47.5 63.5t-14 84v341q0 49 14 84t47.5 63.5t96 43t153.5 14.5t153.5 -14.5t96 -43t47 -63.5t13.5 -84v-341zM285 225q0 -23 17 -35t67 -12t67 12t17 35v269q0 23 -17 34.5t-67 11.5
t-67 -12t-17 -34v-269zM585 897q0 -70 -47.5 -106.5t-169.5 -36.5t-169.5 36.5t-47.5 106.5v44q0 36 36 36h96q16 0 22.5 -6.5t6.5 -24.5v-21q0 -16 11.5 -24.5t45.5 -8.5q35 0 47 8.5t12 24.5v21q0 18 6.5 24.5t23.5 6.5h91q36 0 36 -36v-44z" />
    <glyph glyph-name="Ohungarumlaut" unicode="&#x150;" horiz-adv-x="737" 
d="M679 189q0 -49 -13.5 -84t-47 -63.5t-96 -42.5t-153.5 -14t-153.5 14t-96 42.5t-47.5 63.5t-14 84v341q0 49 14 84t47.5 63.5t96 43t153.5 14.5t153.5 -14.5t96 -43t47 -63.5t13.5 -84v-341zM285 225q0 -23 17 -35t67 -12t67 12t17 35v269q0 23 -17 34.5t-67 11.5
t-67 -12t-17 -34v-269zM408 794l53 207q5 20 12 28t24 8h106q18 0 27.5 -9t5.5 -25l-53 -207q-5 -20 -12 -28t-24 -8h-106q-18 0 -27.5 9t-5.5 25zM148 794l53 207q5 20 12 28t24 8h106q18 0 27.5 -9t5.5 -25l-53 -207q-5 -20 -12 -28t-24 -8h-106q-18 0 -27.5 9t-5.5 25z
" />
    <glyph glyph-name="ohungarumlaut" unicode="&#x151;" horiz-adv-x="737" 
d="M679 189q0 -49 -13.5 -84t-47 -63.5t-96 -42.5t-153.5 -14t-153.5 14t-96 42.5t-47.5 63.5t-14 84v341q0 49 14 84t47.5 63.5t96 43t153.5 14.5t153.5 -14.5t96 -43t47 -63.5t13.5 -84v-341zM285 225q0 -23 17 -35t67 -12t67 12t17 35v269q0 23 -17 34.5t-67 11.5
t-67 -12t-17 -34v-269zM408 794l53 207q5 20 12 28t24 8h106q18 0 27.5 -9t5.5 -25l-53 -207q-5 -20 -12 -28t-24 -8h-106q-18 0 -27.5 9t-5.5 25zM148 794l53 207q5 20 12 28t24 8h106q18 0 27.5 -9t5.5 -25l-53 -207q-5 -20 -12 -28t-24 -8h-106q-18 0 -27.5 9t-5.5 25z
" />
    <glyph glyph-name="OE" unicode="&#x152;" horiz-adv-x="1015" 
d="M440 189v340h-109q-47 0 -47 -48v-243q0 -23 9.5 -36t37.5 -13h109zM304 0q-134 0 -190 53t-56 151v312q0 98 56 151t190 53h626q36 0 36 -36v-117q0 -36 -36 -36h-263v-77h182q36 0 36 -36v-107q0 -36 -36 -36h-182v-86h263q36 0 36 -36v-117q0 -36 -36 -36h-626z" />
    <glyph glyph-name="oe" unicode="&#x153;" horiz-adv-x="1015" 
d="M440 189v340h-109q-47 0 -47 -48v-243q0 -23 9.5 -36t37.5 -13h109zM304 0q-134 0 -190 53t-56 151v312q0 98 56 151t190 53h626q36 0 36 -36v-117q0 -36 -36 -36h-263v-77h182q36 0 36 -36v-107q0 -36 -36 -36h-182v-86h263q36 0 36 -36v-117q0 -36 -36 -36h-626z" />
    <glyph glyph-name="Racute" unicode="&#x154;" horiz-adv-x="743" 
d="M295 540v-128h75q44 0 44 47v34q0 47 -44 47h-75zM259 0h-154q-36 0 -36 36v648q0 36 36 36h333q107 0 152 -43.5t45 -123.5v-46q0 -90 -56 -114q56 -6 88.5 -44.5t32.5 -100.5v-212q0 -36 -36 -36h-155q-36 0 -36 36v153q0 23 -8.5 33t-29.5 10h-140v-196q0 -36 -36 -36
zM534 796l-349 -43q-34 -4 -34 33v96q0 18 8.5 26t27.5 10l349 43q34 4 34 -33v-96q0 -18 -8.5 -26t-27.5 -10z" />
    <glyph glyph-name="racute" unicode="&#x155;" horiz-adv-x="743" 
d="M295 540v-128h75q44 0 44 47v34q0 47 -44 47h-75zM259 0h-154q-36 0 -36 36v648q0 36 36 36h333q107 0 152 -43.5t45 -123.5v-46q0 -90 -56 -114q56 -6 88.5 -44.5t32.5 -100.5v-212q0 -36 -36 -36h-155q-36 0 -36 36v153q0 23 -8.5 33t-29.5 10h-140v-196q0 -36 -36 -36
zM534 796l-349 -43q-34 -4 -34 33v96q0 18 8.5 26t27.5 10l349 43q34 4 34 -33v-96q0 -18 -8.5 -26t-27.5 -10z" />
    <glyph glyph-name="Rcommaaccent" unicode="&#x156;" horiz-adv-x="743" 
d="M295 540v-128h75q44 0 44 47v34q0 47 -44 47h-75zM259 0h-154q-36 0 -36 36v648q0 36 36 36h333q107 0 152 -43.5t45 -123.5v-46q0 -90 -56 -114q56 -6 88.5 -44.5t32.5 -100.5v-212q0 -36 -36 -36h-155q-36 0 -36 36v153q0 23 -8.5 33t-29.5 10h-140v-196q0 -36 -36 -36
zM372 -362h-66q-30 0 -30 31v34q0 30 30 30h59q23 0 23 24v13h-86q-21 0 -29 8.5t-8 30.5v109q0 22 8 30.5t29 8.5h158q21 0 29 -8.5t8 -30.5v-152q0 -63 -33 -95.5t-92 -32.5z" />
    <glyph glyph-name="rcommaaccent" unicode="&#x157;" horiz-adv-x="743" 
d="M295 540v-128h75q44 0 44 47v34q0 47 -44 47h-75zM259 0h-154q-36 0 -36 36v648q0 36 36 36h333q107 0 152 -43.5t45 -123.5v-46q0 -90 -56 -114q56 -6 88.5 -44.5t32.5 -100.5v-212q0 -36 -36 -36h-155q-36 0 -36 36v153q0 23 -8.5 33t-29.5 10h-140v-196q0 -36 -36 -36
zM372 -362h-66q-30 0 -30 31v34q0 30 30 30h59q23 0 23 24v13h-86q-21 0 -29 8.5t-8 30.5v109q0 22 8 30.5t29 8.5h158q21 0 29 -8.5t8 -30.5v-152q0 -63 -33 -95.5t-92 -32.5z" />
    <glyph glyph-name="Rcaron" unicode="&#x158;" horiz-adv-x="743" 
d="M295 540v-128h75q44 0 44 47v34q0 47 -44 47h-75zM259 0h-154q-36 0 -36 36v648q0 36 36 36h333q107 0 152 -43.5t45 -123.5v-46q0 -90 -56 -114q56 -6 88.5 -44.5t32.5 -100.5v-212q0 -36 -36 -36h-155q-36 0 -36 36v153q0 23 -8.5 33t-29.5 10h-140v-196q0 -36 -36 -36
zM402 932l137 40q25 8 33 2t8 -33v-81q0 -18 -4 -27.5t-11 -13.5t-26 -12l-128 -46q-17 -7 -39 -9q-20 0 -32 5l-137 50q-27 10 -34.5 18.5t-7.5 34.5v81q0 27 8 33t34 -2l137 -40q31 -8 62 0z" />
    <glyph glyph-name="rcaron" unicode="&#x159;" horiz-adv-x="743" 
d="M295 540v-128h75q44 0 44 47v34q0 47 -44 47h-75zM259 0h-154q-36 0 -36 36v648q0 36 36 36h333q107 0 152 -43.5t45 -123.5v-46q0 -90 -56 -114q56 -6 88.5 -44.5t32.5 -100.5v-212q0 -36 -36 -36h-155q-36 0 -36 36v153q0 23 -8.5 33t-29.5 10h-140v-196q0 -36 -36 -36
zM402 932l137 40q25 8 33 2t8 -33v-81q0 -18 -4 -27.5t-11 -13.5t-26 -12l-128 -46q-17 -7 -39 -9q-20 0 -32 5l-137 50q-27 10 -34.5 18.5t-7.5 34.5v81q0 27 8 33t34 -2l137 -40q31 -8 62 0z" />
    <glyph glyph-name="Sacute" unicode="&#x15a;" horiz-adv-x="650" 
d="M403 0h-316q-36 0 -36 36v117q0 36 36 36h269q26 0 26 29q0 31 -26 34l-150 21q-76 11 -115.5 49t-39.5 117v105q0 85 54.5 130.5t152.5 45.5h280q36 0 36 -36v-119q0 -36 -36 -36h-233q-27 0 -27 -30q0 -29 27 -32l149 -20q76 -11 116 -49t40 -117v-105
q0 -85 -54.5 -130.5t-152.5 -45.5zM508 796l-349 -43q-34 -4 -34 33v96q0 18 8.5 26t27.5 10l349 43q34 4 34 -33v-96q0 -18 -8.5 -26t-27.5 -10z" />
    <glyph glyph-name="sacute" unicode="&#x15b;" horiz-adv-x="650" 
d="M403 0h-316q-36 0 -36 36v117q0 36 36 36h269q26 0 26 29q0 31 -26 34l-150 21q-76 11 -115.5 49t-39.5 117v105q0 85 54.5 130.5t152.5 45.5h280q36 0 36 -36v-119q0 -36 -36 -36h-233q-27 0 -27 -30q0 -29 27 -32l149 -20q76 -11 116 -49t40 -117v-105
q0 -85 -54.5 -130.5t-152.5 -45.5zM508 796l-349 -43q-34 -4 -34 33v96q0 18 8.5 26t27.5 10l349 43q34 4 34 -33v-96q0 -18 -8.5 -26t-27.5 -10z" />
    <glyph glyph-name="Scircumflex" unicode="&#x15c;" horiz-adv-x="650" 
d="M403 0h-316q-36 0 -36 36v117q0 36 36 36h269q26 0 26 29q0 31 -26 34l-150 21q-76 11 -115.5 49t-39.5 117v105q0 85 54.5 130.5t152.5 45.5h280q36 0 36 -36v-119q0 -36 -36 -36h-233q-27 0 -27 -30q0 -29 27 -32l149 -20q76 -11 116 -49t40 -117v-105
q0 -85 -54.5 -130.5t-152.5 -45.5zM293 797l-137 -40q-26 -8 -33.5 -2t-7.5 33v81q0 18 4 27.5t11 13.5t26 12l128 46q17 7 39 9q19 0 32 -5l137 -50q27 -10 34.5 -18.5t7.5 -34.5v-81q0 -27 -8 -33t-34 2l-137 40q-31 8 -62 0z" />
    <glyph glyph-name="scircumflex" unicode="&#x15d;" horiz-adv-x="650" 
d="M403 0h-316q-36 0 -36 36v117q0 36 36 36h269q26 0 26 29q0 31 -26 34l-150 21q-76 11 -115.5 49t-39.5 117v105q0 85 54.5 130.5t152.5 45.5h280q36 0 36 -36v-119q0 -36 -36 -36h-233q-27 0 -27 -30q0 -29 27 -32l149 -20q76 -11 116 -49t40 -117v-105
q0 -85 -54.5 -130.5t-152.5 -45.5zM293 797l-137 -40q-26 -8 -33.5 -2t-7.5 33v81q0 18 4 27.5t11 13.5t26 12l128 46q17 7 39 9q19 0 32 -5l137 -50q27 -10 34.5 -18.5t7.5 -34.5v-81q0 -27 -8 -33t-34 2l-137 40q-31 8 -62 0z" />
    <glyph glyph-name="Scedilla" unicode="&#x15e;" horiz-adv-x="650" 
d="M339 -126h-126q-45 0 -30 40l32 86h-128q-36 0 -36 36v117q0 36 36 36h269q26 0 26 29q0 31 -26 34l-150 21q-76 11 -115.5 49t-39.5 117v105q0 85 54.5 130.5t152.5 45.5h280q36 0 36 -36v-119q0 -36 -36 -36h-233q-27 0 -27 -30q0 -29 27 -32l149 -20q76 -11 116 -49
t40 -117v-105q0 -81 -50 -126.5t-141 -49.5l-34 -96q-10 -30 -46 -30z" />
    <glyph glyph-name="scedilla" unicode="&#x15f;" horiz-adv-x="650" 
d="M339 -126h-126q-45 0 -30 40l32 86h-128q-36 0 -36 36v117q0 36 36 36h269q26 0 26 29q0 31 -26 34l-150 21q-76 11 -115.5 49t-39.5 117v105q0 85 54.5 130.5t152.5 45.5h280q36 0 36 -36v-119q0 -36 -36 -36h-233q-27 0 -27 -30q0 -29 27 -32l149 -20q76 -11 116 -49
t40 -117v-105q0 -81 -50 -126.5t-141 -49.5l-34 -96q-10 -30 -46 -30z" />
    <glyph glyph-name="Scaron" unicode="&#x160;" horiz-adv-x="650" 
d="M403 0h-316q-36 0 -36 36v117q0 36 36 36h269q26 0 26 29q0 31 -26 34l-150 21q-76 11 -115.5 49t-39.5 117v105q0 85 54.5 130.5t152.5 45.5h280q36 0 36 -36v-119q0 -36 -36 -36h-233q-27 0 -27 -30q0 -29 27 -32l149 -20q76 -11 116 -49t40 -117v-105
q0 -85 -54.5 -130.5t-152.5 -45.5zM366 932l137 40q25 8 33 2t8 -33v-81q0 -18 -4 -27.5t-11 -13.5t-26 -12l-128 -46q-17 -7 -39 -9q-20 0 -32 5l-137 50q-27 10 -34.5 18.5t-7.5 34.5v81q0 27 8 33t34 -2l137 -40q31 -8 62 0z" />
    <glyph glyph-name="scaron" unicode="&#x161;" horiz-adv-x="650" 
d="M403 0h-316q-36 0 -36 36v117q0 36 36 36h269q26 0 26 29q0 31 -26 34l-150 21q-76 11 -115.5 49t-39.5 117v105q0 85 54.5 130.5t152.5 45.5h280q36 0 36 -36v-119q0 -36 -36 -36h-233q-27 0 -27 -30q0 -29 27 -32l149 -20q76 -11 116 -49t40 -117v-105
q0 -85 -54.5 -130.5t-152.5 -45.5zM366 932l137 40q25 8 33 2t8 -33v-81q0 -18 -4 -27.5t-11 -13.5t-26 -12l-128 -46q-17 -7 -39 -9q-20 0 -32 5l-137 50q-27 10 -34.5 18.5t-7.5 34.5v81q0 27 8 33t34 -2l137 -40q31 -8 62 0z" />
    <glyph glyph-name="Tcommaaccent" unicode="&#x162;" horiz-adv-x="656" 
d="M409 0h-162q-36 0 -36 36v491h-147q-36 0 -36 36v121q0 36 36 36h528q36 0 36 -36v-121q0 -36 -36 -36h-147v-491q0 -36 -36 -36zM319 -362h-66q-30 0 -30 31v34q0 30 30 30h59q23 0 23 24v13h-86q-21 0 -29 8.5t-8 30.5v109q0 22 8 30.5t29 8.5h158q21 0 29 -8.5
t8 -30.5v-152q0 -63 -33 -95.5t-92 -32.5z" />
    <glyph glyph-name="tcommaaccent" unicode="&#x163;" horiz-adv-x="656" 
d="M409 0h-162q-36 0 -36 36v491h-147q-36 0 -36 36v121q0 36 36 36h528q36 0 36 -36v-121q0 -36 -36 -36h-147v-491q0 -36 -36 -36zM319 -362h-66q-30 0 -30 31v34q0 30 30 30h59q23 0 23 24v13h-86q-21 0 -29 8.5t-8 30.5v109q0 22 8 30.5t29 8.5h158q21 0 29 -8.5
t8 -30.5v-152q0 -63 -33 -95.5t-92 -32.5z" />
    <glyph glyph-name="Tcaron" unicode="&#x164;" horiz-adv-x="656" 
d="M409 0h-162q-36 0 -36 36v491h-147q-36 0 -36 36v121q0 36 36 36h528q36 0 36 -36v-121q0 -36 -36 -36h-147v-491q0 -36 -36 -36zM359 932l137 40q26 8 33.5 2t7.5 -33v-81q0 -18 -4 -27.5t-11 -13.5t-26 -12l-128 -46q-17 -7 -39 -9q-19 0 -32 5l-137 50
q-27 10 -34.5 18.5t-7.5 34.5v81q0 27 8 33t34 -2l137 -40q31 -8 62 0z" />
    <glyph glyph-name="tcaron" unicode="&#x165;" horiz-adv-x="656" 
d="M409 0h-162q-36 0 -36 36v491h-147q-36 0 -36 36v121q0 36 36 36h528q36 0 36 -36v-121q0 -36 -36 -36h-147v-491q0 -36 -36 -36zM359 932l137 40q26 8 33.5 2t7.5 -33v-81q0 -18 -4 -27.5t-11 -13.5t-26 -12l-128 -46q-17 -7 -39 -9q-19 0 -32 5l-137 50
q-27 10 -34.5 18.5t-7.5 34.5v81q0 27 8 33t34 -2l137 -40q31 -8 62 0z" />
    <glyph glyph-name="Tbar" unicode="&#x166;" horiz-adv-x="656" 
d="M445 36q0 -36 -36 -36h-162q-36 0 -36 36v186h-77q-36 0 -36 36v107q0 36 36 36h77v126h-147q-36 0 -36 36v121q0 36 36 36h528q36 0 36 -36v-121q0 -36 -36 -36h-147v-126h76q36 0 36 -36v-107q0 -36 -36 -36h-76v-186z" />
    <glyph glyph-name="tbar" unicode="&#x167;" horiz-adv-x="656" 
d="M445 36q0 -36 -36 -36h-162q-36 0 -36 36v186h-77q-36 0 -36 36v107q0 36 36 36h77v126h-147q-36 0 -36 36v121q0 36 36 36h528q36 0 36 -36v-121q0 -36 -36 -36h-147v-126h76q36 0 36 -36v-107q0 -36 -36 -36h-76v-186z" />
    <glyph glyph-name="Utilde" unicode="&#x168;" horiz-adv-x="746" 
d="M682 189q0 -49 -14 -84t-47.5 -63.5t-95 -42.5t-152.5 -14t-152.5 14t-95 42.5t-47.5 63.5t-14 84v495q0 36 36 36h157q36 0 36 -36v-456q0 -23 17 -35t65 -12q49 0 66 12t17 35v456q0 36 36 36h152q36 0 36 -36v-495zM372 764l-28 4q-60 7 -81 5.5t-64 -14.5
q-36 -11 -36 26v101q0 17 8 25t28 16q45 14 71.5 14.5t84.5 -9.5l17 -2l22 -3q69 -9 86.5 -7.5t64.5 15.5q36 10 36 -26v-101q0 -17 -8 -25t-28 -16q-45 -14 -72 -14.5t-85 9.5z" />
    <glyph glyph-name="utilde" unicode="&#x169;" horiz-adv-x="746" 
d="M682 189q0 -49 -14 -84t-47.5 -63.5t-95 -42.5t-152.5 -14t-152.5 14t-95 42.5t-47.5 63.5t-14 84v495q0 36 36 36h157q36 0 36 -36v-456q0 -23 17 -35t65 -12q49 0 66 12t17 35v456q0 36 36 36h152q36 0 36 -36v-495zM372 764l-28 4q-60 7 -81 5.5t-64 -14.5
q-36 -11 -36 26v101q0 17 8 25t28 16q45 14 71.5 14.5t84.5 -9.5l17 -2l22 -3q69 -9 86.5 -7.5t64.5 15.5q36 10 36 -26v-101q0 -17 -8 -25t-28 -16q-45 -14 -72 -14.5t-85 9.5z" />
    <glyph glyph-name="Umacron" unicode="&#x16a;" horiz-adv-x="746" 
d="M682 189q0 -49 -14 -84t-47.5 -63.5t-95 -42.5t-152.5 -14t-152.5 14t-95 42.5t-47.5 63.5t-14 84v495q0 36 36 36h157q36 0 36 -36v-456q0 -23 17 -35t65 -12q49 0 66 12t17 35v456q0 36 36 36h152q36 0 36 -36v-495zM546 760h-347q-36 0 -36 36v93q0 36 36 36h347
q36 0 36 -36v-93q0 -36 -36 -36z" />
    <glyph glyph-name="umacron" unicode="&#x16b;" horiz-adv-x="746" 
d="M682 189q0 -49 -14 -84t-47.5 -63.5t-95 -42.5t-152.5 -14t-152.5 14t-95 42.5t-47.5 63.5t-14 84v495q0 36 36 36h157q36 0 36 -36v-456q0 -23 17 -35t65 -12q49 0 66 12t17 35v456q0 36 36 36h152q36 0 36 -36v-495zM546 760h-347q-36 0 -36 36v93q0 36 36 36h347
q36 0 36 -36v-93q0 -36 -36 -36z" />
    <glyph glyph-name="Ubreve" unicode="&#x16c;" horiz-adv-x="746" 
d="M682 189q0 -49 -14 -84t-47.5 -63.5t-95 -42.5t-152.5 -14t-152.5 14t-95 42.5t-47.5 63.5t-14 84v495q0 36 36 36h157q36 0 36 -36v-456q0 -23 17 -35t65 -12q49 0 66 12t17 35v456q0 36 36 36h152q36 0 36 -36v-495zM590 897q0 -70 -47.5 -106.5t-169.5 -36.5
t-169.5 36.5t-47.5 106.5v44q0 36 36 36h96q16 0 22.5 -6.5t6.5 -24.5v-21q0 -16 11.5 -24.5t45.5 -8.5q35 0 47 8.5t12 24.5v21q0 18 6.5 24.5t23.5 6.5h91q36 0 36 -36v-44z" />
    <glyph glyph-name="ubreve" unicode="&#x16d;" horiz-adv-x="746" 
d="M682 189q0 -49 -14 -84t-47.5 -63.5t-95 -42.5t-152.5 -14t-152.5 14t-95 42.5t-47.5 63.5t-14 84v495q0 36 36 36h157q36 0 36 -36v-456q0 -23 17 -35t65 -12q49 0 66 12t17 35v456q0 36 36 36h152q36 0 36 -36v-495zM590 897q0 -70 -47.5 -106.5t-169.5 -36.5
t-169.5 36.5t-47.5 106.5v44q0 36 36 36h96q16 0 22.5 -6.5t6.5 -24.5v-21q0 -16 11.5 -24.5t45.5 -8.5q35 0 47 8.5t12 24.5v21q0 18 6.5 24.5t23.5 6.5h91q36 0 36 -36v-44z" />
    <glyph glyph-name="Uring" unicode="&#x16e;" horiz-adv-x="746" 
d="M682 189q0 -49 -14 -84t-47.5 -63.5t-95 -42.5t-152.5 -14t-152.5 14t-95 42.5t-47.5 63.5t-14 84v495q0 36 36 36h157q36 0 36 -36v-456q0 -23 17 -35t65 -12q49 0 66 12t17 35v456q0 36 36 36h152q36 0 36 -36v-495zM590 995v-98q0 -70 -47.5 -106.5t-169.5 -36.5
t-169.5 36.5t-47.5 106.5v98q0 70 47.5 106.5t169.5 36.5t169.5 -36.5t47.5 -106.5zM433 930v35q0 21 -12 30.5t-47 9.5t-46 -9.5t-11 -30.5v-35q0 -23 11 -33t46 -10q36 0 47.5 10t11.5 33z" />
    <glyph glyph-name="uring" unicode="&#x16f;" horiz-adv-x="746" 
d="M682 189q0 -49 -14 -84t-47.5 -63.5t-95 -42.5t-152.5 -14t-152.5 14t-95 42.5t-47.5 63.5t-14 84v495q0 36 36 36h157q36 0 36 -36v-456q0 -23 17 -35t65 -12q49 0 66 12t17 35v456q0 36 36 36h152q36 0 36 -36v-495zM590 995v-98q0 -70 -47.5 -106.5t-169.5 -36.5
t-169.5 36.5t-47.5 106.5v98q0 70 47.5 106.5t169.5 36.5t169.5 -36.5t47.5 -106.5zM433 930v35q0 21 -12 30.5t-47 9.5t-46 -9.5t-11 -30.5v-35q0 -23 11 -33t46 -10q36 0 47.5 10t11.5 33z" />
    <glyph glyph-name="Uhungarumlaut" unicode="&#x170;" horiz-adv-x="746" 
d="M682 189q0 -49 -14 -84t-47.5 -63.5t-95 -42.5t-152.5 -14t-152.5 14t-95 42.5t-47.5 63.5t-14 84v495q0 36 36 36h157q36 0 36 -36v-456q0 -23 17 -35t65 -12q49 0 66 12t17 35v456q0 36 36 36h152q36 0 36 -36v-495zM417 794l53 207q5 20 12 28t24 8h106q18 0 27.5 -9
t5.5 -25l-53 -207q-5 -20 -12 -28t-24 -8h-106q-18 0 -27.5 9t-5.5 25zM157 794l53 207q5 20 12 28t24 8h106q18 0 27.5 -9t5.5 -25l-53 -207q-5 -20 -12 -28t-24 -8h-106q-18 0 -27.5 9t-5.5 25z" />
    <glyph glyph-name="uhungarumlaut" unicode="&#x171;" horiz-adv-x="746" 
d="M682 189q0 -49 -14 -84t-47.5 -63.5t-95 -42.5t-152.5 -14t-152.5 14t-95 42.5t-47.5 63.5t-14 84v495q0 36 36 36h157q36 0 36 -36v-456q0 -23 17 -35t65 -12q49 0 66 12t17 35v456q0 36 36 36h152q36 0 36 -36v-495zM417 794l53 207q5 20 12 28t24 8h106q18 0 27.5 -9
t5.5 -25l-53 -207q-5 -20 -12 -28t-24 -8h-106q-18 0 -27.5 9t-5.5 25zM157 794l53 207q5 20 12 28t24 8h106q18 0 27.5 -9t5.5 -25l-53 -207q-5 -20 -12 -28t-24 -8h-106q-18 0 -27.5 9t-5.5 25z" />
    <glyph glyph-name="Uogonek" unicode="&#x172;" horiz-adv-x="746" 
d="M488 -196h-111q-64 0 -88 32.5t-13 102.5l9 50q-124 13 -172.5 63t-48.5 137v495q0 36 36 36h157q36 0 36 -36v-456q0 -23 17 -35t65 -12q49 0 66 12t17 35v456q0 36 36 36h152q36 0 36 -36v-495q0 -88 -51 -139t-181 -62l-6 -44h41q21 0 28.5 -7t7.5 -27v-72
q0 -20 -7 -27t-26 -7z" />
    <glyph glyph-name="uogonek" unicode="&#x173;" horiz-adv-x="746" 
d="M488 -196h-111q-64 0 -88 32.5t-13 102.5l9 50q-124 13 -172.5 63t-48.5 137v495q0 36 36 36h157q36 0 36 -36v-456q0 -23 17 -35t65 -12q49 0 66 12t17 35v456q0 36 36 36h152q36 0 36 -36v-495q0 -88 -51 -139t-181 -62l-6 -44h41q21 0 28.5 -7t7.5 -27v-72
q0 -20 -7 -27t-26 -7z" />
    <glyph glyph-name="Wcircumflex" unicode="&#x174;" horiz-adv-x="831" 
d="M586 720h149q36 0 36 -36v-388q0 -75 -18 -124l-50 -136q-13 -36 -40 -36h-133q-37 0 -46 30l-46 163q-5 17 -18 17h-9q-13 0 -18 -17l-47 -163q-9 -30 -42 -30h-132q-32 0 -44 36l-50 138q-18 49 -18 124v386q0 36 36 36h154q36 0 36 -36v-368l58 126q15 31 53 31h42
q38 0 53 -31l58 -126v368q0 36 36 36zM383 797l-137 -40q-26 -8 -33.5 -2t-7.5 33v81q0 18 4 27.5t11 13.5t26 12l128 46q17 7 39 9q19 0 32 -5l137 -50q27 -10 34.5 -18.5t7.5 -34.5v-81q0 -27 -8 -33t-34 2l-137 40q-31 8 -62 0z" />
    <glyph glyph-name="wcircumflex" unicode="&#x175;" horiz-adv-x="831" 
d="M586 720h149q36 0 36 -36v-388q0 -75 -18 -124l-50 -136q-13 -36 -40 -36h-133q-37 0 -46 30l-46 163q-5 17 -18 17h-9q-13 0 -18 -17l-47 -163q-9 -30 -42 -30h-132q-32 0 -44 36l-50 138q-18 49 -18 124v386q0 36 36 36h154q36 0 36 -36v-368l58 126q15 31 53 31h42
q38 0 53 -31l58 -126v368q0 36 36 36zM383 797l-137 -40q-26 -8 -33.5 -2t-7.5 33v81q0 18 4 27.5t11 13.5t26 12l128 46q17 7 39 9q19 0 32 -5l137 -50q27 -10 34.5 -18.5t7.5 -34.5v-81q0 -27 -8 -33t-34 2l-137 40q-31 8 -62 0z" />
    <glyph glyph-name="Ycircumflex" unicode="&#x176;" horiz-adv-x="705" 
d="M434 0h-162q-36 0 -36 36v128l-153 205q-24 31 -31 54t-7 69v192q0 36 36 36h154q36 0 36 -36v-164q0 -28 9 -42l46 -72q10 -17 24 -17h10q14 0 24 17l46 72q9 14 9 42v164q0 36 36 36h149q36 0 36 -36v-192q0 -45 -7.5 -68t-30.5 -55l-152 -206v-127q0 -36 -36 -36z
M320 797l-137 -40q-25 -8 -33 -2t-8 33v81q0 18 4 27.5t11 13.5t26 12l128 46q17 7 39 9q20 0 32 -5l137 -50q27 -10 34.5 -18.5t7.5 -34.5v-81q0 -27 -8 -33t-34 2l-137 40q-31 8 -62 0z" />
    <glyph glyph-name="ycircumflex" unicode="&#x177;" horiz-adv-x="705" 
d="M434 0h-162q-36 0 -36 36v128l-153 205q-24 31 -31 54t-7 69v192q0 36 36 36h154q36 0 36 -36v-164q0 -28 9 -42l46 -72q10 -17 24 -17h10q14 0 24 17l46 72q9 14 9 42v164q0 36 36 36h149q36 0 36 -36v-192q0 -45 -7.5 -68t-30.5 -55l-152 -206v-127q0 -36 -36 -36z
M320 797l-137 -40q-25 -8 -33 -2t-8 33v81q0 18 4 27.5t11 13.5t26 12l128 46q17 7 39 9q20 0 32 -5l137 -50q27 -10 34.5 -18.5t7.5 -34.5v-81q0 -27 -8 -33t-34 2l-137 40q-31 8 -62 0z" />
    <glyph glyph-name="Ydieresis" unicode="&#x178;" horiz-adv-x="705" 
d="M434 0h-162q-36 0 -36 36v128l-153 205q-24 31 -31 54t-7 69v192q0 36 36 36h154q36 0 36 -36v-164q0 -28 9 -42l46 -72q10 -17 24 -17h10q14 0 24 17l46 72q9 14 9 42v164q0 36 36 36h149q36 0 36 -36v-192q0 -45 -7.5 -68t-30.5 -55l-152 -206v-127q0 -36 -36 -36z
M548 760h-138q-33 0 -33 33v121q0 33 33 33h138q33 0 33 -33v-121q0 -33 -33 -33zM290 760h-138q-34 0 -34 33v121q0 33 34 33h138q33 0 33 -33v-121q0 -33 -33 -33z" />
    <glyph glyph-name="Zacute" unicode="&#x179;" horiz-adv-x="660" 
d="M578 0h-496q-36 0 -36 36v134q0 36 25 62l243 295h-214q-36 0 -36 36v121q0 36 36 36h460q36 0 36 -36v-149q0 -37 -25 -63l-232 -281h239q36 0 36 -36v-119q0 -36 -36 -36zM513 796l-349 -43q-34 -4 -34 33v96q0 18 8.5 26t27.5 10l349 43q34 4 34 -33v-96
q0 -18 -8.5 -26t-27.5 -10z" />
    <glyph glyph-name="zacute" unicode="&#x17a;" horiz-adv-x="660" 
d="M578 0h-496q-36 0 -36 36v134q0 36 25 62l243 295h-214q-36 0 -36 36v121q0 36 36 36h460q36 0 36 -36v-149q0 -37 -25 -63l-232 -281h239q36 0 36 -36v-119q0 -36 -36 -36zM513 796l-349 -43q-34 -4 -34 33v96q0 18 8.5 26t27.5 10l349 43q34 4 34 -33v-96
q0 -18 -8.5 -26t-27.5 -10z" />
    <glyph glyph-name="Zdotaccent" unicode="&#x17b;" horiz-adv-x="660" 
d="M578 0h-496q-36 0 -36 36v134q0 36 25 62l243 295h-214q-36 0 -36 36v121q0 36 36 36h460q36 0 36 -36v-149q0 -37 -25 -63l-232 -281h239q36 0 36 -36v-119q0 -36 -36 -36zM410 760h-158q-36 0 -36 36v127q0 36 36 36h158q36 0 36 -36v-127q0 -36 -36 -36z" />
    <glyph glyph-name="zdotaccent" unicode="&#x17c;" horiz-adv-x="660" 
d="M578 0h-496q-36 0 -36 36v134q0 36 25 62l243 295h-214q-36 0 -36 36v121q0 36 36 36h460q36 0 36 -36v-149q0 -37 -25 -63l-232 -281h239q36 0 36 -36v-119q0 -36 -36 -36zM410 760h-158q-36 0 -36 36v127q0 36 36 36h158q36 0 36 -36v-127q0 -36 -36 -36z" />
    <glyph glyph-name="Zcaron" unicode="&#x17d;" horiz-adv-x="660" 
d="M578 0h-496q-36 0 -36 36v134q0 36 25 62l243 295h-214q-36 0 -36 36v121q0 36 36 36h460q36 0 36 -36v-149q0 -37 -25 -63l-232 -281h239q36 0 36 -36v-119q0 -36 -36 -36zM361 932l137 40q26 8 33.5 2t7.5 -33v-81q0 -18 -4 -27.5t-11 -13.5t-26 -12l-128 -46
q-17 -7 -39 -9q-19 0 -32 5l-137 50q-27 10 -34.5 18.5t-7.5 34.5v81q0 27 8 33t34 -2l137 -40q31 -8 62 0z" />
    <glyph glyph-name="zcaron" unicode="&#x17e;" horiz-adv-x="660" 
d="M578 0h-496q-36 0 -36 36v134q0 36 25 62l243 295h-214q-36 0 -36 36v121q0 36 36 36h460q36 0 36 -36v-149q0 -37 -25 -63l-232 -281h239q36 0 36 -36v-119q0 -36 -36 -36zM361 932l137 40q26 8 33.5 2t7.5 -33v-81q0 -18 -4 -27.5t-11 -13.5t-26 -12l-128 -46
q-17 -7 -39 -9q-19 0 -32 5l-137 50q-27 10 -34.5 18.5t-7.5 34.5v81q0 27 8 33t34 -2l137 -40q31 -8 62 0z" />
    <glyph glyph-name="Schwa" unicode="&#x18f;" horiz-adv-x="715" 
d="M364 -15q-91 0 -153.5 14t-96 42.5t-47.5 63.5t-14 84v220q0 36 36 36h359v38q0 24 -12.5 36t-48.5 12h-221q-36 0 -36 36v117q0 36 36 36h254q134 0 190 -53t56 -151v-327q0 -49 -13.5 -84t-46 -63.5t-93 -42.5t-149.5 -14zM364 178q50 0 67 12t17 35v41h-168v-41
q0 -23 17 -35t67 -12z" />
    <glyph glyph-name="florin" unicode="&#x192;" horiz-adv-x="574" 
d="M401 205q0 -99 -56 -152t-190 -53h-74q-36 0 -36 36v121q0 36 36 36h51q41 0 41 50v27h-92q-36 0 -36 36v107q0 36 36 36h92v66q0 99 56 152t190 53h74q36 0 36 -36v-121q0 -36 -36 -36h-51q-41 0 -41 -50v-28h92q36 0 36 -36v-107q0 -36 -36 -36h-92v-65z" />
    <glyph glyph-name="Ohorn" unicode="&#x1a0;" horiz-adv-x="747" 
d="M369 -15q-91 0 -153.5 14t-96 42.5t-47.5 63.5t-14 84v341q0 49 14 84t47.5 63.5t96 43t153.5 14.5q93 0 154 -15q21 1 29 8t8 21v21q0 18 6.5 24.5t23.5 6.5h111q36 0 36 -36v-44q0 -85 -68 -118q10 -31 10 -73v-341q0 -49 -13.5 -84t-47 -63.5t-96 -42.5t-153.5 -14z
M285 225q0 -23 17 -35t67 -12t67 12t17 35v269q0 23 -17 34.5t-67 11.5t-67 -12t-17 -34v-269z" />
    <glyph glyph-name="ohorn" unicode="&#x1a1;" horiz-adv-x="747" 
d="M369 -15q-91 0 -153.5 14t-96 42.5t-47.5 63.5t-14 84v341q0 49 14 84t47.5 63.5t96 43t153.5 14.5q93 0 154 -15q21 1 29 8t8 21v21q0 18 6.5 24.5t23.5 6.5h111q36 0 36 -36v-44q0 -85 -68 -118q10 -31 10 -73v-341q0 -49 -13.5 -84t-47 -63.5t-96 -42.5t-153.5 -14z
M285 225q0 -23 17 -35t67 -12t67 12t17 35v269q0 23 -17 34.5t-67 11.5t-67 -12t-17 -34v-269z" />
    <glyph glyph-name="Uhorn" unicode="&#x1af;" horiz-adv-x="756" 
d="M373 -15q-91 0 -152.5 14t-95 42.5t-47.5 63.5t-14 84v495q0 36 36 36h157q36 0 36 -36v-456q0 -23 17 -35t65 -12q49 0 66 12t17 35v456q0 36 36 36h35q23 0 31.5 7t8.5 22v21q0 18 6.5 24.5t23.5 6.5h111q36 0 36 -36v-44q0 -83 -64 -116v-416q0 -49 -14 -84
t-47.5 -63.5t-95 -42.5t-152.5 -14z" />
    <glyph glyph-name="uhorn" unicode="&#x1b0;" horiz-adv-x="756" 
d="M373 -15q-91 0 -152.5 14t-95 42.5t-47.5 63.5t-14 84v495q0 36 36 36h157q36 0 36 -36v-456q0 -23 17 -35t65 -12q49 0 66 12t17 35v456q0 36 36 36h35q23 0 31.5 7t8.5 22v21q0 18 6.5 24.5t23.5 6.5h111q36 0 36 -36v-44q0 -83 -64 -116v-416q0 -49 -14 -84
t-47.5 -63.5t-95 -42.5t-152.5 -14z" />
    <glyph glyph-name="Acaron" unicode="&#x1cd;" horiz-adv-x="730" 
d="M330 510l-47 -152h157l-47 152q-7 17 -19 17h-25q-12 0 -19 -17zM273 36q0 -36 -36 -36h-147q-36 0 -36 36v264q0 59 39 160l87 227q11 33 51 33h269q39 0 50 -33l87 -227q39 -101 39 -160v-264q0 -36 -36 -36h-151q-39 0 -39 36v140h-177v-140zM396 932l137 40
q25 8 33 2t8 -33v-81q0 -18 -4 -27.5t-11 -13.5t-26 -12l-128 -46q-17 -7 -39 -9q-20 0 -32 5l-137 50q-27 10 -34.5 18.5t-7.5 34.5v81q0 27 8 33t34 -2l137 -40q31 -8 62 0z" />
    <glyph glyph-name="acaron" unicode="&#x1ce;" horiz-adv-x="730" 
d="M330 510l-47 -152h157l-47 152q-7 17 -19 17h-25q-12 0 -19 -17zM273 36q0 -36 -36 -36h-147q-36 0 -36 36v264q0 59 39 160l87 227q11 33 51 33h269q39 0 50 -33l87 -227q39 -101 39 -160v-264q0 -36 -36 -36h-151q-39 0 -39 36v140h-177v-140zM396 932l137 40
q25 8 33 2t8 -33v-81q0 -18 -4 -27.5t-11 -13.5t-26 -12l-128 -46q-17 -7 -39 -9q-20 0 -32 5l-137 50q-27 10 -34.5 18.5t-7.5 34.5v81q0 27 8 33t34 -2l137 -40q31 -8 62 0z" />
    <glyph glyph-name="Icaron" unicode="&#x1cf;" horiz-adv-x="605" 
d="M89 0q-36 0 -36 36v119q0 36 36 36h99v336h-99q-36 0 -36 36v121q0 36 36 36h426q36 0 36 -36v-121q0 -36 -36 -36h-97v-336h97q36 0 36 -36v-119q0 -36 -36 -36h-426zM334 932l137 40q25 8 33 2t8 -33v-81q0 -18 -4 -27.5t-11 -13.5t-26 -12l-128 -46q-17 -7 -39 -9
q-20 0 -32 5l-137 50q-27 10 -34.5 18.5t-7.5 34.5v81q0 27 8 33t34 -2l137 -40q31 -8 62 0z" />
    <glyph glyph-name="icaron" unicode="&#x1d0;" horiz-adv-x="605" 
d="M89 0q-36 0 -36 36v119q0 36 36 36h99v336h-99q-36 0 -36 36v121q0 36 36 36h426q36 0 36 -36v-121q0 -36 -36 -36h-97v-336h97q36 0 36 -36v-119q0 -36 -36 -36h-426zM334 932l137 40q25 8 33 2t8 -33v-81q0 -18 -4 -27.5t-11 -13.5t-26 -12l-128 -46q-17 -7 -39 -9
q-20 0 -32 5l-137 50q-27 10 -34.5 18.5t-7.5 34.5v81q0 27 8 33t34 -2l137 -40q31 -8 62 0z" />
    <glyph glyph-name="Ocaron" unicode="&#x1d1;" horiz-adv-x="737" 
d="M679 189q0 -49 -13.5 -84t-47 -63.5t-96 -42.5t-153.5 -14t-153.5 14t-96 42.5t-47.5 63.5t-14 84v341q0 49 14 84t47.5 63.5t96 43t153.5 14.5t153.5 -14.5t96 -43t47 -63.5t13.5 -84v-341zM285 225q0 -23 17 -35t67 -12t67 12t17 35v269q0 23 -17 34.5t-67 11.5
t-67 -12t-17 -34v-269zM399 932l137 40q26 8 33.5 2t7.5 -33v-81q0 -18 -4 -27.5t-11 -13.5t-26 -12l-128 -46q-17 -7 -39 -9q-19 0 -32 5l-137 50q-27 10 -34.5 18.5t-7.5 34.5v81q0 27 8 33t34 -2l137 -40q31 -8 62 0z" />
    <glyph glyph-name="ocaron" unicode="&#x1d2;" horiz-adv-x="737" 
d="M679 189q0 -49 -13.5 -84t-47 -63.5t-96 -42.5t-153.5 -14t-153.5 14t-96 42.5t-47.5 63.5t-14 84v341q0 49 14 84t47.5 63.5t96 43t153.5 14.5t153.5 -14.5t96 -43t47 -63.5t13.5 -84v-341zM285 225q0 -23 17 -35t67 -12t67 12t17 35v269q0 23 -17 34.5t-67 11.5
t-67 -12t-17 -34v-269zM399 932l137 40q26 8 33.5 2t7.5 -33v-81q0 -18 -4 -27.5t-11 -13.5t-26 -12l-128 -46q-17 -7 -39 -9q-19 0 -32 5l-137 50q-27 10 -34.5 18.5t-7.5 34.5v81q0 27 8 33t34 -2l137 -40q31 -8 62 0z" />
    <glyph glyph-name="Ucaron" unicode="&#x1d3;" horiz-adv-x="746" 
d="M682 189q0 -49 -14 -84t-47.5 -63.5t-95 -42.5t-152.5 -14t-152.5 14t-95 42.5t-47.5 63.5t-14 84v495q0 36 36 36h157q36 0 36 -36v-456q0 -23 17 -35t65 -12q49 0 66 12t17 35v456q0 36 36 36h152q36 0 36 -36v-495zM404 932l137 40q25 8 33 2t8 -33v-81
q0 -18 -4 -27.5t-11 -13.5t-26 -12l-128 -46q-17 -7 -39 -9q-20 0 -32 5l-137 50q-27 10 -34.5 18.5t-7.5 34.5v81q0 27 8 33t34 -2l137 -40q31 -8 62 0z" />
    <glyph glyph-name="ucaron" unicode="&#x1d4;" horiz-adv-x="746" 
d="M682 189q0 -49 -14 -84t-47.5 -63.5t-95 -42.5t-152.5 -14t-152.5 14t-95 42.5t-47.5 63.5t-14 84v495q0 36 36 36h157q36 0 36 -36v-456q0 -23 17 -35t65 -12q49 0 66 12t17 35v456q0 36 36 36h152q36 0 36 -36v-495zM404 932l137 40q25 8 33 2t8 -33v-81
q0 -18 -4 -27.5t-11 -13.5t-26 -12l-128 -46q-17 -7 -39 -9q-20 0 -32 5l-137 50q-27 10 -34.5 18.5t-7.5 34.5v81q0 27 8 33t34 -2l137 -40q31 -8 62 0z" />
    <glyph glyph-name="Udieresismacron" unicode="&#x1d5;" horiz-adv-x="746" 
d="M682 189q0 -49 -14 -84t-47.5 -63.5t-95 -42.5t-152.5 -14t-152.5 14t-95 42.5t-47.5 63.5t-14 84v495q0 36 36 36h157q36 0 36 -36v-456q0 -23 17 -35t65 -12q49 0 66 12t17 35v456q0 36 36 36h152q36 0 36 -36v-495zM569 760h-138q-33 0 -33 33v121q0 33 33 33h138
q33 0 33 -33v-121q0 -33 -33 -33zM311 760h-138q-34 0 -34 33v121q0 33 34 33h138q33 0 33 -33v-121q0 -33 -33 -33zM543 980h-347q-36 0 -36 36v93q0 36 36 36h347q36 0 36 -36v-93q0 -36 -36 -36z" />
    <glyph glyph-name="udieresismacron" unicode="&#x1d6;" horiz-adv-x="746" 
d="M682 189q0 -49 -14 -84t-47.5 -63.5t-95 -42.5t-152.5 -14t-152.5 14t-95 42.5t-47.5 63.5t-14 84v495q0 36 36 36h157q36 0 36 -36v-456q0 -23 17 -35t65 -12q49 0 66 12t17 35v456q0 36 36 36h152q36 0 36 -36v-495zM569 760h-138q-33 0 -33 33v121q0 33 33 33h138
q33 0 33 -33v-121q0 -33 -33 -33zM311 760h-138q-34 0 -34 33v121q0 33 34 33h138q33 0 33 -33v-121q0 -33 -33 -33zM543 980h-347q-36 0 -36 36v93q0 36 36 36h347q36 0 36 -36v-93q0 -36 -36 -36z" />
    <glyph glyph-name="Udieresisacute" unicode="&#x1d7;" horiz-adv-x="746" 
d="M682 189q0 -49 -14 -84t-47.5 -63.5t-95 -42.5t-152.5 -14t-152.5 14t-95 42.5t-47.5 63.5t-14 84v495q0 36 36 36h157q36 0 36 -36v-456q0 -23 17 -35t65 -12q49 0 66 12t17 35v456q0 36 36 36h152q36 0 36 -36v-495zM569 760h-138q-33 0 -33 33v121q0 33 33 33h138
q33 0 33 -33v-121q0 -33 -33 -33zM311 760h-138q-34 0 -34 33v121q0 33 34 33h138q33 0 33 -33v-121q0 -33 -33 -33zM470 1187q16 4 25 -5.5t9 -27.5v-106q0 -17 -8 -24t-28 -12l-137 -33q-16 -4 -25 5.5t-9 27.5v106q0 17 8 24t28 12z" />
    <glyph glyph-name="udieresisacute" unicode="&#x1d8;" horiz-adv-x="746" 
d="M682 189q0 -49 -14 -84t-47.5 -63.5t-95 -42.5t-152.5 -14t-152.5 14t-95 42.5t-47.5 63.5t-14 84v495q0 36 36 36h157q36 0 36 -36v-456q0 -23 17 -35t65 -12q49 0 66 12t17 35v456q0 36 36 36h152q36 0 36 -36v-495zM569 760h-138q-33 0 -33 33v121q0 33 33 33h138
q33 0 33 -33v-121q0 -33 -33 -33zM311 760h-138q-34 0 -34 33v121q0 33 34 33h138q33 0 33 -33v-121q0 -33 -33 -33zM470 1187q16 4 25 -5.5t9 -27.5v-106q0 -17 -8 -24t-28 -12l-137 -33q-16 -4 -25 5.5t-9 27.5v106q0 17 8 24t28 12z" />
    <glyph glyph-name="Udieresiscaron" unicode="&#x1d9;" horiz-adv-x="746" 
d="M682 189q0 -49 -14 -84t-47.5 -63.5t-95 -42.5t-152.5 -14t-152.5 14t-95 42.5t-47.5 63.5t-14 84v495q0 36 36 36h157q36 0 36 -36v-456q0 -23 17 -35t65 -12q49 0 66 12t17 35v456q0 36 36 36h152q36 0 36 -36v-495zM569 760h-138q-33 0 -33 33v121q0 33 33 33h138
q33 0 33 -33v-121q0 -33 -33 -33zM311 760h-138q-34 0 -34 33v121q0 33 34 33h138q33 0 33 -33v-121q0 -33 -33 -33zM403 1152l137 40q26 8 33.5 2t7.5 -33v-81q0 -18 -4 -27.5t-11 -13.5t-26 -12l-128 -46q-17 -7 -39 -9q-19 0 -32 5l-137 50q-27 10 -34.5 18.5t-7.5 34.5
v81q0 27 8 33t34 -2l137 -40q31 -8 62 0z" />
    <glyph glyph-name="udieresiscaron" unicode="&#x1da;" horiz-adv-x="746" 
d="M682 189q0 -49 -14 -84t-47.5 -63.5t-95 -42.5t-152.5 -14t-152.5 14t-95 42.5t-47.5 63.5t-14 84v495q0 36 36 36h157q36 0 36 -36v-456q0 -23 17 -35t65 -12q49 0 66 12t17 35v456q0 36 36 36h152q36 0 36 -36v-495zM569 760h-138q-33 0 -33 33v121q0 33 33 33h138
q33 0 33 -33v-121q0 -33 -33 -33zM311 760h-138q-34 0 -34 33v121q0 33 34 33h138q33 0 33 -33v-121q0 -33 -33 -33zM403 1152l137 40q26 8 33.5 2t7.5 -33v-81q0 -18 -4 -27.5t-11 -13.5t-26 -12l-128 -46q-17 -7 -39 -9q-19 0 -32 5l-137 50q-27 10 -34.5 18.5t-7.5 34.5
v81q0 27 8 33t34 -2l137 -40q31 -8 62 0z" />
    <glyph glyph-name="Udieresisgrave" unicode="&#x1db;" horiz-adv-x="746" 
d="M682 189q0 -49 -14 -84t-47.5 -63.5t-95 -42.5t-152.5 -14t-152.5 14t-95 42.5t-47.5 63.5t-14 84v495q0 36 36 36h157q36 0 36 -36v-456q0 -23 17 -35t65 -12q49 0 66 12t17 35v456q0 36 36 36h152q36 0 36 -36v-495zM569 760h-138q-33 0 -33 33v121q0 33 33 33h138
q33 0 33 -33v-121q0 -33 -33 -33zM311 760h-138q-34 0 -34 33v121q0 33 34 33h138q33 0 33 -33v-121q0 -33 -33 -33zM291 1187l137 -33q20 -5 28 -12t8 -24v-106q0 -18 -9 -27.5t-25 -5.5l-137 33q-20 5 -28 12t-8 24v106q0 18 9 27.5t25 5.5z" />
    <glyph glyph-name="udieresisgrave" unicode="&#x1dc;" horiz-adv-x="746" 
d="M682 189q0 -49 -14 -84t-47.5 -63.5t-95 -42.5t-152.5 -14t-152.5 14t-95 42.5t-47.5 63.5t-14 84v495q0 36 36 36h157q36 0 36 -36v-456q0 -23 17 -35t65 -12q49 0 66 12t17 35v456q0 36 36 36h152q36 0 36 -36v-495zM569 760h-138q-33 0 -33 33v121q0 33 33 33h138
q33 0 33 -33v-121q0 -33 -33 -33zM311 760h-138q-34 0 -34 33v121q0 33 34 33h138q33 0 33 -33v-121q0 -33 -33 -33zM291 1187l137 -33q20 -5 28 -12t8 -24v-106q0 -18 -9 -27.5t-25 -5.5l-137 33q-20 5 -28 12t-8 24v106q0 18 9 27.5t25 5.5z" />
    <glyph glyph-name="Gcaron" unicode="&#x1e6;" horiz-adv-x="708" 
d="M619 0h-315q-126 0 -186 50t-60 154v312q0 104 60 154t186 50h250q36 0 36 -36v-121q0 -36 -36 -36h-208q-61 0 -61 -50v-239q0 -49 46 -49h97v156q0 36 36 36h155q36 0 36 -36v-309q0 -36 -36 -36zM386 932l137 40q25 8 33 2t8 -33v-81q0 -18 -4 -27.5t-11 -13.5
t-26 -12l-128 -46q-17 -7 -39 -9q-20 0 -32 5l-137 50q-27 10 -34.5 18.5t-7.5 34.5v81q0 27 8 33t34 -2l137 -40q31 -8 62 0z" />
    <glyph glyph-name="gcaron" unicode="&#x1e7;" horiz-adv-x="708" 
d="M619 0h-315q-126 0 -186 50t-60 154v312q0 104 60 154t186 50h250q36 0 36 -36v-121q0 -36 -36 -36h-208q-61 0 -61 -50v-239q0 -49 46 -49h97v156q0 36 36 36h155q36 0 36 -36v-309q0 -36 -36 -36zM386 932l137 40q25 8 33 2t8 -33v-81q0 -18 -4 -27.5t-11 -13.5
t-26 -12l-128 -46q-17 -7 -39 -9q-20 0 -32 5l-137 50q-27 10 -34.5 18.5t-7.5 34.5v81q0 27 8 33t34 -2l137 -40q31 -8 62 0z" />
    <glyph glyph-name="Scommaaccent" unicode="&#x218;" horiz-adv-x="650" 
d="M403 0h-316q-36 0 -36 36v117q0 36 36 36h269q26 0 26 29q0 31 -26 34l-150 21q-76 11 -115.5 49t-39.5 117v105q0 85 54.5 130.5t152.5 45.5h280q36 0 36 -36v-119q0 -36 -36 -36h-233q-27 0 -27 -30q0 -29 27 -32l149 -20q76 -11 116 -49t40 -117v-105
q0 -85 -54.5 -130.5t-152.5 -45.5zM326 -362h-66q-30 0 -30 31v34q0 30 30 30h59q23 0 23 24v13h-86q-21 0 -29 8.5t-8 30.5v109q0 22 8 30.5t29 8.5h158q21 0 29 -8.5t8 -30.5v-152q0 -63 -33 -95.5t-92 -32.5z" />
    <glyph glyph-name="scommaaccent" unicode="&#x219;" horiz-adv-x="650" 
d="M403 0h-316q-36 0 -36 36v117q0 36 36 36h269q26 0 26 29q0 31 -26 34l-150 21q-76 11 -115.5 49t-39.5 117v105q0 85 54.5 130.5t152.5 45.5h280q36 0 36 -36v-119q0 -36 -36 -36h-233q-27 0 -27 -30q0 -29 27 -32l149 -20q76 -11 116 -49t40 -117v-105
q0 -85 -54.5 -130.5t-152.5 -45.5zM326 -362h-66q-30 0 -30 31v34q0 30 30 30h59q23 0 23 24v13h-86q-21 0 -29 8.5t-8 30.5v109q0 22 8 30.5t29 8.5h158q21 0 29 -8.5t8 -30.5v-152q0 -63 -33 -95.5t-92 -32.5z" />
    <glyph glyph-name="uni021A" unicode="&#x21a;" horiz-adv-x="656" 
d="M409 0h-162q-36 0 -36 36v491h-147q-36 0 -36 36v121q0 36 36 36h528q36 0 36 -36v-121q0 -36 -36 -36h-147v-491q0 -36 -36 -36zM319 -362h-66q-30 0 -30 31v34q0 30 30 30h59q23 0 23 24v13h-86q-21 0 -29 8.5t-8 30.5v109q0 22 8 30.5t29 8.5h158q21 0 29 -8.5
t8 -30.5v-152q0 -63 -33 -95.5t-92 -32.5z" />
    <glyph glyph-name="uni021B" unicode="&#x21b;" horiz-adv-x="656" 
d="M409 0h-162q-36 0 -36 36v491h-147q-36 0 -36 36v121q0 36 36 36h528q36 0 36 -36v-121q0 -36 -36 -36h-147v-491q0 -36 -36 -36zM319 -362h-66q-30 0 -30 31v34q0 30 30 30h59q23 0 23 24v13h-86q-21 0 -29 8.5t-8 30.5v109q0 22 8 30.5t29 8.5h158q21 0 29 -8.5
t8 -30.5v-152q0 -63 -33 -95.5t-92 -32.5z" />
    <glyph glyph-name="dotlessj" unicode="&#x237;" horiz-adv-x="688" 
d="M624 189q0 -49 -13 -84t-45 -63.5t-90.5 -42.5t-144.5 -14q-85 0 -143 14t-89.5 42.5t-44.5 63.5t-13 84v162q0 36 36 36h145q36 0 36 -36v-122q0 -23 14 -35t57 -12q40 0 53 12t13 35v455q0 36 36 36h157q36 0 36 -36v-495z" />
    <glyph glyph-name="ascript" unicode="&#x251;" horiz-adv-x="746" 
d="M675 530l2 -494q0 -36 -36 -36h-337q-126 0 -186 50t-60 154v326q0 49 14 84t47 63.5t95 43t152 14.5q91 0 153 -14.5t95.5 -43t47 -63.5t13.5 -84zM284 494v-256q0 -25 11.5 -36t35.5 -11h119v305q0 22 -16.5 33t-67.5 11q-48 0 -65 -12t-17 -34z" />
    <glyph glyph-name="schwa" unicode="&#x259;" horiz-adv-x="715" 
d="M364 -15q-91 0 -153.5 14t-96 42.5t-47.5 63.5t-14 84v220q0 36 36 36h359v38q0 24 -12.5 36t-48.5 12h-221q-36 0 -36 36v117q0 36 36 36h254q134 0 190 -53t56 -151v-327q0 -49 -13.5 -84t-46 -63.5t-93 -42.5t-149.5 -14zM364 178q50 0 67 12t17 35v41h-168v-41
q0 -23 17 -35t67 -12z" />
    <glyph glyph-name="gscript" unicode="&#x261;" horiz-adv-x="715" 
d="M50 530q0 49 14 84t47 63.5t95 43t152 14.5q91 0 153 -14.5t95.5 -43t47 -63.5t13.5 -84v-387q0 -98 -56 -151t-190 -53h-254q-36 0 -36 36v117q0 36 36 36h211q36 0 48.5 12t12.5 36v34h-145q-126 0 -185 49.5t-59 154.5v116zM440 496q0 22 -16 33t-66 11q-48 0 -65 -12
t-17 -34v-46q0 -49 47 -49h117v97z" />
    <glyph glyph-name="commaturnedmod" unicode="&#x2bb;" horiz-adv-x="500" 
d="M259 720h66q30 0 30 -31v-34q0 -30 -30 -30h-59q-23 0 -23 -24v-13h86q21 0 29 -8.5t8 -30.5v-109q0 -22 -8 -30.5t-29 -8.5h-158q-21 0 -29 8.5t-8 30.5v152q0 63 33 95.5t92 32.5z" />
    <glyph glyph-name="apostrophemod" unicode="&#x2bc;" horiz-adv-x="500" 
d="M241 401h-66q-30 0 -30 31v34q0 30 30 30h59q23 0 23 24v13h-86q-21 0 -29 8.5t-8 30.5v109q0 22 8 30.5t29 8.5h158q21 0 29 -8.5t8 -30.5v-152q0 -63 -33 -95.5t-92 -32.5z" />
    <glyph glyph-name="ringhalfright" unicode="&#x2be;" horiz-adv-x="312" 
d="M55 383q-22 0 -22 22v75q0 22 22 22h49q28 0 28 23v51q0 23 -28 23h-49q-22 0 -22 22v77q0 22 22 22h109q115 0 115 -96v-146q0 -95 -115 -95h-109z" />
    <glyph glyph-name="ringhalfleft" unicode="&#x2bf;" horiz-adv-x="312" 
d="M257 383h-109q-115 0 -115 95v146q0 96 115 96h109q22 0 22 -22v-77q0 -22 -22 -22h-49q-28 0 -28 -23v-51q0 -23 28 -23h49q22 0 22 -22v-75q0 -22 -22 -22z" />
    <glyph glyph-name="circumflex" unicode="&#x2c6;" horiz-adv-x="500" 
d="M218 797l-137 -40q-25 -8 -33 -2t-8 33v81q0 18 4 27.5t11 13.5t26 12l128 46q17 7 39 9q20 0 32 -5l137 -50q27 -10 34.5 -18.5t7.5 -34.5v-81q0 -27 -8 -33t-34 2l-137 40q-31 8 -62 0z" />
    <glyph glyph-name="caron" unicode="&#x2c7;" horiz-adv-x="500" 
d="M281 932l137 40q26 8 33.5 2t7.5 -33v-81q0 -18 -4 -27.5t-11 -13.5t-26 -12l-128 -46q-17 -7 -39 -9q-19 0 -32 5l-137 50q-27 10 -34.5 18.5t-7.5 34.5v81q0 27 8 33t34 -2l137 -40q31 -8 62 0z" />
    <glyph glyph-name="verticallinemod" unicode="&#x2c8;" horiz-adv-x="356" 
d="M253 345h-150q-26 0 -34 7.5t-8 33.5v293q0 26 7 33.5t33 7.5h155q25 0 32 -7.5t7 -33.5v-293q0 -26 -8 -33.5t-34 -7.5z" />
    <glyph glyph-name="firsttonechinese" unicode="&#x2c9;" horiz-adv-x="500" 
d="M423 760h-347q-36 0 -36 36v93q0 36 36 36h347q36 0 36 -36v-93q0 -36 -36 -36z" />
    <glyph glyph-name="secondtonechinese" unicode="&#x2ca;" horiz-adv-x="500" 
d="M423 796l-349 -43q-34 -4 -34 33v96q0 18 8.5 26t27.5 10l349 43q34 4 34 -33v-96q0 -18 -8.5 -26t-27.5 -10z" />
    <glyph glyph-name="fourthtonechinese" unicode="&#x2cb;" horiz-adv-x="500" 
d="M425 753l-349 43q-19 2 -27.5 10t-8.5 26v96q0 37 34 33l349 -43q19 -2 27.5 -10t8.5 -26v-96q0 -37 -34 -33z" />
    <glyph glyph-name="verticallinelowmod" unicode="&#x2cc;" horiz-adv-x="356" 
d="M253 -140h-150q-26 0 -34 7.5t-8 33.5v293q0 26 7 33.5t33 7.5h155q25 0 32 -7.5t7 -33.5v-293q0 -26 -8 -33.5t-34 -7.5z" />
    <glyph glyph-name="breve" unicode="&#x2d8;" horiz-adv-x="500" 
d="M467 897q0 -70 -47.5 -106.5t-169.5 -36.5t-169.5 36.5t-47.5 106.5v44q0 36 36 36h96q16 0 22.5 -6.5t6.5 -24.5v-21q0 -16 11.5 -24.5t45.5 -8.5q35 0 47 8.5t12 24.5v21q0 18 6.5 24.5t23.5 6.5h91q36 0 36 -36v-44z" />
    <glyph glyph-name="dotaccent" unicode="&#x2d9;" horiz-adv-x="500" 
d="M330 760h-158q-36 0 -36 36v127q0 36 36 36h158q36 0 36 -36v-127q0 -36 -36 -36z" />
    <glyph glyph-name="ring" unicode="&#x2da;" horiz-adv-x="500" 
d="M467 995v-98q0 -70 -47.5 -106.5t-169.5 -36.5t-169.5 36.5t-47.5 106.5v98q0 70 47.5 106.5t169.5 36.5t169.5 -36.5t47.5 -106.5zM310 930v35q0 21 -12 30.5t-47 9.5t-46 -9.5t-11 -30.5v-35q0 -23 11 -33t46 -10q36 0 47.5 10t11.5 33z" />
    <glyph glyph-name="ogonek" unicode="&#x2db;" horiz-adv-x="500" 
d="M317 67l-16 -113h41q21 0 28.5 -7t7.5 -27v-72q0 -20 -7 -27t-26 -7h-111q-64 0 -88 32.5t-13 102.5l21 118h163z" />
    <glyph glyph-name="tilde" unicode="&#x2dc;" horiz-adv-x="500" 
d="M249 764l-28 4q-60 7 -81 5.5t-64 -14.5q-36 -11 -36 26v101q0 17 8 25t28 16q45 14 71.5 14.5t84.5 -9.5l17 -2l22 -3q69 -9 86.5 -7.5t64.5 15.5q36 10 36 -26v-101q0 -17 -8 -25t-28 -16q-45 -14 -72 -14.5t-85 9.5z" />
    <glyph glyph-name="hungarumlaut" unicode="&#x2dd;" horiz-adv-x="500" 
d="M255 794l53 207q5 20 12 28t24 8h106q18 0 27.5 -9t5.5 -25l-53 -207q-5 -20 -12 -28t-24 -8h-106q-18 0 -27.5 9t-5.5 25zM-5 794l53 207q5 20 12 28t24 8h106q18 0 27.5 -9t5.5 -25l-53 -207q-5 -20 -12 -28t-24 -8h-106q-18 0 -27.5 9t-5.5 25z" />
    <glyph glyph-name="gravecmb" unicode="&#x300;" horiz-adv-x="0" 
d="M175 753l-349 43q-19 2 -27.5 10t-8.5 26v96q0 37 34 33l349 -43q19 -2 27.5 -10t8.5 -26v-96q0 -37 -34 -33z" />
    <glyph glyph-name="acutecmb" unicode="&#x301;" horiz-adv-x="0" 
d="M173 796l-349 -43q-34 -4 -34 33v96q0 18 8.5 26t27.5 10l349 43q34 4 34 -33v-96q0 -18 -8.5 -26t-27.5 -10z" />
    <glyph glyph-name="circumflexcmb" unicode="&#x302;" horiz-adv-x="0" 
d="M-32 797l-137 -40q-25 -8 -33 -2t-8 33v81q0 18 4 27.5t11 13.5t26 12l128 46q17 7 39 9q20 0 32 -5l137 -50q27 -10 34.5 -18.5t7.5 -34.5v-81q0 -27 -8 -33t-34 2l-137 40q-31 8 -62 0z" />
    <glyph glyph-name="tildecmb" unicode="&#x303;" horiz-adv-x="0" 
d="M0 764l-28 4q-60 7 -81 5.5t-64 -14.5q-36 -11 -36 26v101q0 17 8 25t28 16q45 14 71.5 14.5t84.5 -9.5l17 -2l22 -3q69 -9 86.5 -7.5t64.5 15.5q36 10 36 -26v-101q0 -17 -8 -25t-28 -16q-45 -14 -72 -14.5t-85 9.5z" />
    <glyph glyph-name="uni0304" unicode="&#x304;" horiz-adv-x="500" 
d="M423 760h-347q-36 0 -36 36v93q0 36 36 36h347q36 0 36 -36v-93q0 -36 -36 -36z" />
    <glyph glyph-name="brevecmb" unicode="&#x306;" horiz-adv-x="0" 
d="M217 897q0 -70 -47.5 -106.5t-169.5 -36.5t-169.5 36.5t-47.5 106.5v44q0 36 36 36h96q16 0 22.5 -6.5t6.5 -24.5v-21q0 -16 11.5 -24.5t45.5 -8.5q35 0 47 8.5t12 24.5v21q0 18 6.5 24.5t23.5 6.5h91q36 0 36 -36v-44z" />
    <glyph glyph-name="dotaccentcmb" unicode="&#x307;" horiz-adv-x="0" 
d="M79 760h-158q-36 0 -36 36v127q0 36 36 36h158q36 0 36 -36v-127q0 -36 -36 -36z" />
    <glyph glyph-name="dieresiscmb" unicode="&#x308;" horiz-adv-x="0" 
d="M199 760h-138q-33 0 -33 33v121q0 33 33 33h138q33 0 33 -33v-121q0 -33 -33 -33zM-59 760h-138q-34 0 -34 33v121q0 33 34 33h138q33 0 33 -33v-121q0 -33 -33 -33z" />
    <glyph glyph-name="hookcmb" unicode="&#x309;" horiz-adv-x="0" 
d="M99 767l-141 -19q-17 -3 -20 16l-11 79q-3 18 17 21l89 14q19 3 19 17t-19 14h-129q-19 0 -19 19v73q0 19 19 19h168q52 0 80 -26t28 -76v-64q0 -42 -20.5 -61.5t-60.5 -25.5z" />
    <glyph glyph-name="ringcmb" unicode="&#x30a;" horiz-adv-x="0" 
d="M217 995v-98q0 -70 -47.5 -106.5t-169.5 -36.5t-169.5 36.5t-47.5 106.5v98q0 70 47.5 106.5t169.5 36.5t169.5 -36.5t47.5 -106.5zM60 930v35q0 21 -12 30.5t-47 9.5t-46 -9.5t-11 -30.5v-35q0 -23 11 -33t46 -10q36 0 47.5 10t11.5 33z" />
    <glyph glyph-name="hungarumlautcmb" unicode="&#x30b;" horiz-adv-x="0" 
d="M45 794l53 207q5 20 12 28t24 8h106q18 0 27.5 -9t5.5 -25l-53 -207q-5 -20 -12 -28t-24 -8h-106q-18 0 -27.5 9t-5.5 25zM-215 794l53 207q5 20 12 28t24 8h106q18 0 27.5 -9t5.5 -25l-53 -207q-5 -20 -12 -28t-24 -8h-106q-18 0 -27.5 9t-5.5 25z" />
    <glyph glyph-name="caroncmb" unicode="&#x30c;" horiz-adv-x="0" 
d="M31 932l137 40q26 8 33.5 2t7.5 -33v-81q0 -18 -4 -27.5t-11 -13.5t-26 -12l-128 -46q-17 -7 -39 -9q-19 0 -32 5l-137 50q-27 10 -34.5 18.5t-7.5 34.5v81q0 27 8 33t34 -2l137 -40q31 -8 62 0z" />
    <glyph glyph-name="horncmb" unicode="&#x31b;" horiz-adv-x="0" 
d="M93 721q0 -70 -47.5 -106.5t-169.5 -36.5v142q23 0 31.5 7t8.5 22v21q0 18 6.5 24.5t23.5 6.5h111q36 0 36 -36v-44z" />
    <glyph glyph-name="dotbelowcmb" unicode="&#x323;" horiz-adv-x="0" 
d="M79 -240h-158q-36 0 -36 36v127q0 36 36 36h158q36 0 36 -36v-127q0 -36 -36 -36z" />
    <glyph glyph-name="dieresisbelowcmb" unicode="&#x324;" horiz-adv-x="0" 
d="M199 -227h-138q-33 0 -33 33v121q0 33 33 33h138q33 0 33 -33v-121q0 -33 -33 -33zM-59 -227h-138q-34 0 -34 33v121q0 33 34 33h138q33 0 33 -33v-121q0 -33 -33 -33z" />
    <glyph glyph-name="commaaccent" unicode="&#x326;" horiz-adv-x="500" 
d="M241 -362h-66q-30 0 -30 31v34q0 30 30 30h59q23 0 23 24v13h-86q-21 0 -29 8.5t-8 30.5v109q0 22 8 30.5t29 8.5h158q21 0 29 -8.5t8 -30.5v-152q0 -63 -33 -95.5t-92 -32.5z" />
    <glyph glyph-name="cedillacmb" unicode="&#x327;" horiz-adv-x="0" 
d="M14 -126h-126q-45 0 -30 40l85 230q12 32 44 20l116 -43q31 -11 20 -40l-63 -177q-10 -30 -46 -30z" />
    <glyph glyph-name="ogonekcmb" unicode="&#x328;" horiz-adv-x="0" 
d="M87 67l-16 -113h41q21 0 28.5 -7t7.5 -27v-72q0 -20 -7 -27t-26 -7h-111q-64 0 -88 32.5t-13 102.5l21 118h163z" />
    <glyph glyph-name="brevebelowcmb" unicode="&#x32e;" horiz-adv-x="0" 
d="M217 -123q0 -70 -47.5 -106.5t-169.5 -36.5t-169.5 36.5t-47.5 106.5v44q0 36 36 36h96q16 0 22.5 -6.5t6.5 -24.5v-21q0 -16 11.5 -24.5t45.5 -8.5q35 0 47 8.5t12 24.5v21q0 18 6.5 24.5t23.5 6.5h91q36 0 36 -36v-44z" />
    <glyph glyph-name="macronbelowcmb" unicode="&#x331;" horiz-adv-x="0" 
d="M174 -205h-347q-36 0 -36 36v93q0 36 36 36h347q36 0 36 -36v-93q0 -36 -36 -36z" />
    <glyph glyph-name="uni0394" unicode="&#x394;" horiz-adv-x="730" 
d="M640 0h-550q-36 0 -36 36v134q0 54 29 170l87 339q10 23 23.5 32t38.5 9h267q45 0 61 -41l87 -339q29 -116 29 -170v-134q0 -36 -36 -36zM272 210v-21h178v21q0 19 -8 51l-53 243q-4 10 -7.5 13.5t-11.5 3.5h-17q-8 0 -11.5 -3.5t-7.5 -13.5l-54 -243q-8 -32 -8 -51z" />
    <glyph glyph-name="uni03A9" unicode="&#x3a9;" horiz-adv-x="777" 
d="M362 36q0 -36 -36 -36h-254q-36 0 -36 36v117q0 36 36 36h39q-33 45 -33 120v221q0 49 14 84t47.5 63.5t96 43t153.5 14.5t153.5 -14.5t96 -43t47.5 -63.5t14 -84v-221q0 -75 -33 -120h39q36 0 36 -36v-117q0 -36 -36 -36h-254q-36 0 -36 36v114q0 16 5.5 22t21.5 12
q30 11 30 41v269q0 22 -17 34t-67 12t-67 -12t-17 -34v-269q0 -30 30 -41q16 -6 21.5 -12t5.5 -22v-114z" />
    <glyph glyph-name="mu1" unicode="&#x3bc;" horiz-adv-x="713" 
d="M288 -54q0 -36 -36 -36h-155q-36 0 -36 36v588q0 36 36 36h155q36 0 36 -36v-316q0 -23 15 -35t57 -12q43 0 58 12t15 35v316q0 36 36 36h152q36 0 36 -36v-345q0 -49 -12.5 -84t-42.5 -63.5t-86 -42.5t-138 -14q-48 0 -90 8v-47z" />
    <glyph glyph-name="pi" unicode="&#x3c0;" horiz-adv-x="721" 
d="M624 0h-155q-36 0 -36 36v345h-145v-345q0 -36 -36 -36h-155q-36 0 -36 36v498q0 36 36 36h527q36 0 36 -36v-498q0 -36 -36 -36z" />
    <glyph glyph-name="Ddotbelow" unicode="&#x1e0c;" horiz-adv-x="746" 
d="M442 0h-337q-36 0 -36 36v648q0 36 36 36h337q126 0 186 -50t60 -154v-312q0 -104 -60 -154t-186 -50zM296 529v-340h119q47 0 47 49v243q0 48 -47 48h-119zM452 -240h-158q-36 0 -36 36v127q0 36 36 36h158q36 0 36 -36v-127q0 -36 -36 -36z" />
    <glyph glyph-name="ddotbelow" unicode="&#x1e0d;" horiz-adv-x="746" 
d="M442 0h-337q-36 0 -36 36v648q0 36 36 36h337q126 0 186 -50t60 -154v-312q0 -104 -60 -154t-186 -50zM296 529v-340h119q47 0 47 49v243q0 48 -47 48h-119zM452 -240h-158q-36 0 -36 36v127q0 36 36 36h158q36 0 36 -36v-127q0 -36 -36 -36z" />
    <glyph glyph-name="Dlinebelow" unicode="&#x1e0e;" horiz-adv-x="746" 
d="M442 0h-337q-36 0 -36 36v648q0 36 36 36h337q126 0 186 -50t60 -154v-312q0 -104 -60 -154t-186 -50zM296 529v-340h119q47 0 47 49v243q0 48 -47 48h-119zM541 -222h-347q-36 0 -36 36v93q0 36 36 36h347q36 0 36 -36v-93q0 -36 -36 -36z" />
    <glyph glyph-name="dlinebelow" unicode="&#x1e0f;" horiz-adv-x="746" 
d="M442 0h-337q-36 0 -36 36v648q0 36 36 36h337q126 0 186 -50t60 -154v-312q0 -104 -60 -154t-186 -50zM296 529v-340h119q47 0 47 49v243q0 48 -47 48h-119zM541 -222h-347q-36 0 -36 36v93q0 36 36 36h347q36 0 36 -36v-93q0 -36 -36 -36z" />
    <glyph glyph-name="Gmacron" unicode="&#x1e20;" horiz-adv-x="708" 
d="M619 0h-315q-126 0 -186 50t-60 154v312q0 104 60 154t186 50h250q36 0 36 -36v-121q0 -36 -36 -36h-208q-61 0 -61 -50v-239q0 -49 46 -49h97v156q0 36 36 36h155q36 0 36 -36v-309q0 -36 -36 -36zM554 760h-347q-36 0 -36 36v93q0 36 36 36h347q36 0 36 -36v-93
q0 -36 -36 -36z" />
    <glyph glyph-name="gmacron" unicode="&#x1e21;" horiz-adv-x="708" 
d="M619 0h-315q-126 0 -186 50t-60 154v312q0 104 60 154t186 50h250q36 0 36 -36v-121q0 -36 -36 -36h-208q-61 0 -61 -50v-239q0 -49 46 -49h97v156q0 36 36 36h155q36 0 36 -36v-309q0 -36 -36 -36zM554 760h-347q-36 0 -36 36v93q0 36 36 36h347q36 0 36 -36v-93
q0 -36 -36 -36z" />
    <glyph glyph-name="Hdotbelow" unicode="&#x1e24;" horiz-adv-x="759" 
d="M260 0h-155q-36 0 -36 36v648q0 36 36 36h155q36 0 36 -36v-217h167v217q0 36 36 36h155q36 0 36 -36v-648q0 -36 -36 -36h-155q-36 0 -36 36v222h-167v-222q0 -36 -36 -36zM459 -240h-158q-36 0 -36 36v127q0 36 36 36h158q36 0 36 -36v-127q0 -36 -36 -36z" />
    <glyph glyph-name="hdotbelow" unicode="&#x1e25;" horiz-adv-x="759" 
d="M260 0h-155q-36 0 -36 36v648q0 36 36 36h155q36 0 36 -36v-217h167v217q0 36 36 36h155q36 0 36 -36v-648q0 -36 -36 -36h-155q-36 0 -36 36v222h-167v-222q0 -36 -36 -36zM459 -240h-158q-36 0 -36 36v127q0 36 36 36h158q36 0 36 -36v-127q0 -36 -36 -36z" />
    <glyph glyph-name="Hbrevebelow" unicode="&#x1e2a;" horiz-adv-x="759" 
d="M260 0h-155q-36 0 -36 36v648q0 36 36 36h155q36 0 36 -36v-217h167v217q0 36 36 36h155q36 0 36 -36v-648q0 -36 -36 -36h-155q-36 0 -36 36v222h-167v-222q0 -36 -36 -36zM597 -123q0 -70 -47.5 -106.5t-169.5 -36.5t-169.5 36.5t-47.5 106.5v44q0 36 36 36h96
q16 0 22.5 -6.5t6.5 -24.5v-21q0 -16 11.5 -24.5t45.5 -8.5q35 0 47 8.5t12 24.5v21q0 18 6.5 24.5t23.5 6.5h91q36 0 36 -36v-44z" />
    <glyph glyph-name="hbrevebelow" unicode="&#x1e2b;" horiz-adv-x="759" 
d="M260 0h-155q-36 0 -36 36v648q0 36 36 36h155q36 0 36 -36v-217h167v217q0 36 36 36h155q36 0 36 -36v-648q0 -36 -36 -36h-155q-36 0 -36 36v222h-167v-222q0 -36 -36 -36zM597 -123q0 -70 -47.5 -106.5t-169.5 -36.5t-169.5 36.5t-47.5 106.5v44q0 36 36 36h96
q16 0 22.5 -6.5t6.5 -24.5v-21q0 -16 11.5 -24.5t45.5 -8.5q35 0 47 8.5t12 24.5v21q0 18 6.5 24.5t23.5 6.5h91q36 0 36 -36v-44z" />
    <glyph glyph-name="Ldotbelow" unicode="&#x1e36;" horiz-adv-x="695" 
d="M614 0h-509q-36 0 -36 36v648q0 36 36 36h155q36 0 36 -36v-495h137v162q0 36 36 36h145q36 0 36 -36v-315q0 -36 -36 -36zM442 -240h-158q-36 0 -36 36v127q0 36 36 36h158q36 0 36 -36v-127q0 -36 -36 -36z" />
    <glyph glyph-name="ldotbelow" unicode="&#x1e37;" horiz-adv-x="695" 
d="M614 0h-509q-36 0 -36 36v648q0 36 36 36h155q36 0 36 -36v-495h137v162q0 36 36 36h145q36 0 36 -36v-315q0 -36 -36 -36zM442 -240h-158q-36 0 -36 36v127q0 36 36 36h158q36 0 36 -36v-127q0 -36 -36 -36z" />
    <glyph glyph-name="Ldotbelowmacron" unicode="&#x1e38;" horiz-adv-x="695" 
d="M614 0h-509q-36 0 -36 36v648q0 36 36 36h155q36 0 36 -36v-495h137v162q0 36 36 36h145q36 0 36 -36v-315q0 -36 -36 -36zM442 -240h-158q-36 0 -36 36v127q0 36 36 36h158q36 0 36 -36v-127q0 -36 -36 -36zM523 760h-347q-36 0 -36 36v93q0 36 36 36h347q36 0 36 -36
v-93q0 -36 -36 -36z" />
    <glyph glyph-name="ldotbelowmacron" unicode="&#x1e39;" horiz-adv-x="695" 
d="M614 0h-509q-36 0 -36 36v648q0 36 36 36h155q36 0 36 -36v-495h137v162q0 36 36 36h145q36 0 36 -36v-315q0 -36 -36 -36zM442 -240h-158q-36 0 -36 36v127q0 36 36 36h158q36 0 36 -36v-127q0 -36 -36 -36zM523 760h-347q-36 0 -36 36v93q0 36 36 36h347q36 0 36 -36
v-93q0 -36 -36 -36z" />
    <glyph glyph-name="Llinebelow" unicode="&#x1e3a;" horiz-adv-x="695" 
d="M614 0h-509q-36 0 -36 36v648q0 36 36 36h155q36 0 36 -36v-495h137v162q0 36 36 36h145q36 0 36 -36v-315q0 -36 -36 -36zM521 -205h-347q-36 0 -36 36v93q0 36 36 36h347q36 0 36 -36v-93q0 -36 -36 -36z" />
    <glyph glyph-name="llinebelow" unicode="&#x1e3b;" horiz-adv-x="695" 
d="M614 0h-509q-36 0 -36 36v648q0 36 36 36h155q36 0 36 -36v-495h137v162q0 36 36 36h145q36 0 36 -36v-315q0 -36 -36 -36zM521 -205h-347q-36 0 -36 36v93q0 36 36 36h347q36 0 36 -36v-93q0 -36 -36 -36z" />
    <glyph glyph-name="Mdotbelow" unicode="&#x1e42;" horiz-adv-x="849" 
d="M254 0h-149q-36 0 -36 36v648q0 36 36 36h161q30 0 46 -30l90 -163q10 -17 18 -17h9q8 0 18 17l89 163q16 30 46 30h162q36 0 36 -36v-648q0 -36 -36 -36h-154q-36 0 -36 36v352l-59 -109q-17 -32 -53 -32h-40q-36 0 -53 32l-59 109v-352q0 -36 -36 -36zM503 -240h-158
q-36 0 -36 36v127q0 36 36 36h158q36 0 36 -36v-127q0 -36 -36 -36z" />
    <glyph glyph-name="mdotbelow" unicode="&#x1e43;" horiz-adv-x="849" 
d="M254 0h-149q-36 0 -36 36v648q0 36 36 36h161q30 0 46 -30l90 -163q10 -17 18 -17h9q8 0 18 17l89 163q16 30 46 30h162q36 0 36 -36v-648q0 -36 -36 -36h-154q-36 0 -36 36v352l-59 -109q-17 -32 -53 -32h-40q-36 0 -53 32l-59 109v-352q0 -36 -36 -36zM503 -240h-158
q-36 0 -36 36v127q0 36 36 36h158q36 0 36 -36v-127q0 -36 -36 -36z" />
    <glyph glyph-name="Ndotaccent" unicode="&#x1e44;" horiz-adv-x="753" 
d="M255 0h-150q-36 0 -36 36v648q0 36 36 36h104q36 0 59 -27l194 -222v213q0 36 36 36h150q36 0 36 -36v-648q0 -36 -36 -36h-150q-36 0 -36 36v123l-171 207v-330q0 -36 -36 -36zM456 760h-158q-36 0 -36 36v127q0 36 36 36h158q36 0 36 -36v-127q0 -36 -36 -36z" />
    <glyph glyph-name="ndotaccent" unicode="&#x1e45;" horiz-adv-x="753" 
d="M255 0h-150q-36 0 -36 36v648q0 36 36 36h104q36 0 59 -27l194 -222v213q0 36 36 36h150q36 0 36 -36v-648q0 -36 -36 -36h-150q-36 0 -36 36v123l-171 207v-330q0 -36 -36 -36zM456 760h-158q-36 0 -36 36v127q0 36 36 36h158q36 0 36 -36v-127q0 -36 -36 -36z" />
    <glyph glyph-name="Ndotbelow" unicode="&#x1e46;" horiz-adv-x="753" 
d="M255 0h-150q-36 0 -36 36v648q0 36 36 36h104q36 0 59 -27l194 -222v213q0 36 36 36h150q36 0 36 -36v-648q0 -36 -36 -36h-150q-36 0 -36 36v123l-171 207v-330q0 -36 -36 -36zM456 -240h-158q-36 0 -36 36v127q0 36 36 36h158q36 0 36 -36v-127q0 -36 -36 -36z" />
    <glyph glyph-name="ndotbelow" unicode="&#x1e47;" horiz-adv-x="753" 
d="M255 0h-150q-36 0 -36 36v648q0 36 36 36h104q36 0 59 -27l194 -222v213q0 36 36 36h150q36 0 36 -36v-648q0 -36 -36 -36h-150q-36 0 -36 36v123l-171 207v-330q0 -36 -36 -36zM456 -240h-158q-36 0 -36 36v127q0 36 36 36h158q36 0 36 -36v-127q0 -36 -36 -36z" />
    <glyph glyph-name="Nlinebelow" unicode="&#x1e48;" horiz-adv-x="753" 
d="M255 0h-150q-36 0 -36 36v648q0 36 36 36h104q36 0 59 -27l194 -222v213q0 36 36 36h150q36 0 36 -36v-648q0 -36 -36 -36h-150q-36 0 -36 36v123l-171 207v-330q0 -36 -36 -36zM550 -205h-347q-36 0 -36 36v93q0 36 36 36h347q36 0 36 -36v-93q0 -36 -36 -36z" />
    <glyph glyph-name="nlinebelow" unicode="&#x1e49;" horiz-adv-x="753" 
d="M255 0h-150q-36 0 -36 36v648q0 36 36 36h104q36 0 59 -27l194 -222v213q0 36 36 36h150q36 0 36 -36v-648q0 -36 -36 -36h-150q-36 0 -36 36v123l-171 207v-330q0 -36 -36 -36zM550 -205h-347q-36 0 -36 36v93q0 36 36 36h347q36 0 36 -36v-93q0 -36 -36 -36z" />
    <glyph glyph-name="Rdotbelow" unicode="&#x1e5a;" horiz-adv-x="743" 
d="M295 540v-128h75q44 0 44 47v34q0 47 -44 47h-75zM259 0h-154q-36 0 -36 36v648q0 36 36 36h333q107 0 152 -43.5t45 -123.5v-46q0 -90 -56 -114q56 -6 88.5 -44.5t32.5 -100.5v-212q0 -36 -36 -36h-155q-36 0 -36 36v153q0 23 -8.5 33t-29.5 10h-140v-196q0 -36 -36 -36
zM466 -240h-158q-36 0 -36 36v127q0 36 36 36h158q36 0 36 -36v-127q0 -36 -36 -36z" />
    <glyph glyph-name="rdotbelow" unicode="&#x1e5b;" horiz-adv-x="743" 
d="M295 540v-128h75q44 0 44 47v34q0 47 -44 47h-75zM259 0h-154q-36 0 -36 36v648q0 36 36 36h333q107 0 152 -43.5t45 -123.5v-46q0 -90 -56 -114q56 -6 88.5 -44.5t32.5 -100.5v-212q0 -36 -36 -36h-155q-36 0 -36 36v153q0 23 -8.5 33t-29.5 10h-140v-196q0 -36 -36 -36
zM466 -240h-158q-36 0 -36 36v127q0 36 36 36h158q36 0 36 -36v-127q0 -36 -36 -36z" />
    <glyph glyph-name="Rdotbelowmacron" unicode="&#x1e5c;" horiz-adv-x="743" 
d="M295 540v-128h75q44 0 44 47v34q0 47 -44 47h-75zM259 0h-154q-36 0 -36 36v648q0 36 36 36h333q107 0 152 -43.5t45 -123.5v-46q0 -90 -56 -114q56 -6 88.5 -44.5t32.5 -100.5v-212q0 -36 -36 -36h-155q-36 0 -36 36v153q0 23 -8.5 33t-29.5 10h-140v-196q0 -36 -36 -36
zM503 760h-347q-36 0 -36 36v93q0 36 36 36h347q36 0 36 -36v-93q0 -36 -36 -36zM466 -240h-158q-36 0 -36 36v127q0 36 36 36h158q36 0 36 -36v-127q0 -36 -36 -36z" />
    <glyph glyph-name="rdotbelowmacron" unicode="&#x1e5d;" horiz-adv-x="743" 
d="M295 540v-128h75q44 0 44 47v34q0 47 -44 47h-75zM259 0h-154q-36 0 -36 36v648q0 36 36 36h333q107 0 152 -43.5t45 -123.5v-46q0 -90 -56 -114q56 -6 88.5 -44.5t32.5 -100.5v-212q0 -36 -36 -36h-155q-36 0 -36 36v153q0 23 -8.5 33t-29.5 10h-140v-196q0 -36 -36 -36
zM503 760h-347q-36 0 -36 36v93q0 36 36 36h347q36 0 36 -36v-93q0 -36 -36 -36zM466 -240h-158q-36 0 -36 36v127q0 36 36 36h158q36 0 36 -36v-127q0 -36 -36 -36z" />
    <glyph glyph-name="Rlinebelow" unicode="&#x1e5e;" horiz-adv-x="743" 
d="M295 540v-128h75q44 0 44 47v34q0 47 -44 47h-75zM259 0h-154q-36 0 -36 36v648q0 36 36 36h333q107 0 152 -43.5t45 -123.5v-46q0 -90 -56 -114q56 -6 88.5 -44.5t32.5 -100.5v-212q0 -36 -36 -36h-155q-36 0 -36 36v153q0 23 -8.5 33t-29.5 10h-140v-196q0 -36 -36 -36
zM545 -205h-347q-36 0 -36 36v93q0 36 36 36h347q36 0 36 -36v-93q0 -36 -36 -36z" />
    <glyph glyph-name="rlinebelow" unicode="&#x1e5f;" horiz-adv-x="743" 
d="M295 540v-128h75q44 0 44 47v34q0 47 -44 47h-75zM259 0h-154q-36 0 -36 36v648q0 36 36 36h333q107 0 152 -43.5t45 -123.5v-46q0 -90 -56 -114q56 -6 88.5 -44.5t32.5 -100.5v-212q0 -36 -36 -36h-155q-36 0 -36 36v153q0 23 -8.5 33t-29.5 10h-140v-196q0 -36 -36 -36
zM545 -205h-347q-36 0 -36 36v93q0 36 36 36h347q36 0 36 -36v-93q0 -36 -36 -36z" />
    <glyph glyph-name="Sdotaccent" unicode="&#x1e60;" horiz-adv-x="650" 
d="M403 0h-316q-36 0 -36 36v117q0 36 36 36h269q26 0 26 29q0 31 -26 34l-150 21q-76 11 -115.5 49t-39.5 117v105q0 85 54.5 130.5t152.5 45.5h280q36 0 36 -36v-119q0 -36 -36 -36h-233q-27 0 -27 -30q0 -29 27 -32l149 -20q76 -11 116 -49t40 -117v-105
q0 -85 -54.5 -130.5t-152.5 -45.5zM410 760h-158q-36 0 -36 36v127q0 36 36 36h158q36 0 36 -36v-127q0 -36 -36 -36z" />
    <glyph glyph-name="sdotaccent" unicode="&#x1e61;" horiz-adv-x="650" 
d="M403 0h-316q-36 0 -36 36v117q0 36 36 36h269q26 0 26 29q0 31 -26 34l-150 21q-76 11 -115.5 49t-39.5 117v105q0 85 54.5 130.5t152.5 45.5h280q36 0 36 -36v-119q0 -36 -36 -36h-233q-27 0 -27 -30q0 -29 27 -32l149 -20q76 -11 116 -49t40 -117v-105
q0 -85 -54.5 -130.5t-152.5 -45.5zM410 760h-158q-36 0 -36 36v127q0 36 36 36h158q36 0 36 -36v-127q0 -36 -36 -36z" />
    <glyph glyph-name="Sdotbelow" unicode="&#x1e62;" horiz-adv-x="650" 
d="M403 0h-316q-36 0 -36 36v117q0 36 36 36h269q26 0 26 29q0 31 -26 34l-150 21q-76 11 -115.5 49t-39.5 117v105q0 85 54.5 130.5t152.5 45.5h280q36 0 36 -36v-119q0 -36 -36 -36h-233q-27 0 -27 -30q0 -29 27 -32l149 -20q76 -11 116 -49t40 -117v-105
q0 -85 -54.5 -130.5t-152.5 -45.5zM413 -240h-158q-36 0 -36 36v127q0 36 36 36h158q36 0 36 -36v-127q0 -36 -36 -36z" />
    <glyph glyph-name="sdotbelow" unicode="&#x1e63;" horiz-adv-x="650" 
d="M403 0h-316q-36 0 -36 36v117q0 36 36 36h269q26 0 26 29q0 31 -26 34l-150 21q-76 11 -115.5 49t-39.5 117v105q0 85 54.5 130.5t152.5 45.5h280q36 0 36 -36v-119q0 -36 -36 -36h-233q-27 0 -27 -30q0 -29 27 -32l149 -20q76 -11 116 -49t40 -117v-105
q0 -85 -54.5 -130.5t-152.5 -45.5zM413 -240h-158q-36 0 -36 36v127q0 36 36 36h158q36 0 36 -36v-127q0 -36 -36 -36z" />
    <glyph glyph-name="Tdotbelow" unicode="&#x1e6c;" horiz-adv-x="656" 
d="M409 0h-162q-36 0 -36 36v491h-147q-36 0 -36 36v121q0 36 36 36h528q36 0 36 -36v-121q0 -36 -36 -36h-147v-491q0 -36 -36 -36zM407 -240h-158q-36 0 -36 36v127q0 36 36 36h158q36 0 36 -36v-127q0 -36 -36 -36z" />
    <glyph glyph-name="tdotbelow" unicode="&#x1e6d;" horiz-adv-x="656" 
d="M409 0h-162q-36 0 -36 36v491h-147q-36 0 -36 36v121q0 36 36 36h528q36 0 36 -36v-121q0 -36 -36 -36h-147v-491q0 -36 -36 -36zM407 -240h-158q-36 0 -36 36v127q0 36 36 36h158q36 0 36 -36v-127q0 -36 -36 -36z" />
    <glyph glyph-name="Tlinebelow" unicode="&#x1e6e;" horiz-adv-x="656" 
d="M409 0h-162q-36 0 -36 36v491h-147q-36 0 -36 36v121q0 36 36 36h528q36 0 36 -36v-121q0 -36 -36 -36h-147v-491q0 -36 -36 -36zM502 -205h-347q-36 0 -36 36v93q0 36 36 36h347q36 0 36 -36v-93q0 -36 -36 -36z" />
    <glyph glyph-name="tlinebelow" unicode="&#x1e6f;" horiz-adv-x="656" 
d="M409 0h-162q-36 0 -36 36v491h-147q-36 0 -36 36v121q0 36 36 36h528q36 0 36 -36v-121q0 -36 -36 -36h-147v-491q0 -36 -36 -36zM502 -205h-347q-36 0 -36 36v93q0 36 36 36h347q36 0 36 -36v-93q0 -36 -36 -36z" />
    <glyph glyph-name="Wgrave" unicode="&#x1e80;" horiz-adv-x="831" 
d="M586 720h149q36 0 36 -36v-388q0 -75 -18 -124l-50 -136q-13 -36 -40 -36h-133q-37 0 -46 30l-46 163q-5 17 -18 17h-9q-13 0 -18 -17l-47 -163q-9 -30 -42 -30h-132q-32 0 -44 36l-50 138q-18 49 -18 124v386q0 36 36 36h154q36 0 36 -36v-368l58 126q15 31 53 31h42
q38 0 53 -31l58 -126v368q0 36 36 36zM580 753l-349 43q-19 2 -27.5 10t-8.5 26v96q0 37 34 33l349 -43q19 -2 27.5 -10t8.5 -26v-96q0 -37 -34 -33z" />
    <glyph glyph-name="wgrave" unicode="&#x1e81;" horiz-adv-x="831" 
d="M586 720h149q36 0 36 -36v-388q0 -75 -18 -124l-50 -136q-13 -36 -40 -36h-133q-37 0 -46 30l-46 163q-5 17 -18 17h-9q-13 0 -18 -17l-47 -163q-9 -30 -42 -30h-132q-32 0 -44 36l-50 138q-18 49 -18 124v386q0 36 36 36h154q36 0 36 -36v-368l58 126q15 31 53 31h42
q38 0 53 -31l58 -126v368q0 36 36 36zM580 753l-349 43q-19 2 -27.5 10t-8.5 26v96q0 37 34 33l349 -43q19 -2 27.5 -10t8.5 -26v-96q0 -37 -34 -33z" />
    <glyph glyph-name="Wacute" unicode="&#x1e82;" horiz-adv-x="831" 
d="M586 720h149q36 0 36 -36v-388q0 -75 -18 -124l-50 -136q-13 -36 -40 -36h-133q-37 0 -46 30l-46 163q-5 17 -18 17h-9q-13 0 -18 -17l-47 -163q-9 -30 -42 -30h-132q-32 0 -44 36l-50 138q-18 49 -18 124v386q0 36 36 36h154q36 0 36 -36v-368l58 126q15 31 53 31h42
q38 0 53 -31l58 -126v368q0 36 36 36zM598 796l-349 -43q-34 -4 -34 33v96q0 18 8.5 26t27.5 10l349 43q34 4 34 -33v-96q0 -18 -8.5 -26t-27.5 -10z" />
    <glyph glyph-name="wacute" unicode="&#x1e83;" horiz-adv-x="831" 
d="M586 720h149q36 0 36 -36v-388q0 -75 -18 -124l-50 -136q-13 -36 -40 -36h-133q-37 0 -46 30l-46 163q-5 17 -18 17h-9q-13 0 -18 -17l-47 -163q-9 -30 -42 -30h-132q-32 0 -44 36l-50 138q-18 49 -18 124v386q0 36 36 36h154q36 0 36 -36v-368l58 126q15 31 53 31h42
q38 0 53 -31l58 -126v368q0 36 36 36zM598 796l-349 -43q-34 -4 -34 33v96q0 18 8.5 26t27.5 10l349 43q34 4 34 -33v-96q0 -18 -8.5 -26t-27.5 -10z" />
    <glyph glyph-name="Wdieresis" unicode="&#x1e84;" horiz-adv-x="831" 
d="M586 720h149q36 0 36 -36v-388q0 -75 -18 -124l-50 -136q-13 -36 -40 -36h-133q-37 0 -46 30l-46 163q-5 17 -18 17h-9q-13 0 -18 -17l-47 -163q-9 -30 -42 -30h-132q-32 0 -44 36l-50 138q-18 49 -18 124v386q0 36 36 36h154q36 0 36 -36v-368l58 126q15 31 53 31h42
q38 0 53 -31l58 -126v368q0 36 36 36zM611 760h-138q-33 0 -33 33v121q0 33 33 33h138q33 0 33 -33v-121q0 -33 -33 -33zM353 760h-138q-34 0 -34 33v121q0 33 34 33h138q33 0 33 -33v-121q0 -33 -33 -33z" />
    <glyph glyph-name="wdieresis" unicode="&#x1e85;" horiz-adv-x="831" 
d="M586 720h149q36 0 36 -36v-388q0 -75 -18 -124l-50 -136q-13 -36 -40 -36h-133q-37 0 -46 30l-46 163q-5 17 -18 17h-9q-13 0 -18 -17l-47 -163q-9 -30 -42 -30h-132q-32 0 -44 36l-50 138q-18 49 -18 124v386q0 36 36 36h154q36 0 36 -36v-368l58 126q15 31 53 31h42
q38 0 53 -31l58 -126v368q0 36 36 36zM611 760h-138q-33 0 -33 33v121q0 33 33 33h138q33 0 33 -33v-121q0 -33 -33 -33zM353 760h-138q-34 0 -34 33v121q0 33 34 33h138q33 0 33 -33v-121q0 -33 -33 -33z" />
    <glyph glyph-name="Ydotaccent" unicode="&#x1e8e;" horiz-adv-x="705" 
d="M434 0h-162q-36 0 -36 36v128l-153 205q-24 31 -31 54t-7 69v192q0 36 36 36h154q36 0 36 -36v-164q0 -28 9 -42l46 -72q10 -17 24 -17h10q14 0 24 17l46 72q9 14 9 42v164q0 36 36 36h149q36 0 36 -36v-192q0 -45 -7.5 -68t-30.5 -55l-152 -206v-127q0 -36 -36 -36z
M432 760h-158q-36 0 -36 36v127q0 36 36 36h158q36 0 36 -36v-127q0 -36 -36 -36z" />
    <glyph glyph-name="ydotaccent" unicode="&#x1e8f;" horiz-adv-x="705" 
d="M434 0h-162q-36 0 -36 36v128l-153 205q-24 31 -31 54t-7 69v192q0 36 36 36h154q36 0 36 -36v-164q0 -28 9 -42l46 -72q10 -17 24 -17h10q14 0 24 17l46 72q9 14 9 42v164q0 36 36 36h149q36 0 36 -36v-192q0 -45 -7.5 -68t-30.5 -55l-152 -206v-127q0 -36 -36 -36z
M432 760h-158q-36 0 -36 36v127q0 36 36 36h158q36 0 36 -36v-127q0 -36 -36 -36z" />
    <glyph glyph-name="Zdotbelow" unicode="&#x1e92;" horiz-adv-x="660" 
d="M578 0h-496q-36 0 -36 36v134q0 36 25 62l243 295h-214q-36 0 -36 36v121q0 36 36 36h460q36 0 36 -36v-149q0 -37 -25 -63l-232 -281h239q36 0 36 -36v-119q0 -36 -36 -36zM419 -240h-158q-36 0 -36 36v127q0 36 36 36h158q36 0 36 -36v-127q0 -36 -36 -36z" />
    <glyph glyph-name="zdotbelow" unicode="&#x1e93;" horiz-adv-x="660" 
d="M578 0h-496q-36 0 -36 36v134q0 36 25 62l243 295h-214q-36 0 -36 36v121q0 36 36 36h460q36 0 36 -36v-149q0 -37 -25 -63l-232 -281h239q36 0 36 -36v-119q0 -36 -36 -36zM419 -240h-158q-36 0 -36 36v127q0 36 36 36h158q36 0 36 -36v-127q0 -36 -36 -36z" />
    <glyph glyph-name="tdieresis" unicode="&#x1e97;" horiz-adv-x="656" 
d="M409 0h-162q-36 0 -36 36v491h-147q-36 0 -36 36v121q0 36 36 36h528q36 0 36 -36v-121q0 -36 -36 -36h-147v-491q0 -36 -36 -36zM527 760h-138q-33 0 -33 33v121q0 33 33 33h138q33 0 33 -33v-121q0 -33 -33 -33zM269 760h-138q-34 0 -34 33v121q0 33 34 33h138
q33 0 33 -33v-121q0 -33 -33 -33z" />
    <glyph glyph-name="Germandbls" unicode="&#x1e9e;" horiz-adv-x="759" 
d="M296 36q0 -36 -36 -36h-155q-36 0 -36 36v648q0 36 36 36h371q88 0 127.5 -53.5t16.5 -137.5l-23 -83q57 -10 92.5 -50.5t35.5 -106.5v-123q0 -77 -52.5 -121.5t-142.5 -44.5h-138q-36 0 -36 36v117q0 36 36 36h78q27 0 27 23v49q0 23 -27 23h-72q-49 0 -37 56l33 163
q6 28 -19 28h-79v-495z" />
    <glyph glyph-name="Adotbelow" unicode="&#x1ea0;" horiz-adv-x="730" 
d="M330 510l-47 -152h157l-47 152q-7 17 -19 17h-25q-12 0 -19 -17zM273 36q0 -36 -36 -36h-147q-36 0 -36 36v264q0 59 39 160l87 227q11 33 51 33h269q39 0 50 -33l87 -227q39 -101 39 -160v-264q0 -36 -36 -36h-151q-39 0 -39 36v140h-177v-140zM444 -240h-158
q-36 0 -36 36v127q0 36 36 36h158q36 0 36 -36v-127q0 -36 -36 -36z" />
    <glyph glyph-name="adotbelow" unicode="&#x1ea1;" horiz-adv-x="730" 
d="M330 510l-47 -152h157l-47 152q-7 17 -19 17h-25q-12 0 -19 -17zM273 36q0 -36 -36 -36h-147q-36 0 -36 36v264q0 59 39 160l87 227q11 33 51 33h269q39 0 50 -33l87 -227q39 -101 39 -160v-264q0 -36 -36 -36h-151q-39 0 -39 36v140h-177v-140zM444 -240h-158
q-36 0 -36 36v127q0 36 36 36h158q36 0 36 -36v-127q0 -36 -36 -36z" />
    <glyph glyph-name="Ahookabove" unicode="&#x1ea2;" horiz-adv-x="730" 
d="M330 510l-47 -152h157l-47 152q-7 17 -19 17h-25q-12 0 -19 -17zM273 36q0 -36 -36 -36h-147q-36 0 -36 36v264q0 59 39 160l87 227q11 33 51 33h269q39 0 50 -33l87 -227q39 -101 39 -160v-264q0 -36 -36 -36h-151q-39 0 -39 36v140h-177v-140zM439 767l-141 -19
q-17 -3 -20 16l-11 79q-3 18 17 21l89 14q19 3 19 17t-19 14h-129q-19 0 -19 19v73q0 19 19 19h168q52 0 80 -26t28 -76v-64q0 -42 -20.5 -61.5t-60.5 -25.5z" />
    <glyph glyph-name="ahookabove" unicode="&#x1ea3;" horiz-adv-x="730" 
d="M330 510l-47 -152h157l-47 152q-7 17 -19 17h-25q-12 0 -19 -17zM273 36q0 -36 -36 -36h-147q-36 0 -36 36v264q0 59 39 160l87 227q11 33 51 33h269q39 0 50 -33l87 -227q39 -101 39 -160v-264q0 -36 -36 -36h-151q-39 0 -39 36v140h-177v-140zM439 767l-141 -19
q-17 -3 -20 16l-11 79q-3 18 17 21l89 14q19 3 19 17t-19 14h-129q-19 0 -19 19v73q0 19 19 19h168q52 0 80 -26t28 -76v-64q0 -42 -20.5 -61.5t-60.5 -25.5z" />
    <glyph glyph-name="Acircumflexacute" unicode="&#x1ea4;" horiz-adv-x="730" 
d="M330 510l-47 -152h157l-47 152q-7 17 -19 17h-25q-12 0 -19 -17zM273 36q0 -36 -36 -36h-147q-36 0 -36 36v264q0 59 39 160l87 227q11 33 51 33h269q39 0 50 -33l87 -227q39 -101 39 -160v-264q0 -36 -36 -36h-151q-39 0 -39 36v140h-177v-140zM333 797l-137 -40
q-26 -8 -33.5 -2t-7.5 33v81q0 18 4 27.5t11 13.5t26 12l128 46q17 7 39 9q19 0 32 -5l137 -50q27 -10 34.5 -18.5t7.5 -34.5v-81q0 -27 -8 -33t-34 2l-137 40q-31 8 -62 0zM580 1202q16 4 25 -5.5t9 -27.5v-106q0 -17 -8 -24t-28 -12l-137 -33q-16 -4 -25 5.5t-9 27.5v106
q0 17 8 24t28 12z" />
    <glyph glyph-name="acircumflexacute" unicode="&#x1ea5;" horiz-adv-x="730" 
d="M330 510l-47 -152h157l-47 152q-7 17 -19 17h-25q-12 0 -19 -17zM273 36q0 -36 -36 -36h-147q-36 0 -36 36v264q0 59 39 160l87 227q11 33 51 33h269q39 0 50 -33l87 -227q39 -101 39 -160v-264q0 -36 -36 -36h-151q-39 0 -39 36v140h-177v-140zM333 797l-137 -40
q-26 -8 -33.5 -2t-7.5 33v81q0 18 4 27.5t11 13.5t26 12l128 46q17 7 39 9q19 0 32 -5l137 -50q27 -10 34.5 -18.5t7.5 -34.5v-81q0 -27 -8 -33t-34 2l-137 40q-31 8 -62 0zM580 1202q16 4 25 -5.5t9 -27.5v-106q0 -17 -8 -24t-28 -12l-137 -33q-16 -4 -25 5.5t-9 27.5v106
q0 17 8 24t28 12z" />
    <glyph glyph-name="Acircumflexgrave" unicode="&#x1ea6;" horiz-adv-x="730" 
d="M330 510l-47 -152h157l-47 152q-7 17 -19 17h-25q-12 0 -19 -17zM273 36q0 -36 -36 -36h-147q-36 0 -36 36v264q0 59 39 160l87 227q11 33 51 33h269q39 0 50 -33l87 -227q39 -101 39 -160v-264q0 -36 -36 -36h-151q-39 0 -39 36v140h-177v-140zM333 797l-137 -40
q-26 -8 -33.5 -2t-7.5 33v81q0 18 4 27.5t11 13.5t26 12l128 46q17 7 39 9q19 0 32 -5l137 -50q27 -10 34.5 -18.5t7.5 -34.5v-81q0 -27 -8 -33t-34 2l-137 40q-31 8 -62 0zM421 1177l137 -33q20 -5 28 -12t8 -24v-106q0 -18 -9 -27.5t-25 -5.5l-137 33q-20 5 -28 12t-8 24
v106q0 18 9 27.5t25 5.5z" />
    <glyph glyph-name="acircumflexgrave" unicode="&#x1ea7;" horiz-adv-x="730" 
d="M330 510l-47 -152h157l-47 152q-7 17 -19 17h-25q-12 0 -19 -17zM273 36q0 -36 -36 -36h-147q-36 0 -36 36v264q0 59 39 160l87 227q11 33 51 33h269q39 0 50 -33l87 -227q39 -101 39 -160v-264q0 -36 -36 -36h-151q-39 0 -39 36v140h-177v-140zM333 797l-137 -40
q-26 -8 -33.5 -2t-7.5 33v81q0 18 4 27.5t11 13.5t26 12l128 46q17 7 39 9q19 0 32 -5l137 -50q27 -10 34.5 -18.5t7.5 -34.5v-81q0 -27 -8 -33t-34 2l-137 40q-31 8 -62 0zM421 1177l137 -33q20 -5 28 -12t8 -24v-106q0 -18 -9 -27.5t-25 -5.5l-137 33q-20 5 -28 12t-8 24
v106q0 18 9 27.5t25 5.5z" />
    <glyph glyph-name="Acircumflexhookabove" unicode="&#x1ea8;" horiz-adv-x="730" 
d="M330 510l-47 -152h157l-47 152q-7 17 -19 17h-25q-12 0 -19 -17zM273 36q0 -36 -36 -36h-147q-36 0 -36 36v264q0 59 39 160l87 227q11 33 51 33h269q39 0 50 -33l87 -227q39 -101 39 -160v-264q0 -36 -36 -36h-151q-39 0 -39 36v140h-177v-140zM333 797l-137 -40
q-26 -8 -33.5 -2t-7.5 33v81q0 18 4 27.5t11 13.5t26 12l128 46q17 7 39 9q19 0 32 -5l137 -50q27 -10 34.5 -18.5t7.5 -34.5v-81q0 -27 -8 -33t-34 2l-137 40q-31 8 -62 0zM618 991l-141 -19q-17 -3 -20 16l-11 79q-3 18 17 21l89 14q19 3 19 17t-19 14h-129q-19 0 -19 19
v73q0 19 19 19h168q52 0 80 -26t28 -76v-64q0 -42 -20.5 -61.5t-60.5 -25.5z" />
    <glyph glyph-name="acircumflexhookabove" unicode="&#x1ea9;" horiz-adv-x="730" 
d="M330 510l-47 -152h157l-47 152q-7 17 -19 17h-25q-12 0 -19 -17zM273 36q0 -36 -36 -36h-147q-36 0 -36 36v264q0 59 39 160l87 227q11 33 51 33h269q39 0 50 -33l87 -227q39 -101 39 -160v-264q0 -36 -36 -36h-151q-39 0 -39 36v140h-177v-140zM333 797l-137 -40
q-26 -8 -33.5 -2t-7.5 33v81q0 18 4 27.5t11 13.5t26 12l128 46q17 7 39 9q19 0 32 -5l137 -50q27 -10 34.5 -18.5t7.5 -34.5v-81q0 -27 -8 -33t-34 2l-137 40q-31 8 -62 0zM618 991l-141 -19q-17 -3 -20 16l-11 79q-3 18 17 21l89 14q19 3 19 17t-19 14h-129q-19 0 -19 19
v73q0 19 19 19h168q52 0 80 -26t28 -76v-64q0 -42 -20.5 -61.5t-60.5 -25.5z" />
    <glyph glyph-name="Acircumflextilde" unicode="&#x1eaa;" horiz-adv-x="730" 
d="M330 510l-47 -152h157l-47 152q-7 17 -19 17h-25q-12 0 -19 -17zM273 36q0 -36 -36 -36h-147q-36 0 -36 36v264q0 59 39 160l87 227q11 33 51 33h269q39 0 50 -33l87 -227q39 -101 39 -160v-264q0 -36 -36 -36h-151q-39 0 -39 36v140h-177v-140zM333 797l-137 -40
q-26 -8 -33.5 -2t-7.5 33v81q0 18 4 27.5t11 13.5t26 12l128 46q17 7 39 9q19 0 32 -5l137 -50q27 -10 34.5 -18.5t7.5 -34.5v-81q0 -27 -8 -33t-34 2l-137 40q-31 8 -62 0zM364 1014l-28 4q-60 7 -81 5.5t-64 -14.5q-36 -11 -36 26v101q0 17 8 25t28 16q45 14 71.5 14.5
t84.5 -9.5l17 -2l22 -3q69 -9 86.5 -7.5t64.5 15.5q36 11 36 -26v-101q0 -17 -8 -25t-28 -16q-45 -14 -72 -14.5t-85 9.5z" />
    <glyph glyph-name="acircumflextilde" unicode="&#x1eab;" horiz-adv-x="730" 
d="M330 510l-47 -152h157l-47 152q-7 17 -19 17h-25q-12 0 -19 -17zM273 36q0 -36 -36 -36h-147q-36 0 -36 36v264q0 59 39 160l87 227q11 33 51 33h269q39 0 50 -33l87 -227q39 -101 39 -160v-264q0 -36 -36 -36h-151q-39 0 -39 36v140h-177v-140zM333 797l-137 -40
q-26 -8 -33.5 -2t-7.5 33v81q0 18 4 27.5t11 13.5t26 12l128 46q17 7 39 9q19 0 32 -5l137 -50q27 -10 34.5 -18.5t7.5 -34.5v-81q0 -27 -8 -33t-34 2l-137 40q-31 8 -62 0zM364 1014l-28 4q-60 7 -81 5.5t-64 -14.5q-36 -11 -36 26v101q0 17 8 25t28 16q45 14 71.5 14.5
t84.5 -9.5l17 -2l22 -3q69 -9 86.5 -7.5t64.5 15.5q36 11 36 -26v-101q0 -17 -8 -25t-28 -16q-45 -14 -72 -14.5t-85 9.5z" />
    <glyph glyph-name="Acircumflexdotbelow" unicode="&#x1eac;" horiz-adv-x="730" 
d="M330 510l-47 -152h157l-47 152q-7 17 -19 17h-25q-12 0 -19 -17zM273 36q0 -36 -36 -36h-147q-36 0 -36 36v264q0 59 39 160l87 227q11 33 51 33h269q39 0 50 -33l87 -227q39 -101 39 -160v-264q0 -36 -36 -36h-151q-39 0 -39 36v140h-177v-140zM333 797l-137 -40
q-26 -8 -33.5 -2t-7.5 33v81q0 18 4 27.5t11 13.5t26 12l128 46q17 7 39 9q19 0 32 -5l137 -50q27 -10 34.5 -18.5t7.5 -34.5v-81q0 -27 -8 -33t-34 2l-137 40q-31 8 -62 0zM444 -240h-158q-36 0 -36 36v127q0 36 36 36h158q36 0 36 -36v-127q0 -36 -36 -36z" />
    <glyph glyph-name="acircumflexdotbelow" unicode="&#x1ead;" horiz-adv-x="730" 
d="M330 510l-47 -152h157l-47 152q-7 17 -19 17h-25q-12 0 -19 -17zM273 36q0 -36 -36 -36h-147q-36 0 -36 36v264q0 59 39 160l87 227q11 33 51 33h269q39 0 50 -33l87 -227q39 -101 39 -160v-264q0 -36 -36 -36h-151q-39 0 -39 36v140h-177v-140zM333 797l-137 -40
q-26 -8 -33.5 -2t-7.5 33v81q0 18 4 27.5t11 13.5t26 12l128 46q17 7 39 9q19 0 32 -5l137 -50q27 -10 34.5 -18.5t7.5 -34.5v-81q0 -27 -8 -33t-34 2l-137 40q-31 8 -62 0zM444 -240h-158q-36 0 -36 36v127q0 36 36 36h158q36 0 36 -36v-127q0 -36 -36 -36z" />
    <glyph glyph-name="Abreveacute" unicode="&#x1eae;" horiz-adv-x="730" 
d="M330 510l-47 -152h157l-47 152q-7 17 -19 17h-25q-12 0 -19 -17zM273 36q0 -36 -36 -36h-147q-36 0 -36 36v264q0 59 39 160l87 227q11 33 51 33h269q39 0 50 -33l87 -227q39 -101 39 -160v-264q0 -36 -36 -36h-151q-39 0 -39 36v140h-177v-140zM582 897
q0 -70 -47.5 -106.5t-169.5 -36.5t-169.5 36.5t-47.5 106.5v44q0 36 36 36h96q16 0 22.5 -6.5t6.5 -24.5v-21q0 -16 11.5 -24.5t45.5 -8.5q35 0 47 8.5t12 24.5v21q0 18 6.5 24.5t23.5 6.5h91q36 0 36 -36v-44zM487 1202q16 4 25 -5.5t9 -27.5v-106q0 -17 -8 -24t-28 -12
l-137 -33q-16 -4 -25 5.5t-9 27.5v106q0 17 8 24t28 12z" />
    <glyph glyph-name="abreveacute" unicode="&#x1eaf;" horiz-adv-x="730" 
d="M330 510l-47 -152h157l-47 152q-7 17 -19 17h-25q-12 0 -19 -17zM273 36q0 -36 -36 -36h-147q-36 0 -36 36v264q0 59 39 160l87 227q11 33 51 33h269q39 0 50 -33l87 -227q39 -101 39 -160v-264q0 -36 -36 -36h-151q-39 0 -39 36v140h-177v-140zM582 897
q0 -70 -47.5 -106.5t-169.5 -36.5t-169.5 36.5t-47.5 106.5v44q0 36 36 36h96q16 0 22.5 -6.5t6.5 -24.5v-21q0 -16 11.5 -24.5t45.5 -8.5q35 0 47 8.5t12 24.5v21q0 18 6.5 24.5t23.5 6.5h91q36 0 36 -36v-44zM487 1202q16 4 25 -5.5t9 -27.5v-106q0 -17 -8 -24t-28 -12
l-137 -33q-16 -4 -25 5.5t-9 27.5v106q0 17 8 24t28 12z" />
    <glyph glyph-name="Abrevegrave" unicode="&#x1eb0;" horiz-adv-x="730" 
d="M330 510l-47 -152h157l-47 152q-7 17 -19 17h-25q-12 0 -19 -17zM273 36q0 -36 -36 -36h-147q-36 0 -36 36v264q0 59 39 160l87 227q11 33 51 33h269q39 0 50 -33l87 -227q39 -101 39 -160v-264q0 -36 -36 -36h-151q-39 0 -39 36v140h-177v-140zM582 897
q0 -70 -47.5 -106.5t-169.5 -36.5t-169.5 36.5t-47.5 106.5v44q0 36 36 36h96q16 0 22.5 -6.5t6.5 -24.5v-21q0 -16 11.5 -24.5t45.5 -8.5q35 0 47 8.5t12 24.5v21q0 18 6.5 24.5t23.5 6.5h91q36 0 36 -36v-44zM247 1202l137 -33q20 -5 28 -12t8 -24v-106q0 -18 -9 -27.5
t-25 -5.5l-137 33q-20 5 -28 12t-8 24v106q0 18 9 27.5t25 5.5z" />
    <glyph glyph-name="abrevegrave" unicode="&#x1eb1;" horiz-adv-x="730" 
d="M330 510l-47 -152h157l-47 152q-7 17 -19 17h-25q-12 0 -19 -17zM273 36q0 -36 -36 -36h-147q-36 0 -36 36v264q0 59 39 160l87 227q11 33 51 33h269q39 0 50 -33l87 -227q39 -101 39 -160v-264q0 -36 -36 -36h-151q-39 0 -39 36v140h-177v-140zM582 897
q0 -70 -47.5 -106.5t-169.5 -36.5t-169.5 36.5t-47.5 106.5v44q0 36 36 36h96q16 0 22.5 -6.5t6.5 -24.5v-21q0 -16 11.5 -24.5t45.5 -8.5q35 0 47 8.5t12 24.5v21q0 18 6.5 24.5t23.5 6.5h91q36 0 36 -36v-44zM247 1202l137 -33q20 -5 28 -12t8 -24v-106q0 -18 -9 -27.5
t-25 -5.5l-137 33q-20 5 -28 12t-8 24v106q0 18 9 27.5t25 5.5z" />
    <glyph glyph-name="Abrevehookabove" unicode="&#x1eb2;" horiz-adv-x="730" 
d="M330 510l-47 -152h157l-47 152q-7 17 -19 17h-25q-12 0 -19 -17zM273 36q0 -36 -36 -36h-147q-36 0 -36 36v264q0 59 39 160l87 227q11 33 51 33h269q39 0 50 -33l87 -227q39 -101 39 -160v-264q0 -36 -36 -36h-151q-39 0 -39 36v140h-177v-140zM582 897
q0 -70 -47.5 -106.5t-169.5 -36.5t-169.5 36.5t-47.5 106.5v44q0 36 36 36h96q16 0 22.5 -6.5t6.5 -24.5v-21q0 -16 11.5 -24.5t45.5 -8.5q35 0 47 8.5t12 24.5v21q0 18 6.5 24.5t23.5 6.5h91q36 0 36 -36v-44zM469 1017l-141 -19q-17 -3 -20 16l-11 79q-3 18 17 21l89 14
q19 3 19 17t-19 14h-129q-19 0 -19 19v73q0 19 19 19h168q52 0 80 -26t28 -76v-64q0 -42 -20.5 -61.5t-60.5 -25.5z" />
    <glyph glyph-name="abrevehookabove" unicode="&#x1eb3;" horiz-adv-x="730" 
d="M330 510l-47 -152h157l-47 152q-7 17 -19 17h-25q-12 0 -19 -17zM273 36q0 -36 -36 -36h-147q-36 0 -36 36v264q0 59 39 160l87 227q11 33 51 33h269q39 0 50 -33l87 -227q39 -101 39 -160v-264q0 -36 -36 -36h-151q-39 0 -39 36v140h-177v-140zM582 897
q0 -70 -47.5 -106.5t-169.5 -36.5t-169.5 36.5t-47.5 106.5v44q0 36 36 36h96q16 0 22.5 -6.5t6.5 -24.5v-21q0 -16 11.5 -24.5t45.5 -8.5q35 0 47 8.5t12 24.5v21q0 18 6.5 24.5t23.5 6.5h91q36 0 36 -36v-44zM469 1017l-141 -19q-17 -3 -20 16l-11 79q-3 18 17 21l89 14
q19 3 19 17t-19 14h-129q-19 0 -19 19v73q0 19 19 19h168q52 0 80 -26t28 -76v-64q0 -42 -20.5 -61.5t-60.5 -25.5z" />
    <glyph glyph-name="Abrevetilde" unicode="&#x1eb4;" horiz-adv-x="730" 
d="M330 510l-47 -152h157l-47 152q-7 17 -19 17h-25q-12 0 -19 -17zM273 36q0 -36 -36 -36h-147q-36 0 -36 36v264q0 59 39 160l87 227q11 33 51 33h269q39 0 50 -33l87 -227q39 -101 39 -160v-264q0 -36 -36 -36h-151q-39 0 -39 36v140h-177v-140zM582 897
q0 -70 -47.5 -106.5t-169.5 -36.5t-169.5 36.5t-47.5 106.5v44q0 36 36 36h96q16 0 22.5 -6.5t6.5 -24.5v-21q0 -16 11.5 -24.5t45.5 -8.5q35 0 47 8.5t12 24.5v21q0 18 6.5 24.5t23.5 6.5h91q36 0 36 -36v-44zM364 1024l-28 4q-60 7 -81 5.5t-64 -14.5q-36 -11 -36 26v101
q0 17 8 25t28 16q45 14 71.5 14.5t84.5 -9.5l17 -2l22 -3q69 -9 86.5 -7.5t64.5 15.5q36 11 36 -26v-101q0 -17 -8 -25t-28 -16q-45 -14 -72 -14.5t-85 9.5z" />
    <glyph glyph-name="abrevetilde" unicode="&#x1eb5;" horiz-adv-x="730" 
d="M330 510l-47 -152h157l-47 152q-7 17 -19 17h-25q-12 0 -19 -17zM273 36q0 -36 -36 -36h-147q-36 0 -36 36v264q0 59 39 160l87 227q11 33 51 33h269q39 0 50 -33l87 -227q39 -101 39 -160v-264q0 -36 -36 -36h-151q-39 0 -39 36v140h-177v-140zM582 897
q0 -70 -47.5 -106.5t-169.5 -36.5t-169.5 36.5t-47.5 106.5v44q0 36 36 36h96q16 0 22.5 -6.5t6.5 -24.5v-21q0 -16 11.5 -24.5t45.5 -8.5q35 0 47 8.5t12 24.5v21q0 18 6.5 24.5t23.5 6.5h91q36 0 36 -36v-44zM364 1024l-28 4q-60 7 -81 5.5t-64 -14.5q-36 -11 -36 26v101
q0 17 8 25t28 16q45 14 71.5 14.5t84.5 -9.5l17 -2l22 -3q69 -9 86.5 -7.5t64.5 15.5q36 11 36 -26v-101q0 -17 -8 -25t-28 -16q-45 -14 -72 -14.5t-85 9.5z" />
    <glyph glyph-name="Abrevedotbelow" unicode="&#x1eb6;" horiz-adv-x="730" 
d="M330 510l-47 -152h157l-47 152q-7 17 -19 17h-25q-12 0 -19 -17zM273 36q0 -36 -36 -36h-147q-36 0 -36 36v264q0 59 39 160l87 227q11 33 51 33h269q39 0 50 -33l87 -227q39 -101 39 -160v-264q0 -36 -36 -36h-151q-39 0 -39 36v140h-177v-140zM582 897
q0 -70 -47.5 -106.5t-169.5 -36.5t-169.5 36.5t-47.5 106.5v44q0 36 36 36h96q16 0 22.5 -6.5t6.5 -24.5v-21q0 -16 11.5 -24.5t45.5 -8.5q35 0 47 8.5t12 24.5v21q0 18 6.5 24.5t23.5 6.5h91q36 0 36 -36v-44zM444 -240h-158q-36 0 -36 36v127q0 36 36 36h158q36 0 36 -36
v-127q0 -36 -36 -36z" />
    <glyph glyph-name="abrevedotbelow" unicode="&#x1eb7;" horiz-adv-x="730" 
d="M330 510l-47 -152h157l-47 152q-7 17 -19 17h-25q-12 0 -19 -17zM273 36q0 -36 -36 -36h-147q-36 0 -36 36v264q0 59 39 160l87 227q11 33 51 33h269q39 0 50 -33l87 -227q39 -101 39 -160v-264q0 -36 -36 -36h-151q-39 0 -39 36v140h-177v-140zM582 897
q0 -70 -47.5 -106.5t-169.5 -36.5t-169.5 36.5t-47.5 106.5v44q0 36 36 36h96q16 0 22.5 -6.5t6.5 -24.5v-21q0 -16 11.5 -24.5t45.5 -8.5q35 0 47 8.5t12 24.5v21q0 18 6.5 24.5t23.5 6.5h91q36 0 36 -36v-44zM444 -240h-158q-36 0 -36 36v127q0 36 36 36h158q36 0 36 -36
v-127q0 -36 -36 -36z" />
    <glyph glyph-name="Edotbelow" unicode="&#x1eb8;" horiz-adv-x="654" 
d="M569 0h-464q-36 0 -36 36v648q0 36 36 36h464q36 0 36 -36v-117q0 -36 -36 -36h-276v-77h195q36 0 36 -36v-107q0 -36 -36 -36h-195v-86h276q36 0 36 -36v-117q0 -36 -36 -36zM419 -240h-158q-36 0 -36 36v127q0 36 36 36h158q36 0 36 -36v-127q0 -36 -36 -36z" />
    <glyph glyph-name="edotbelow" unicode="&#x1eb9;" horiz-adv-x="654" 
d="M569 0h-464q-36 0 -36 36v648q0 36 36 36h464q36 0 36 -36v-117q0 -36 -36 -36h-276v-77h195q36 0 36 -36v-107q0 -36 -36 -36h-195v-86h276q36 0 36 -36v-117q0 -36 -36 -36zM419 -240h-158q-36 0 -36 36v127q0 36 36 36h158q36 0 36 -36v-127q0 -36 -36 -36z" />
    <glyph glyph-name="Ehookabove" unicode="&#x1eba;" horiz-adv-x="654" 
d="M569 0h-464q-36 0 -36 36v648q0 36 36 36h464q36 0 36 -36v-117q0 -36 -36 -36h-276v-77h195q36 0 36 -36v-107q0 -36 -36 -36h-195v-86h276q36 0 36 -36v-117q0 -36 -36 -36zM409 767l-141 -19q-17 -3 -20 16l-11 79q-3 18 17 21l89 14q19 3 19 17t-19 14h-129
q-19 0 -19 19v73q0 19 19 19h168q52 0 80 -26t28 -76v-64q0 -42 -20.5 -61.5t-60.5 -25.5z" />
    <glyph glyph-name="ehookabove" unicode="&#x1ebb;" horiz-adv-x="654" 
d="M569 0h-464q-36 0 -36 36v648q0 36 36 36h464q36 0 36 -36v-117q0 -36 -36 -36h-276v-77h195q36 0 36 -36v-107q0 -36 -36 -36h-195v-86h276q36 0 36 -36v-117q0 -36 -36 -36zM409 767l-141 -19q-17 -3 -20 16l-11 79q-3 18 17 21l89 14q19 3 19 17t-19 14h-129
q-19 0 -19 19v73q0 19 19 19h168q52 0 80 -26t28 -76v-64q0 -42 -20.5 -61.5t-60.5 -25.5z" />
    <glyph glyph-name="Etilde" unicode="&#x1ebc;" horiz-adv-x="654" 
d="M569 0h-464q-36 0 -36 36v648q0 36 36 36h464q36 0 36 -36v-117q0 -36 -36 -36h-276v-77h195q36 0 36 -36v-107q0 -36 -36 -36h-195v-86h276q36 0 36 -36v-117q0 -36 -36 -36zM336 764l-28 4q-60 7 -81 5.5t-64 -14.5q-36 -11 -36 26v101q0 17 8 25t28 16
q45 14 71.5 14.5t84.5 -9.5l17 -2l22 -3q69 -9 86.5 -7.5t64.5 15.5q36 10 36 -26v-101q0 -17 -8 -25t-28 -16q-45 -14 -72 -14.5t-85 9.5z" />
    <glyph glyph-name="etilde" unicode="&#x1ebd;" horiz-adv-x="654" 
d="M569 0h-464q-36 0 -36 36v648q0 36 36 36h464q36 0 36 -36v-117q0 -36 -36 -36h-276v-77h195q36 0 36 -36v-107q0 -36 -36 -36h-195v-86h276q36 0 36 -36v-117q0 -36 -36 -36zM336 764l-28 4q-60 7 -81 5.5t-64 -14.5q-36 -11 -36 26v101q0 17 8 25t28 16
q45 14 71.5 14.5t84.5 -9.5l17 -2l22 -3q69 -9 86.5 -7.5t64.5 15.5q36 10 36 -26v-101q0 -17 -8 -25t-28 -16q-45 -14 -72 -14.5t-85 9.5z" />
    <glyph glyph-name="Ecircumflexacute" unicode="&#x1ebe;" horiz-adv-x="654" 
d="M569 0h-464q-36 0 -36 36v648q0 36 36 36h464q36 0 36 -36v-117q0 -36 -36 -36h-276v-77h195q36 0 36 -36v-107q0 -36 -36 -36h-195v-86h276q36 0 36 -36v-117q0 -36 -36 -36zM305 797l-137 -40q-26 -8 -33.5 -2t-7.5 33v81q0 18 4 27.5t11 13.5t26 12l128 46q17 7 39 9
q19 0 32 -5l137 -50q27 -10 34.5 -18.5t7.5 -34.5v-81q0 -27 -8 -33t-34 2l-137 40q-31 8 -62 0zM552 1202q16 4 25 -5.5t9 -27.5v-106q0 -17 -8 -24t-28 -12l-137 -33q-16 -4 -25 5.5t-9 27.5v106q0 17 8 24t28 12z" />
    <glyph glyph-name="ecircumflexacute" unicode="&#x1ebf;" horiz-adv-x="654" 
d="M569 0h-464q-36 0 -36 36v648q0 36 36 36h464q36 0 36 -36v-117q0 -36 -36 -36h-276v-77h195q36 0 36 -36v-107q0 -36 -36 -36h-195v-86h276q36 0 36 -36v-117q0 -36 -36 -36zM305 797l-137 -40q-26 -8 -33.5 -2t-7.5 33v81q0 18 4 27.5t11 13.5t26 12l128 46q17 7 39 9
q19 0 32 -5l137 -50q27 -10 34.5 -18.5t7.5 -34.5v-81q0 -27 -8 -33t-34 2l-137 40q-31 8 -62 0zM552 1202q16 4 25 -5.5t9 -27.5v-106q0 -17 -8 -24t-28 -12l-137 -33q-16 -4 -25 5.5t-9 27.5v106q0 17 8 24t28 12z" />
    <glyph glyph-name="Ecircumflexgrave" unicode="&#x1ec0;" horiz-adv-x="654" 
d="M569 0h-464q-36 0 -36 36v648q0 36 36 36h464q36 0 36 -36v-117q0 -36 -36 -36h-276v-77h195q36 0 36 -36v-107q0 -36 -36 -36h-195v-86h276q36 0 36 -36v-117q0 -36 -36 -36zM305 797l-137 -40q-26 -8 -33.5 -2t-7.5 33v81q0 18 4 27.5t11 13.5t26 12l128 46q17 7 39 9
q19 0 32 -5l137 -50q27 -10 34.5 -18.5t7.5 -34.5v-81q0 -27 -8 -33t-34 2l-137 40q-31 8 -62 0zM393 1177l137 -33q20 -5 28 -12t8 -24v-106q0 -18 -9 -27.5t-25 -5.5l-137 33q-20 5 -28 12t-8 24v106q0 18 9 27.5t25 5.5z" />
    <glyph glyph-name="ecircumflexgrave" unicode="&#x1ec1;" horiz-adv-x="654" 
d="M569 0h-464q-36 0 -36 36v648q0 36 36 36h464q36 0 36 -36v-117q0 -36 -36 -36h-276v-77h195q36 0 36 -36v-107q0 -36 -36 -36h-195v-86h276q36 0 36 -36v-117q0 -36 -36 -36zM305 797l-137 -40q-26 -8 -33.5 -2t-7.5 33v81q0 18 4 27.5t11 13.5t26 12l128 46q17 7 39 9
q19 0 32 -5l137 -50q27 -10 34.5 -18.5t7.5 -34.5v-81q0 -27 -8 -33t-34 2l-137 40q-31 8 -62 0zM393 1177l137 -33q20 -5 28 -12t8 -24v-106q0 -18 -9 -27.5t-25 -5.5l-137 33q-20 5 -28 12t-8 24v106q0 18 9 27.5t25 5.5z" />
    <glyph glyph-name="Ecircumflexhookabove" unicode="&#x1ec2;" horiz-adv-x="654" 
d="M569 0h-464q-36 0 -36 36v648q0 36 36 36h464q36 0 36 -36v-117q0 -36 -36 -36h-276v-77h195q36 0 36 -36v-107q0 -36 -36 -36h-195v-86h276q36 0 36 -36v-117q0 -36 -36 -36zM305 797l-137 -40q-26 -8 -33.5 -2t-7.5 33v81q0 18 4 27.5t11 13.5t26 12l128 46q17 7 39 9
q19 0 32 -5l137 -50q27 -10 34.5 -18.5t7.5 -34.5v-81q0 -27 -8 -33t-34 2l-137 40q-31 8 -62 0zM590 991l-141 -19q-17 -3 -20 16l-11 79q-3 18 17 21l89 14q19 3 19 17t-19 14h-129q-19 0 -19 19v73q0 19 19 19h168q52 0 80 -26t28 -76v-64q0 -42 -20.5 -61.5t-60.5 -25.5
z" />
    <glyph glyph-name="ecircumflexhookabove" unicode="&#x1ec3;" horiz-adv-x="654" 
d="M569 0h-464q-36 0 -36 36v648q0 36 36 36h464q36 0 36 -36v-117q0 -36 -36 -36h-276v-77h195q36 0 36 -36v-107q0 -36 -36 -36h-195v-86h276q36 0 36 -36v-117q0 -36 -36 -36zM305 797l-137 -40q-26 -8 -33.5 -2t-7.5 33v81q0 18 4 27.5t11 13.5t26 12l128 46q17 7 39 9
q19 0 32 -5l137 -50q27 -10 34.5 -18.5t7.5 -34.5v-81q0 -27 -8 -33t-34 2l-137 40q-31 8 -62 0zM590 991l-141 -19q-17 -3 -20 16l-11 79q-3 18 17 21l89 14q19 3 19 17t-19 14h-129q-19 0 -19 19v73q0 19 19 19h168q52 0 80 -26t28 -76v-64q0 -42 -20.5 -61.5t-60.5 -25.5
z" />
    <glyph glyph-name="Ecircumflextilde" unicode="&#x1ec4;" horiz-adv-x="654" 
d="M569 0h-464q-36 0 -36 36v648q0 36 36 36h464q36 0 36 -36v-117q0 -36 -36 -36h-276v-77h195q36 0 36 -36v-107q0 -36 -36 -36h-195v-86h276q36 0 36 -36v-117q0 -36 -36 -36zM305 797l-137 -40q-26 -8 -33.5 -2t-7.5 33v81q0 18 4 27.5t11 13.5t26 12l128 46q17 7 39 9
q19 0 32 -5l137 -50q27 -10 34.5 -18.5t7.5 -34.5v-81q0 -27 -8 -33t-34 2l-137 40q-31 8 -62 0zM336 1014l-28 4q-60 7 -81 5.5t-64 -14.5q-36 -11 -36 26v101q0 17 8 25t28 16q45 14 71.5 14.5t84.5 -9.5l17 -2l22 -3q69 -9 86.5 -7.5t64.5 15.5q36 11 36 -26v-101
q0 -17 -8 -25t-28 -16q-45 -14 -72 -14.5t-85 9.5z" />
    <glyph glyph-name="ecircumflextilde" unicode="&#x1ec5;" horiz-adv-x="654" 
d="M569 0h-464q-36 0 -36 36v648q0 36 36 36h464q36 0 36 -36v-117q0 -36 -36 -36h-276v-77h195q36 0 36 -36v-107q0 -36 -36 -36h-195v-86h276q36 0 36 -36v-117q0 -36 -36 -36zM305 797l-137 -40q-26 -8 -33.5 -2t-7.5 33v81q0 18 4 27.5t11 13.5t26 12l128 46q17 7 39 9
q19 0 32 -5l137 -50q27 -10 34.5 -18.5t7.5 -34.5v-81q0 -27 -8 -33t-34 2l-137 40q-31 8 -62 0zM336 1014l-28 4q-60 7 -81 5.5t-64 -14.5q-36 -11 -36 26v101q0 17 8 25t28 16q45 14 71.5 14.5t84.5 -9.5l17 -2l22 -3q69 -9 86.5 -7.5t64.5 15.5q36 11 36 -26v-101
q0 -17 -8 -25t-28 -16q-45 -14 -72 -14.5t-85 9.5z" />
    <glyph glyph-name="Ecircumflexdotbelow" unicode="&#x1ec6;" horiz-adv-x="654" 
d="M569 0h-464q-36 0 -36 36v648q0 36 36 36h464q36 0 36 -36v-117q0 -36 -36 -36h-276v-77h195q36 0 36 -36v-107q0 -36 -36 -36h-195v-86h276q36 0 36 -36v-117q0 -36 -36 -36zM305 797l-137 -40q-26 -8 -33.5 -2t-7.5 33v81q0 18 4 27.5t11 13.5t26 12l128 46q17 7 39 9
q19 0 32 -5l137 -50q27 -10 34.5 -18.5t7.5 -34.5v-81q0 -27 -8 -33t-34 2l-137 40q-31 8 -62 0zM406 -240h-158q-36 0 -36 36v127q0 36 36 36h158q36 0 36 -36v-127q0 -36 -36 -36z" />
    <glyph glyph-name="ecircumflexdotbelow" unicode="&#x1ec7;" horiz-adv-x="654" 
d="M569 0h-464q-36 0 -36 36v648q0 36 36 36h464q36 0 36 -36v-117q0 -36 -36 -36h-276v-77h195q36 0 36 -36v-107q0 -36 -36 -36h-195v-86h276q36 0 36 -36v-117q0 -36 -36 -36zM305 797l-137 -40q-26 -8 -33.5 -2t-7.5 33v81q0 18 4 27.5t11 13.5t26 12l128 46q17 7 39 9
q19 0 32 -5l137 -50q27 -10 34.5 -18.5t7.5 -34.5v-81q0 -27 -8 -33t-34 2l-137 40q-31 8 -62 0zM406 -240h-158q-36 0 -36 36v127q0 36 36 36h158q36 0 36 -36v-127q0 -36 -36 -36z" />
    <glyph glyph-name="Ihookabove" unicode="&#x1ec8;" horiz-adv-x="605" 
d="M89 0q-36 0 -36 36v119q0 36 36 36h99v336h-99q-36 0 -36 36v121q0 36 36 36h426q36 0 36 -36v-121q0 -36 -36 -36h-97v-336h97q36 0 36 -36v-119q0 -36 -36 -36h-426zM369 767l-141 -19q-17 -3 -20 16l-11 79q-3 18 17 21l89 14q19 3 19 17t-19 14h-129q-19 0 -19 19v73
q0 19 19 19h168q52 0 80 -26t28 -76v-64q0 -42 -20.5 -61.5t-60.5 -25.5z" />
    <glyph glyph-name="ihookabove" unicode="&#x1ec9;" horiz-adv-x="605" 
d="M89 0q-36 0 -36 36v119q0 36 36 36h99v336h-99q-36 0 -36 36v121q0 36 36 36h426q36 0 36 -36v-121q0 -36 -36 -36h-97v-336h97q36 0 36 -36v-119q0 -36 -36 -36h-426zM369 767l-141 -19q-17 -3 -20 16l-11 79q-3 18 17 21l89 14q19 3 19 17t-19 14h-129q-19 0 -19 19v73
q0 19 19 19h168q52 0 80 -26t28 -76v-64q0 -42 -20.5 -61.5t-60.5 -25.5z" />
    <glyph glyph-name="Idotbelow" unicode="&#x1eca;" horiz-adv-x="605" 
d="M89 0q-36 0 -36 36v119q0 36 36 36h99v336h-99q-36 0 -36 36v121q0 36 36 36h426q36 0 36 -36v-121q0 -36 -36 -36h-97v-336h97q36 0 36 -36v-119q0 -36 -36 -36h-426zM382 -240h-158q-36 0 -36 36v127q0 36 36 36h158q36 0 36 -36v-127q0 -36 -36 -36z" />
    <glyph glyph-name="idotbelow" unicode="&#x1ecb;" horiz-adv-x="605" 
d="M89 0q-36 0 -36 36v119q0 36 36 36h99v336h-99q-36 0 -36 36v121q0 36 36 36h426q36 0 36 -36v-121q0 -36 -36 -36h-97v-336h97q36 0 36 -36v-119q0 -36 -36 -36h-426zM382 -240h-158q-36 0 -36 36v127q0 36 36 36h158q36 0 36 -36v-127q0 -36 -36 -36z" />
    <glyph glyph-name="Odotbelow" unicode="&#x1ecc;" horiz-adv-x="737" 
d="M679 189q0 -49 -13.5 -84t-47 -63.5t-96 -42.5t-153.5 -14t-153.5 14t-96 42.5t-47.5 63.5t-14 84v341q0 49 14 84t47.5 63.5t96 43t153.5 14.5t153.5 -14.5t96 -43t47 -63.5t13.5 -84v-341zM285 225q0 -23 17 -35t67 -12t67 12t17 35v269q0 23 -17 34.5t-67 11.5
t-67 -12t-17 -34v-269zM448 -240h-158q-36 0 -36 36v127q0 36 36 36h158q36 0 36 -36v-127q0 -36 -36 -36z" />
    <glyph glyph-name="odotbelow" unicode="&#x1ecd;" horiz-adv-x="737" 
d="M679 189q0 -49 -13.5 -84t-47 -63.5t-96 -42.5t-153.5 -14t-153.5 14t-96 42.5t-47.5 63.5t-14 84v341q0 49 14 84t47.5 63.5t96 43t153.5 14.5t153.5 -14.5t96 -43t47 -63.5t13.5 -84v-341zM285 225q0 -23 17 -35t67 -12t67 12t17 35v269q0 23 -17 34.5t-67 11.5
t-67 -12t-17 -34v-269zM448 -240h-158q-36 0 -36 36v127q0 36 36 36h158q36 0 36 -36v-127q0 -36 -36 -36z" />
    <glyph glyph-name="Ohookabove" unicode="&#x1ece;" horiz-adv-x="737" 
d="M679 189q0 -49 -13.5 -84t-47 -63.5t-96 -42.5t-153.5 -14t-153.5 14t-96 42.5t-47.5 63.5t-14 84v341q0 49 14 84t47.5 63.5t96 43t153.5 14.5t153.5 -14.5t96 -43t47 -63.5t13.5 -84v-341zM285 225q0 -23 17 -35t67 -12t67 12t17 35v269q0 23 -17 34.5t-67 11.5
t-67 -12t-17 -34v-269zM439 767l-141 -19q-17 -3 -20 16l-11 79q-3 18 17 21l89 14q19 3 19 17t-19 14h-129q-19 0 -19 19v73q0 19 19 19h168q52 0 80 -26t28 -76v-64q0 -42 -20.5 -61.5t-60.5 -25.5z" />
    <glyph glyph-name="ohookabove" unicode="&#x1ecf;" horiz-adv-x="737" 
d="M679 189q0 -49 -13.5 -84t-47 -63.5t-96 -42.5t-153.5 -14t-153.5 14t-96 42.5t-47.5 63.5t-14 84v341q0 49 14 84t47.5 63.5t96 43t153.5 14.5t153.5 -14.5t96 -43t47 -63.5t13.5 -84v-341zM285 225q0 -23 17 -35t67 -12t67 12t17 35v269q0 23 -17 34.5t-67 11.5
t-67 -12t-17 -34v-269zM439 767l-141 -19q-17 -3 -20 16l-11 79q-3 18 17 21l89 14q19 3 19 17t-19 14h-129q-19 0 -19 19v73q0 19 19 19h168q52 0 80 -26t28 -76v-64q0 -42 -20.5 -61.5t-60.5 -25.5z" />
    <glyph glyph-name="Ocircumflexacute" unicode="&#x1ed0;" horiz-adv-x="737" 
d="M679 189q0 -49 -13.5 -84t-47 -63.5t-96 -42.5t-153.5 -14t-153.5 14t-96 42.5t-47.5 63.5t-14 84v341q0 49 14 84t47.5 63.5t96 43t153.5 14.5t153.5 -14.5t96 -43t47 -63.5t13.5 -84v-341zM285 225q0 -23 17 -35t67 -12t67 12t17 35v269q0 23 -17 34.5t-67 11.5
t-67 -12t-17 -34v-269zM336 797l-137 -40q-25 -8 -33 -2t-8 33v81q0 18 4 27.5t11 13.5t26 12l128 46q17 7 39 9q20 0 32 -5l137 -50q27 -10 34.5 -18.5t7.5 -34.5v-81q0 -27 -8 -33t-34 2l-137 40q-31 8 -62 0zM583 1202q16 4 25 -5.5t9 -27.5v-106q0 -17 -8 -24t-28 -12
l-137 -33q-16 -4 -25 5.5t-9 27.5v106q0 17 8 24t28 12z" />
    <glyph glyph-name="ocircumflexacute" unicode="&#x1ed1;" horiz-adv-x="737" 
d="M679 189q0 -49 -13.5 -84t-47 -63.5t-96 -42.5t-153.5 -14t-153.5 14t-96 42.5t-47.5 63.5t-14 84v341q0 49 14 84t47.5 63.5t96 43t153.5 14.5t153.5 -14.5t96 -43t47 -63.5t13.5 -84v-341zM285 225q0 -23 17 -35t67 -12t67 12t17 35v269q0 23 -17 34.5t-67 11.5
t-67 -12t-17 -34v-269zM336 797l-137 -40q-25 -8 -33 -2t-8 33v81q0 18 4 27.5t11 13.5t26 12l128 46q17 7 39 9q20 0 32 -5l137 -50q27 -10 34.5 -18.5t7.5 -34.5v-81q0 -27 -8 -33t-34 2l-137 40q-31 8 -62 0zM583 1202q16 4 25 -5.5t9 -27.5v-106q0 -17 -8 -24t-28 -12
l-137 -33q-16 -4 -25 5.5t-9 27.5v106q0 17 8 24t28 12z" />
    <glyph glyph-name="Ocircumflexgrave" unicode="&#x1ed2;" horiz-adv-x="737" 
d="M679 189q0 -49 -13.5 -84t-47 -63.5t-96 -42.5t-153.5 -14t-153.5 14t-96 42.5t-47.5 63.5t-14 84v341q0 49 14 84t47.5 63.5t96 43t153.5 14.5t153.5 -14.5t96 -43t47 -63.5t13.5 -84v-341zM285 225q0 -23 17 -35t67 -12t67 12t17 35v269q0 23 -17 34.5t-67 11.5
t-67 -12t-17 -34v-269zM336 797l-137 -40q-25 -8 -33 -2t-8 33v81q0 18 4 27.5t11 13.5t26 12l128 46q17 7 39 9q20 0 32 -5l137 -50q27 -10 34.5 -18.5t7.5 -34.5v-81q0 -27 -8 -33t-34 2l-137 40q-31 8 -62 0zM424 1177l137 -33q20 -5 28 -12t8 -24v-106q0 -18 -9 -27.5
t-25 -5.5l-137 33q-20 5 -28 12t-8 24v106q0 18 9 27.5t25 5.5z" />
    <glyph glyph-name="ocircumflexgrave" unicode="&#x1ed3;" horiz-adv-x="737" 
d="M679 189q0 -49 -13.5 -84t-47 -63.5t-96 -42.5t-153.5 -14t-153.5 14t-96 42.5t-47.5 63.5t-14 84v341q0 49 14 84t47.5 63.5t96 43t153.5 14.5t153.5 -14.5t96 -43t47 -63.5t13.5 -84v-341zM285 225q0 -23 17 -35t67 -12t67 12t17 35v269q0 23 -17 34.5t-67 11.5
t-67 -12t-17 -34v-269zM336 797l-137 -40q-25 -8 -33 -2t-8 33v81q0 18 4 27.5t11 13.5t26 12l128 46q17 7 39 9q20 0 32 -5l137 -50q27 -10 34.5 -18.5t7.5 -34.5v-81q0 -27 -8 -33t-34 2l-137 40q-31 8 -62 0zM424 1177l137 -33q20 -5 28 -12t8 -24v-106q0 -18 -9 -27.5
t-25 -5.5l-137 33q-20 5 -28 12t-8 24v106q0 18 9 27.5t25 5.5z" />
    <glyph glyph-name="Ocircumflexhookabove" unicode="&#x1ed4;" horiz-adv-x="737" 
d="M679 189q0 -49 -13.5 -84t-47 -63.5t-96 -42.5t-153.5 -14t-153.5 14t-96 42.5t-47.5 63.5t-14 84v341q0 49 14 84t47.5 63.5t96 43t153.5 14.5t153.5 -14.5t96 -43t47 -63.5t13.5 -84v-341zM285 225q0 -23 17 -35t67 -12t67 12t17 35v269q0 23 -17 34.5t-67 11.5
t-67 -12t-17 -34v-269zM336 797l-137 -40q-25 -8 -33 -2t-8 33v81q0 18 4 27.5t11 13.5t26 12l128 46q17 7 39 9q20 0 32 -5l137 -50q27 -10 34.5 -18.5t7.5 -34.5v-81q0 -27 -8 -33t-34 2l-137 40q-31 8 -62 0zM621 991l-141 -19q-17 -3 -20 16l-11 79q-3 18 17 21l89 14
q19 3 19 17t-19 14h-129q-19 0 -19 19v73q0 19 19 19h168q52 0 80 -26t28 -76v-64q0 -42 -20.5 -61.5t-60.5 -25.5z" />
    <glyph glyph-name="ocircumflexhookabove" unicode="&#x1ed5;" horiz-adv-x="737" 
d="M679 189q0 -49 -13.5 -84t-47 -63.5t-96 -42.5t-153.5 -14t-153.5 14t-96 42.5t-47.5 63.5t-14 84v341q0 49 14 84t47.5 63.5t96 43t153.5 14.5t153.5 -14.5t96 -43t47 -63.5t13.5 -84v-341zM285 225q0 -23 17 -35t67 -12t67 12t17 35v269q0 23 -17 34.5t-67 11.5
t-67 -12t-17 -34v-269zM336 797l-137 -40q-25 -8 -33 -2t-8 33v81q0 18 4 27.5t11 13.5t26 12l128 46q17 7 39 9q20 0 32 -5l137 -50q27 -10 34.5 -18.5t7.5 -34.5v-81q0 -27 -8 -33t-34 2l-137 40q-31 8 -62 0zM621 991l-141 -19q-17 -3 -20 16l-11 79q-3 18 17 21l89 14
q19 3 19 17t-19 14h-129q-19 0 -19 19v73q0 19 19 19h168q52 0 80 -26t28 -76v-64q0 -42 -20.5 -61.5t-60.5 -25.5z" />
    <glyph glyph-name="Ocircumflextilde" unicode="&#x1ed6;" horiz-adv-x="737" 
d="M679 189q0 -49 -13.5 -84t-47 -63.5t-96 -42.5t-153.5 -14t-153.5 14t-96 42.5t-47.5 63.5t-14 84v341q0 49 14 84t47.5 63.5t96 43t153.5 14.5t153.5 -14.5t96 -43t47 -63.5t13.5 -84v-341zM285 225q0 -23 17 -35t67 -12t67 12t17 35v269q0 23 -17 34.5t-67 11.5
t-67 -12t-17 -34v-269zM336 797l-137 -40q-25 -8 -33 -2t-8 33v81q0 18 4 27.5t11 13.5t26 12l128 46q17 7 39 9q20 0 32 -5l137 -50q27 -10 34.5 -18.5t7.5 -34.5v-81q0 -27 -8 -33t-34 2l-137 40q-31 8 -62 0zM367 1014l-28 4q-60 7 -81 5.5t-64 -14.5q-36 -11 -36 26v101
q0 17 8 25t28 16q45 14 71.5 14.5t84.5 -9.5l17 -2l22 -3q69 -9 86.5 -7.5t64.5 15.5q36 11 36 -26v-101q0 -17 -8 -25t-28 -16q-45 -14 -72 -14.5t-85 9.5z" />
    <glyph glyph-name="ocircumflextilde" unicode="&#x1ed7;" horiz-adv-x="737" 
d="M679 189q0 -49 -13.5 -84t-47 -63.5t-96 -42.5t-153.5 -14t-153.5 14t-96 42.5t-47.5 63.5t-14 84v341q0 49 14 84t47.5 63.5t96 43t153.5 14.5t153.5 -14.5t96 -43t47 -63.5t13.5 -84v-341zM285 225q0 -23 17 -35t67 -12t67 12t17 35v269q0 23 -17 34.5t-67 11.5
t-67 -12t-17 -34v-269zM336 797l-137 -40q-25 -8 -33 -2t-8 33v81q0 18 4 27.5t11 13.5t26 12l128 46q17 7 39 9q20 0 32 -5l137 -50q27 -10 34.5 -18.5t7.5 -34.5v-81q0 -27 -8 -33t-34 2l-137 40q-31 8 -62 0zM367 1014l-28 4q-60 7 -81 5.5t-64 -14.5q-36 -11 -36 26v101
q0 17 8 25t28 16q45 14 71.5 14.5t84.5 -9.5l17 -2l22 -3q69 -9 86.5 -7.5t64.5 15.5q36 11 36 -26v-101q0 -17 -8 -25t-28 -16q-45 -14 -72 -14.5t-85 9.5z" />
    <glyph glyph-name="Ocircumflexdotbelow" unicode="&#x1ed8;" horiz-adv-x="737" 
d="M679 189q0 -49 -13.5 -84t-47 -63.5t-96 -42.5t-153.5 -14t-153.5 14t-96 42.5t-47.5 63.5t-14 84v341q0 49 14 84t47.5 63.5t96 43t153.5 14.5t153.5 -14.5t96 -43t47 -63.5t13.5 -84v-341zM285 225q0 -23 17 -35t67 -12t67 12t17 35v269q0 23 -17 34.5t-67 11.5
t-67 -12t-17 -34v-269zM336 797l-137 -40q-25 -8 -33 -2t-8 33v81q0 18 4 27.5t11 13.5t26 12l128 46q17 7 39 9q20 0 32 -5l137 -50q27 -10 34.5 -18.5t7.5 -34.5v-81q0 -27 -8 -33t-34 2l-137 40q-31 8 -62 0zM448 -240h-158q-36 0 -36 36v127q0 36 36 36h158q36 0 36 -36
v-127q0 -36 -36 -36z" />
    <glyph glyph-name="ocircumflexdotbelow" unicode="&#x1ed9;" horiz-adv-x="737" 
d="M679 189q0 -49 -13.5 -84t-47 -63.5t-96 -42.5t-153.5 -14t-153.5 14t-96 42.5t-47.5 63.5t-14 84v341q0 49 14 84t47.5 63.5t96 43t153.5 14.5t153.5 -14.5t96 -43t47 -63.5t13.5 -84v-341zM285 225q0 -23 17 -35t67 -12t67 12t17 35v269q0 23 -17 34.5t-67 11.5
t-67 -12t-17 -34v-269zM336 797l-137 -40q-25 -8 -33 -2t-8 33v81q0 18 4 27.5t11 13.5t26 12l128 46q17 7 39 9q20 0 32 -5l137 -50q27 -10 34.5 -18.5t7.5 -34.5v-81q0 -27 -8 -33t-34 2l-137 40q-31 8 -62 0zM448 -240h-158q-36 0 -36 36v127q0 36 36 36h158q36 0 36 -36
v-127q0 -36 -36 -36z" />
    <glyph glyph-name="Ohornacute" unicode="&#x1eda;" horiz-adv-x="747" 
d="M369 -15q-91 0 -153.5 14t-96 42.5t-47.5 63.5t-14 84v341q0 49 14 84t47.5 63.5t96 43t153.5 14.5q93 0 154 -15q21 1 29 8t8 21v21q0 18 6.5 24.5t23.5 6.5h111q36 0 36 -36v-44q0 -85 -68 -118q10 -31 10 -73v-341q0 -49 -13.5 -84t-47 -63.5t-96 -42.5t-153.5 -14z
M285 225q0 -23 17 -35t67 -12t67 12t17 35v269q0 23 -17 34.5t-67 11.5t-67 -12t-17 -34v-269zM503 796l-349 -43q-34 -4 -34 33v96q0 18 8.5 26t27.5 10l349 43q34 4 34 -33v-96q0 -18 -8.5 -26t-27.5 -10z" />
    <glyph glyph-name="ohornacute" unicode="&#x1edb;" horiz-adv-x="747" 
d="M369 -15q-91 0 -153.5 14t-96 42.5t-47.5 63.5t-14 84v341q0 49 14 84t47.5 63.5t96 43t153.5 14.5q93 0 154 -15q21 1 29 8t8 21v21q0 18 6.5 24.5t23.5 6.5h111q36 0 36 -36v-44q0 -85 -68 -118q10 -31 10 -73v-341q0 -49 -13.5 -84t-47 -63.5t-96 -42.5t-153.5 -14z
M285 225q0 -23 17 -35t67 -12t67 12t17 35v269q0 23 -17 34.5t-67 11.5t-67 -12t-17 -34v-269zM503 796l-349 -43q-34 -4 -34 33v96q0 18 8.5 26t27.5 10l349 43q34 4 34 -33v-96q0 -18 -8.5 -26t-27.5 -10z" />
    <glyph glyph-name="Ohorngrave" unicode="&#x1edc;" horiz-adv-x="747" 
d="M369 -15q-91 0 -153.5 14t-96 42.5t-47.5 63.5t-14 84v341q0 49 14 84t47.5 63.5t96 43t153.5 14.5q93 0 154 -15q21 1 29 8t8 21v21q0 18 6.5 24.5t23.5 6.5h111q36 0 36 -36v-44q0 -85 -68 -118q10 -31 10 -73v-341q0 -49 -13.5 -84t-47 -63.5t-96 -42.5t-153.5 -14z
M285 225q0 -23 17 -35t67 -12t67 12t17 35v269q0 23 -17 34.5t-67 11.5t-67 -12t-17 -34v-269zM495 763l-349 43q-19 2 -27.5 10t-8.5 26v96q0 37 34 33l349 -43q19 -2 27.5 -10t8.5 -26v-96q0 -37 -34 -33z" />
    <glyph glyph-name="ohorngrave" unicode="&#x1edd;" horiz-adv-x="747" 
d="M369 -15q-91 0 -153.5 14t-96 42.5t-47.5 63.5t-14 84v341q0 49 14 84t47.5 63.5t96 43t153.5 14.5q93 0 154 -15q21 1 29 8t8 21v21q0 18 6.5 24.5t23.5 6.5h111q36 0 36 -36v-44q0 -85 -68 -118q10 -31 10 -73v-341q0 -49 -13.5 -84t-47 -63.5t-96 -42.5t-153.5 -14z
M285 225q0 -23 17 -35t67 -12t67 12t17 35v269q0 23 -17 34.5t-67 11.5t-67 -12t-17 -34v-269zM495 763l-349 43q-19 2 -27.5 10t-8.5 26v96q0 37 34 33l349 -43q19 -2 27.5 -10t8.5 -26v-96q0 -37 -34 -33z" />
    <glyph glyph-name="Ohornhookabove" unicode="&#x1ede;" horiz-adv-x="747" 
d="M369 -15q-91 0 -153.5 14t-96 42.5t-47.5 63.5t-14 84v341q0 49 14 84t47.5 63.5t96 43t153.5 14.5q93 0 154 -15q21 1 29 8t8 21v21q0 18 6.5 24.5t23.5 6.5h111q36 0 36 -36v-44q0 -85 -68 -118q10 -31 10 -73v-341q0 -49 -13.5 -84t-47 -63.5t-96 -42.5t-153.5 -14z
M285 225q0 -23 17 -35t67 -12t67 12t17 35v269q0 23 -17 34.5t-67 11.5t-67 -12t-17 -34v-269zM439 767l-141 -19q-17 -3 -20 16l-11 79q-3 18 17 21l89 14q19 3 19 17t-19 14h-129q-19 0 -19 19v73q0 19 19 19h168q52 0 80 -26t28 -76v-64q0 -42 -20.5 -61.5t-60.5 -25.5z
" />
    <glyph glyph-name="ohornhookabove" unicode="&#x1edf;" horiz-adv-x="747" 
d="M369 -15q-91 0 -153.5 14t-96 42.5t-47.5 63.5t-14 84v341q0 49 14 84t47.5 63.5t96 43t153.5 14.5q93 0 154 -15q21 1 29 8t8 21v21q0 18 6.5 24.5t23.5 6.5h111q36 0 36 -36v-44q0 -85 -68 -118q10 -31 10 -73v-341q0 -49 -13.5 -84t-47 -63.5t-96 -42.5t-153.5 -14z
M285 225q0 -23 17 -35t67 -12t67 12t17 35v269q0 23 -17 34.5t-67 11.5t-67 -12t-17 -34v-269zM439 767l-141 -19q-17 -3 -20 16l-11 79q-3 18 17 21l89 14q19 3 19 17t-19 14h-129q-19 0 -19 19v73q0 19 19 19h168q52 0 80 -26t28 -76v-64q0 -42 -20.5 -61.5t-60.5 -25.5z
" />
    <glyph glyph-name="Ohorntilde" unicode="&#x1ee0;" horiz-adv-x="747" 
d="M369 -15q-91 0 -153.5 14t-96 42.5t-47.5 63.5t-14 84v341q0 49 14 84t47.5 63.5t96 43t153.5 14.5q93 0 154 -15q21 1 29 8t8 21v21q0 18 6.5 24.5t23.5 6.5h111q36 0 36 -36v-44q0 -85 -68 -118q10 -31 10 -73v-341q0 -49 -13.5 -84t-47 -63.5t-96 -42.5t-153.5 -14z
M285 225q0 -23 17 -35t67 -12t67 12t17 35v269q0 23 -17 34.5t-67 11.5t-67 -12t-17 -34v-269zM334 774l-28 4q-60 7 -81 5.5t-64 -14.5q-36 -11 -36 26v101q0 17 8 25t28 16q45 14 71.5 14.5t84.5 -9.5l17 -2l22 -3q69 -9 86.5 -7.5t64.5 15.5q36 11 36 -26v-101
q0 -17 -8 -25t-28 -16q-45 -14 -72 -14.5t-85 9.5z" />
    <glyph glyph-name="ohorntilde" unicode="&#x1ee1;" horiz-adv-x="747" 
d="M369 -15q-91 0 -153.5 14t-96 42.5t-47.5 63.5t-14 84v341q0 49 14 84t47.5 63.5t96 43t153.5 14.5q93 0 154 -15q21 1 29 8t8 21v21q0 18 6.5 24.5t23.5 6.5h111q36 0 36 -36v-44q0 -85 -68 -118q10 -31 10 -73v-341q0 -49 -13.5 -84t-47 -63.5t-96 -42.5t-153.5 -14z
M285 225q0 -23 17 -35t67 -12t67 12t17 35v269q0 23 -17 34.5t-67 11.5t-67 -12t-17 -34v-269zM334 774l-28 4q-60 7 -81 5.5t-64 -14.5q-36 -11 -36 26v101q0 17 8 25t28 16q45 14 71.5 14.5t84.5 -9.5l17 -2l22 -3q69 -9 86.5 -7.5t64.5 15.5q36 11 36 -26v-101
q0 -17 -8 -25t-28 -16q-45 -14 -72 -14.5t-85 9.5z" />
    <glyph glyph-name="Ohorndotbelow" unicode="&#x1ee2;" horiz-adv-x="747" 
d="M369 -15q-91 0 -153.5 14t-96 42.5t-47.5 63.5t-14 84v341q0 49 14 84t47.5 63.5t96 43t153.5 14.5q93 0 154 -15q21 1 29 8t8 21v21q0 18 6.5 24.5t23.5 6.5h111q36 0 36 -36v-44q0 -85 -68 -118q10 -31 10 -73v-341q0 -49 -13.5 -84t-47 -63.5t-96 -42.5t-153.5 -14z
M285 225q0 -23 17 -35t67 -12t67 12t17 35v269q0 23 -17 34.5t-67 11.5t-67 -12t-17 -34v-269zM448 -240h-158q-36 0 -36 36v127q0 36 36 36h158q36 0 36 -36v-127q0 -36 -36 -36z" />
    <glyph glyph-name="ohorndotbelow" unicode="&#x1ee3;" horiz-adv-x="747" 
d="M369 -15q-91 0 -153.5 14t-96 42.5t-47.5 63.5t-14 84v341q0 49 14 84t47.5 63.5t96 43t153.5 14.5q93 0 154 -15q21 1 29 8t8 21v21q0 18 6.5 24.5t23.5 6.5h111q36 0 36 -36v-44q0 -85 -68 -118q10 -31 10 -73v-341q0 -49 -13.5 -84t-47 -63.5t-96 -42.5t-153.5 -14z
M285 225q0 -23 17 -35t67 -12t67 12t17 35v269q0 23 -17 34.5t-67 11.5t-67 -12t-17 -34v-269zM448 -240h-158q-36 0 -36 36v127q0 36 36 36h158q36 0 36 -36v-127q0 -36 -36 -36z" />
    <glyph glyph-name="Udotbelow" unicode="&#x1ee4;" horiz-adv-x="746" 
d="M682 189q0 -49 -14 -84t-47.5 -63.5t-95 -42.5t-152.5 -14t-152.5 14t-95 42.5t-47.5 63.5t-14 84v495q0 36 36 36h157q36 0 36 -36v-456q0 -23 17 -35t65 -12q49 0 66 12t17 35v456q0 36 36 36h152q36 0 36 -36v-495zM452 -240h-158q-36 0 -36 36v127q0 36 36 36h158
q36 0 36 -36v-127q0 -36 -36 -36z" />
    <glyph glyph-name="udotbelow" unicode="&#x1ee5;" horiz-adv-x="746" 
d="M682 189q0 -49 -14 -84t-47.5 -63.5t-95 -42.5t-152.5 -14t-152.5 14t-95 42.5t-47.5 63.5t-14 84v495q0 36 36 36h157q36 0 36 -36v-456q0 -23 17 -35t65 -12q49 0 66 12t17 35v456q0 36 36 36h152q36 0 36 -36v-495zM452 -240h-158q-36 0 -36 36v127q0 36 36 36h158
q36 0 36 -36v-127q0 -36 -36 -36z" />
    <glyph glyph-name="Uhookabove" unicode="&#x1ee6;" horiz-adv-x="746" 
d="M682 189q0 -49 -14 -84t-47.5 -63.5t-95 -42.5t-152.5 -14t-152.5 14t-95 42.5t-47.5 63.5t-14 84v495q0 36 36 36h157q36 0 36 -36v-456q0 -23 17 -35t65 -12q49 0 66 12t17 35v456q0 36 36 36h152q36 0 36 -36v-495zM469 767l-141 -19q-17 -3 -20 16l-11 79
q-3 18 17 21l89 14q19 3 19 17t-19 14h-129q-19 0 -19 19v73q0 19 19 19h168q52 0 80 -26t28 -76v-64q0 -42 -20.5 -61.5t-60.5 -25.5z" />
    <glyph glyph-name="uhookabove" unicode="&#x1ee7;" horiz-adv-x="746" 
d="M682 189q0 -49 -14 -84t-47.5 -63.5t-95 -42.5t-152.5 -14t-152.5 14t-95 42.5t-47.5 63.5t-14 84v495q0 36 36 36h157q36 0 36 -36v-456q0 -23 17 -35t65 -12q49 0 66 12t17 35v456q0 36 36 36h152q36 0 36 -36v-495zM469 767l-141 -19q-17 -3 -20 16l-11 79
q-3 18 17 21l89 14q19 3 19 17t-19 14h-129q-19 0 -19 19v73q0 19 19 19h168q52 0 80 -26t28 -76v-64q0 -42 -20.5 -61.5t-60.5 -25.5z" />
    <glyph glyph-name="Uhornacute" unicode="&#x1ee8;" horiz-adv-x="756" 
d="M373 -15q-91 0 -152.5 14t-95 42.5t-47.5 63.5t-14 84v495q0 36 36 36h157q36 0 36 -36v-456q0 -23 17 -35t65 -12q49 0 66 12t17 35v456q0 36 36 36h35q23 0 31.5 7t8.5 22v21q0 18 6.5 24.5t23.5 6.5h111q36 0 36 -36v-44q0 -83 -64 -116v-416q0 -49 -14 -84
t-47.5 -63.5t-95 -42.5t-152.5 -14zM503 796l-349 -43q-34 -4 -34 33v96q0 18 8.5 26t27.5 10l349 43q34 4 34 -33v-96q0 -18 -8.5 -26t-27.5 -10z" />
    <glyph glyph-name="uhornacute" unicode="&#x1ee9;" horiz-adv-x="756" 
d="M373 -15q-91 0 -152.5 14t-95 42.5t-47.5 63.5t-14 84v495q0 36 36 36h157q36 0 36 -36v-456q0 -23 17 -35t65 -12q49 0 66 12t17 35v456q0 36 36 36h35q23 0 31.5 7t8.5 22v21q0 18 6.5 24.5t23.5 6.5h111q36 0 36 -36v-44q0 -83 -64 -116v-416q0 -49 -14 -84
t-47.5 -63.5t-95 -42.5t-152.5 -14zM503 796l-349 -43q-34 -4 -34 33v96q0 18 8.5 26t27.5 10l349 43q34 4 34 -33v-96q0 -18 -8.5 -26t-27.5 -10z" />
    <glyph glyph-name="Uhorngrave" unicode="&#x1eea;" horiz-adv-x="756" 
d="M373 -15q-91 0 -152.5 14t-95 42.5t-47.5 63.5t-14 84v495q0 36 36 36h157q36 0 36 -36v-456q0 -23 17 -35t65 -12q49 0 66 12t17 35v456q0 36 36 36h35q23 0 31.5 7t8.5 22v21q0 18 6.5 24.5t23.5 6.5h111q36 0 36 -36v-44q0 -83 -64 -116v-416q0 -49 -14 -84
t-47.5 -63.5t-95 -42.5t-152.5 -14zM495 753l-349 43q-19 2 -27.5 10t-8.5 26v96q0 37 34 33l349 -43q19 -2 27.5 -10t8.5 -26v-96q0 -37 -34 -33z" />
    <glyph glyph-name="uhorngrave" unicode="&#x1eeb;" horiz-adv-x="756" 
d="M373 -15q-91 0 -152.5 14t-95 42.5t-47.5 63.5t-14 84v495q0 36 36 36h157q36 0 36 -36v-456q0 -23 17 -35t65 -12q49 0 66 12t17 35v456q0 36 36 36h35q23 0 31.5 7t8.5 22v21q0 18 6.5 24.5t23.5 6.5h111q36 0 36 -36v-44q0 -83 -64 -116v-416q0 -49 -14 -84
t-47.5 -63.5t-95 -42.5t-152.5 -14zM495 753l-349 43q-19 2 -27.5 10t-8.5 26v96q0 37 34 33l349 -43q19 -2 27.5 -10t8.5 -26v-96q0 -37 -34 -33z" />
    <glyph glyph-name="Uhornhookabove" unicode="&#x1eec;" horiz-adv-x="756" 
d="M373 -15q-91 0 -152.5 14t-95 42.5t-47.5 63.5t-14 84v495q0 36 36 36h157q36 0 36 -36v-456q0 -23 17 -35t65 -12q49 0 66 12t17 35v456q0 36 36 36h35q23 0 31.5 7t8.5 22v21q0 18 6.5 24.5t23.5 6.5h111q36 0 36 -36v-44q0 -83 -64 -116v-416q0 -49 -14 -84
t-47.5 -63.5t-95 -42.5t-152.5 -14zM459 767l-141 -19q-17 -3 -20 16l-11 79q-3 18 17 21l89 14q19 3 19 17t-19 14h-129q-19 0 -19 19v73q0 19 19 19h168q52 0 80 -26t28 -76v-64q0 -42 -20.5 -61.5t-60.5 -25.5z" />
    </font>
</defs>
</svg>
